{"glyphs":{"0":{"ha":833,"x_min":0,"x_max":0,"o":""},"1":{"ha":833,"x_min":0,"x_max":0,"o":""},"2":{"ha":833,"x_min":0,"x_max":0,"o":""},"3":{"ha":833,"x_min":0,"x_max":0,"o":""},"4":{"ha":833,"x_min":0,"x_max":0,"o":""},"5":{"ha":833,"x_min":0,"x_max":0,"o":""},"6":{"ha":833,"x_min":0,"x_max":0,"o":""},"7":{"ha":833,"x_min":0,"x_max":0,"o":""},"8":{"ha":833,"x_min":0,"x_max":0,"o":""},"9":{"ha":833,"x_min":0,"x_max":0,"o":""}," ":{"ha":833,"x_min":0,"x_max":0,"o":""},"!":{"ha":833,"x_min":313,"x_max":525,"o":"m 349 854 l 489 854 q 515 842 504 854 q 525 814 525 831 l 508 251 q 498 222 508 235 q 472 210 488 210 l 363 210 q 338 222 349 210 q 326 251 326 235 l 313 814 q 323 842 313 831 q 349 854 333 854 m 422 789 q 394 774 404 792 q 396 742 385 756 q 429 733 413 725 q 442 744 436 736 q 447 760 449 751 q 422 789 442 786 m 429 269 q 447 297 450 278 q 422 325 442 322 q 394 310 404 328 q 396 278 385 293 q 429 269 411 264 m 508 156 q 510 129 510 153 l 510 74 q 497 11 510 22 q 443 0 486 0 l 361 0 q 325 35 328 3 q 325 58 325 46 q 325 86 325 71 q 325 110 325 101 q 333 168 325 158 q 381 182 344 182 q 408 182 390 182 q 442 182 426 182 q 469 182 457 182 q 508 156 494 182 m 444 100 q 419 128 439 125 q 392 113 401 131 q 394 81 382 96 q 426 72 407 65 q 444 100 447 81 z "},"#":{"ha":833,"x_min":72,"x_max":761,"o":"m 654 457 l 636 369 q 640 355 635 361 q 651 349 644 349 l 743 349 q 761 332 761 349 l 761 211 q 756 199 761 204 q 743 194 750 194 l 614 194 q 597 182 600 194 l 561 14 q 544 0 558 0 l 425 0 l 422 0 l 415 0 q 350 27 376 0 q 324 92 324 54 q 350 158 324 131 q 415 185 376 185 q 442 181 429 185 q 425 194 439 194 l 311 194 q 294 182 297 194 l 258 14 q 242 0 256 0 l 124 0 q 110 6 115 0 q 107 21 106 13 l 139 175 q 136 188 142 182 q 122 194 131 194 l 89 194 q 72 211 72 194 l 72 332 q 89 349 72 349 l 161 349 q 178 363 175 349 l 196 450 q 192 463 197 457 q 179 469 188 469 l 89 469 q 72 488 72 469 l 72 607 q 89 624 72 624 l 218 624 q 235 638 232 624 l 271 806 q 288 819 274 819 l 407 819 q 417 817 411 819 q 481 789 454 815 q 507 724 507 763 q 481 659 507 686 q 415 632 454 632 q 392 635 406 632 q 407 624 394 624 l 521 624 q 538 638 535 624 l 572 806 q 589 819 576 819 l 708 819 q 722 813 717 819 q 725 799 726 807 l 693 644 q 697 630 692 636 q 710 624 701 624 l 743 624 q 761 607 761 624 l 761 488 q 743 469 761 469 l 669 469 q 654 457 657 469 m 438 701 q 443 705 438 701 q 447 724 447 710 q 438 747 447 738 q 415 756 429 756 q 392 747 401 756 q 383 724 383 738 q 392 701 383 710 q 415 692 401 692 q 438 701 429 692 m 350 349 l 464 349 q 481 363 478 349 l 499 450 q 495 463 500 457 q 482 469 490 469 l 368 469 q 351 457 354 469 l 333 369 q 337 355 332 361 q 350 349 342 349 m 392 115 q 388 110 392 115 q 383 92 383 106 q 392 69 383 78 q 415 60 401 60 q 438 69 429 60 q 447 92 447 78 q 438 115 447 106 q 415 124 429 124 q 392 115 401 124 z "},"*":{"ha":833,"x_min":0,"x_max":0,"o":""},".":{"ha":833,"x_min":0,"x_max":0,"o":""},">":{"ha":833,"x_min":122,"x_max":715,"o":"m 122 293 q 124 338 122 324 q 151 426 128 372 q 203 497 168 457 q 353 582 265 567 q 532 564 450 600 q 667 449 618 528 q 710 276 715 364 q 642 107 701 176 q 494 11 585 36 q 315 18 411 -15 q 178 122 228 46 q 136 201 146 168 q 122 293 122 244 z "},"?":{"ha":833,"x_min":122,"x_max":699,"o":"m 696 644 l 696 643 q 696 586 699 622 q 651 475 693 528 q 581 401 640 461 l 564 388 q 549 374 560 382 q 521 347 529 357 q 499 300 503 328 q 494 243 494 272 q 483 215 494 226 q 454 201 471 203 l 429 201 l 406 201 l 381 201 l 374 201 q 331 218 343 201 q 322 267 322 231 l 322 279 q 329 340 322 308 q 386 450 344 404 q 458 517 414 481 l 471 528 q 519 621 529 578 q 490 668 513 647 q 442 694 468 689 q 415 697 433 697 q 340 671 367 697 q 311 622 324 656 q 304 593 304 596 l 304 592 q 293 563 297 568 q 260 549 281 549 l 243 549 q 217 551 226 551 q 190 555 208 553 q 163 558 172 557 q 125 593 126 564 q 132 647 122 610 q 135 658 135 656 q 193 767 153 722 q 297 835 233 811 q 413 854 351 854 q 544 829 483 854 q 646 756 603 806 q 696 644 686 707 m 440 779 q 419 810 443 804 q 389 798 400 814 q 388 765 378 782 q 418 754 399 750 q 440 779 433 757 m 435 276 q 413 307 439 299 q 383 294 394 311 q 382 263 371 278 q 413 250 393 244 q 435 276 428 254 m 497 156 q 499 129 499 153 l 499 74 q 488 11 499 22 q 432 0 475 0 l 350 0 q 314 35 317 3 q 314 58 314 46 q 314 86 314 71 q 314 110 314 101 q 322 168 314 158 q 371 182 333 182 l 414 183 q 458 182 458 183 q 497 156 483 182 m 433 100 q 408 128 428 125 q 381 113 390 131 q 383 81 371 96 q 415 72 396 65 q 433 100 436 81 z "},"A":{"ha":833,"x_min":28,"x_max":806,"o":"m 799 26 q 789 1 806 10 q 769 -1 783 -1 l 610 -1 q 565 31 576 -1 q 560 52 564 38 q 552 78 556 67 q 543 97 549 89 q 519 115 536 108 q 506 117 507 121 l 507 107 q 500 67 507 82 q 452 19 485 33 q 383 17 419 6 q 338 53 356 26 q 324 108 321 81 l 324 118 l 313 118 q 285 103 301 117 q 272 76 278 96 q 266 56 271 71 q 258 33 261 42 q 217 -1 250 -1 l 150 -1 l 60 -1 q 40 1 46 -1 q 32 26 28 8 q 57 99 32 29 l 121 267 q 190 448 143 326 q 258 631 236 569 q 276 679 267 657 l 285 700 q 331 725 303 725 l 414 725 l 499 725 q 544 703 526 725 q 554 679 546 701 q 563 655 557 671 q 572 631 569 639 l 710 265 q 742 181 721 238 q 772 97 763 125 q 782 72 776 89 q 792 47 788 56 q 795 37 792 44 q 799 26 799 29 m 382 643 q 390 622 381 632 q 411 610 400 613 q 444 628 433 607 q 439 664 454 649 q 404 674 422 681 q 382 643 382 664 m 483 300 l 479 318 l 468 354 q 453 402 464 368 q 438 456 443 436 q 430 481 435 464 q 422 504 425 497 q 410 515 418 522 q 404 508 407 514 l 401 501 q 378 425 393 476 q 354 347 363 374 q 342 304 343 308 q 349 283 340 290 q 372 275 358 275 l 453 275 q 483 300 483 275 m 447 104 q 440 125 449 115 q 419 136 431 135 q 387 118 397 138 q 390 82 376 99 q 426 74 404 67 q 442 85 435 76 q 447 104 449 94 z "},"B":{"ha":833,"x_min":113,"x_max":775,"o":"m 769 219 q 767 161 775 196 q 707 60 751 97 q 656 25 681 36 q 600 11 631 15 q 356 0 536 0 l 175 0 l 142 0 q 113 35 115 3 l 113 118 l 113 297 l 113 651 l 113 688 q 126 717 113 704 q 160 725 135 725 l 224 725 l 419 725 l 474 726 q 528 725 528 728 q 649 697 613 719 q 729 599 714 657 q 724 475 749 529 q 689 426 707 444 l 678 415 l 665 408 q 653 401 664 407 q 640 392 643 396 q 651 376 632 381 q 679 365 657 375 q 728 329 713 346 q 769 219 769 281 m 383 651 q 389 629 378 644 q 408 617 397 618 q 444 631 431 611 q 443 668 457 650 q 407 681 429 688 q 383 651 382 672 m 326 474 q 340 447 325 460 q 367 442 349 442 l 439 442 q 490 454 467 442 q 517 497 511 465 q 508 547 521 526 q 467 574 494 569 q 418 576 436 576 l 375 576 q 353 575 360 576 q 326 539 329 568 l 326 474 m 546 238 q 513 289 550 271 q 447 303 489 303 l 371 303 q 328 281 336 303 q 326 257 326 274 l 326 208 q 346 163 326 174 q 369 160 353 160 l 417 160 q 475 161 465 160 q 529 182 515 167 q 546 238 546 204 m 450 76 q 425 111 453 104 q 389 99 406 119 q 389 61 375 81 q 424 46 399 43 q 442 57 433 49 q 446 67 444 60 q 450 76 447 74 z "},"C":{"ha":833,"x_min":42,"x_max":744,"o":"m 740 238 q 733 201 744 229 q 719 165 731 192 q 613 46 676 83 q 535 14 578 25 q 451 1 507 7 q 367 3 422 0 q 285 15 324 6 q 203 47 240 26 q 140 100 174 65 q 89 171 111 132 q 60 247 78 189 q 44 332 50 272 q 44 419 42 375 q 90 589 49 506 q 208 707 125 660 q 376 750 278 746 q 547 733 469 757 q 683 639 631 708 q 726 568 703 614 q 728 532 736 544 q 704 518 721 521 l 593 493 q 535 507 546 483 q 493 560 519 539 q 458 576 478 571 q 421 583 444 581 q 340 564 379 588 q 310 536 321 551 q 288 500 300 525 q 269 418 275 475 q 269 332 265 375 q 333 189 279 218 q 371 174 358 175 q 413 169 392 169 q 489 192 453 169 q 535 254 517 210 q 541 270 536 257 q 550 289 546 283 q 585 301 560 307 l 681 272 q 692 270 683 272 q 704 267 700 268 q 715 263 708 265 q 726 256 722 260 q 735 248 731 253 q 740 238 739 243 m 393 657 q 403 638 392 646 q 426 629 415 629 q 457 652 450 631 q 446 689 464 674 q 408 690 428 703 q 393 657 393 683 m 460 92 q 451 112 461 103 q 429 124 442 121 q 396 105 407 126 q 401 67 385 83 q 439 60 417 51 q 460 92 461 68 z "},"D":{"ha":833,"x_min":103,"x_max":772,"o":"m 769 396 q 769 338 772 378 l 765 276 q 754 217 764 265 q 735 164 747 188 q 704 115 710 122 q 622 42 671 71 q 508 6 593 24 q 411 0 483 0 l 240 0 l 163 0 l 129 0 q 109 14 115 1 q 103 33 103 26 q 103 58 103 39 l 103 368 l 103 671 l 103 692 q 132 726 103 719 l 167 726 l 247 726 l 415 726 q 510 721 467 726 q 622 685 569 714 q 667 651 632 679 q 704 610 675 646 q 733 558 717 594 q 740 546 735 554 q 742 540 742 544 q 743 533 742 536 q 753 506 749 521 q 769 396 769 436 m 388 643 q 394 622 386 632 q 414 610 403 613 q 449 624 433 606 q 454 643 454 631 q 447 661 454 651 q 410 675 435 683 q 393 663 400 672 q 388 643 386 653 m 544 365 q 543 394 544 385 q 521 499 540 464 q 433 557 493 547 q 381 563 414 560 q 340 556 350 563 q 330 540 333 550 q 326 522 326 529 q 326 499 325 514 q 326 481 326 483 l 326 203 q 339 171 326 182 q 353 164 344 165 q 375 164 361 163 q 392 165 389 165 q 488 185 456 165 q 538 264 521 201 q 543 311 539 271 q 544 365 544 329 m 454 83 q 446 106 456 96 q 424 115 436 115 q 390 97 400 118 q 397 60 381 76 q 434 53 413 44 q 454 83 456 61 z "},"E":{"ha":833,"x_min":129,"x_max":733,"o":"m 731 158 q 732 126 732 157 l 732 56 q 733 44 732 53 q 733 28 733 35 q 732 15 733 22 q 726 5 731 8 q 715 0 722 1 l 658 0 l 382 0 l 158 0 q 129 18 131 0 q 129 33 129 25 q 129 51 129 42 q 129 67 129 61 l 129 322 l 129 604 l 129 686 q 147 717 129 717 l 319 717 l 610 717 l 694 717 l 708 717 q 722 696 722 715 l 722 576 q 707 553 722 561 q 688 551 704 551 l 422 551 l 376 551 q 357 550 358 551 q 349 519 349 546 q 350 465 349 475 q 355 456 351 460 q 365 451 358 453 q 376 449 371 450 q 389 449 381 449 q 400 450 397 450 l 536 450 l 661 450 l 681 450 q 696 428 696 446 l 696 364 l 696 319 q 691 309 694 313 q 681 304 688 306 q 670 303 675 303 q 657 303 665 303 q 646 304 649 304 l 385 304 l 365 304 q 350 282 350 300 l 350 217 l 350 190 q 353 179 350 188 q 372 169 358 169 l 407 169 l 542 169 l 678 169 q 686 169 681 169 q 697 170 692 169 q 708 170 701 171 q 718 169 714 169 q 726 165 722 168 q 731 158 729 163 m 386 638 q 413 607 385 615 q 444 624 433 603 q 439 660 454 644 q 405 666 425 674 q 386 638 385 658 m 449 75 q 441 94 450 86 q 421 106 432 103 q 389 89 400 108 q 394 53 381 69 q 428 44 410 38 q 443 56 436 47 q 449 75 450 65 z "},"F":{"ha":833,"x_min":136,"x_max":693,"o":"m 692 711 q 693 689 693 710 l 693 594 q 668 556 693 557 l 619 556 l 517 556 l 421 556 q 378 553 383 556 q 366 540 369 549 q 362 524 363 531 q 362 504 361 518 q 363 488 363 490 q 367 458 363 464 q 390 446 374 446 l 550 446 l 638 446 q 678 435 668 446 q 682 411 682 428 l 682 363 q 683 349 682 361 q 683 331 683 336 q 679 317 682 325 q 669 304 676 308 q 626 299 663 299 l 531 299 l 431 299 l 385 299 q 363 253 363 293 l 363 169 q 401 186 376 183 q 469 169 439 190 q 507 86 511 142 q 461 14 504 35 q 421 3 436 3 q 381 10 396 3 q 375 13 378 11 q 369 15 372 14 q 365 18 367 18 q 360 15 363 19 q 333 0 344 0 l 215 0 l 167 0 q 139 15 146 0 q 136 57 136 24 l 136 285 l 136 568 l 136 667 l 136 706 q 163 731 139 728 l 176 731 l 269 731 l 553 731 l 649 731 q 692 711 686 731 m 449 649 q 424 683 453 675 q 388 669 401 689 q 389 631 374 650 q 424 619 401 613 q 442 631 435 624 q 444 640 443 633 q 449 649 446 647 m 383 94 q 392 74 382 83 q 413 63 401 64 q 444 78 433 58 q 442 114 454 99 q 406 125 425 133 q 383 94 381 117 z "},"G":{"ha":833,"x_min":57,"x_max":774,"o":"m 771 400 q 772 372 772 397 l 772 311 l 772 171 q 751 103 772 122 q 739 92 746 97 q 723 83 732 88 q 710 75 714 78 l 665 50 q 621 31 642 38 q 597 23 614 28 q 574 15 581 18 q 475 1 549 7 q 375 3 433 -3 q 192 65 263 10 q 82 229 110 129 q 63 328 67 283 q 63 429 57 389 q 83 528 69 481 q 131 619 99 574 q 200 688 161 661 q 293 732 240 717 q 389 749 332 746 q 493 749 458 751 q 592 735 560 743 q 638 717 632 721 q 678 690 669 700 q 735 617 718 649 q 732 539 774 547 l 615 518 q 579 513 586 511 q 542 535 557 513 q 472 586 517 576 q 379 583 426 596 q 307 521 332 567 q 279 425 283 478 q 304 231 268 301 q 374 170 326 188 q 474 161 422 153 q 515 172 488 164 l 536 181 l 556 190 q 582 228 575 203 q 569 269 589 254 q 525 275 561 275 l 497 275 q 471 275 471 274 q 439 301 443 278 l 439 354 q 438 368 439 358 q 438 386 438 378 q 439 401 438 394 q 471 426 446 424 l 569 426 l 713 426 l 740 426 q 762 418 751 425 q 771 400 772 411 m 383 661 q 391 640 382 650 q 411 628 400 631 q 445 644 433 624 q 443 682 457 665 q 406 693 425 700 q 389 680 396 689 q 383 661 382 671 m 450 93 q 440 113 451 104 q 417 122 428 122 q 385 101 394 124 q 394 64 376 78 q 432 60 413 49 q 450 93 450 69 z "},"H":{"ha":833,"x_min":75,"x_max":769,"o":"m 763 718 q 769 685 769 708 l 769 625 l 769 415 l 769 182 l 769 44 q 753 10 769 19 q 729 6 746 6 l 685 6 l 583 6 q 561 10 568 6 q 544 38 546 22 q 543 103 543 49 l 543 219 l 543 257 l 543 276 q 497 300 533 300 l 389 300 q 322 297 338 300 q 299 243 299 292 l 299 153 q 332 156 325 153 q 356 174 335 157 l 368 182 q 401 194 379 189 q 488 158 456 204 q 503 97 507 132 q 475 40 500 63 q 375 25 429 -1 q 360 35 369 28 q 347 44 350 43 q 329 53 336 53 q 320 53 325 53 q 309 53 315 53 q 299 53 303 53 q 290 17 299 25 q 261 6 281 6 l 211 6 l 108 6 q 84 17 93 6 q 75 44 75 29 l 75 107 l 75 363 l 75 619 l 75 689 q 100 729 75 721 q 132 731 104 731 l 199 731 l 257 731 q 283 725 274 731 q 299 692 299 717 l 299 678 l 310 678 q 328 681 321 678 q 357 699 339 683 q 383 714 365 707 q 443 715 410 724 q 478 693 463 710 q 500 657 494 676 q 482 572 515 606 q 444 546 465 556 q 410 542 432 542 q 356 563 381 542 q 338 578 342 576 q 299 579 332 579 l 299 531 q 303 496 299 504 q 356 478 313 478 l 460 478 l 501 478 q 522 479 519 478 q 543 500 538 485 l 543 521 l 543 618 q 542 642 543 626 q 542 672 542 658 q 543 696 542 685 q 579 731 549 731 l 736 731 q 763 718 754 733 m 408 664 q 381 635 390 660 q 404 599 381 603 q 440 610 426 594 q 443 647 457 629 q 408 664 429 668 m 408 139 q 381 110 390 135 q 404 74 381 81 q 441 85 426 67 q 443 124 456 104 q 408 139 428 143 z "},"I":{"ha":833,"x_min":215,"x_max":614,"o":"m 613 703 q 614 685 614 701 l 614 649 l 614 578 q 583 546 611 549 l 554 546 l 528 546 l 528 536 l 528 513 l 528 196 l 528 183 q 544 182 528 182 q 603 174 593 182 q 614 131 614 164 l 614 46 q 600 7 614 18 q 546 1 593 1 l 419 1 l 294 1 l 256 1 q 236 3 239 1 q 217 42 217 11 l 217 125 q 224 169 217 161 q 278 182 235 182 l 303 182 l 303 193 l 303 507 l 303 532 l 303 544 q 283 546 301 546 l 250 546 q 227 555 238 546 q 217 576 217 564 q 217 608 215 576 l 217 639 l 217 699 q 228 719 218 711 q 251 726 239 726 l 368 726 l 499 726 l 575 726 q 594 724 588 726 q 613 703 611 714 m 449 635 q 440 656 450 646 q 418 667 431 665 q 385 646 394 667 q 392 610 376 628 q 428 603 407 594 q 449 635 450 613 m 449 94 q 440 116 449 107 q 418 126 431 125 q 385 107 394 129 q 392 71 376 86 q 428 63 408 54 q 449 94 449 72 z "},"J":{"ha":833,"x_min":94,"x_max":678,"o":"m 676 696 q 678 674 678 689 l 678 393 q 669 215 678 288 q 639 119 663 158 q 568 44 618 82 q 375 0 506 0 q 178 53 246 0 q 117 135 133 88 q 104 181 110 150 q 97 222 97 215 q 118 263 94 251 q 161 269 126 267 q 238 279 210 275 q 274 279 265 282 q 300 239 293 271 q 310 203 307 207 q 342 175 324 182 q 388 171 358 168 q 431 189 413 174 q 451 229 443 200 q 456 308 456 256 l 456 550 q 425 544 436 544 q 401 550 408 547 q 351 588 372 558 q 338 644 335 613 q 360 699 340 676 q 465 724 401 744 q 474 724 469 722 l 482 728 q 497 731 488 731 l 575 731 l 638 731 q 665 719 653 729 q 676 696 678 710 m 461 633 q 456 657 464 639 q 438 669 447 668 q 403 655 417 674 q 403 618 389 636 q 436 606 417 601 q 453 616 444 607 q 461 633 463 625 m 463 97 q 454 118 464 108 q 433 131 444 128 q 399 114 411 135 q 403 76 388 93 q 439 65 418 58 q 456 78 449 68 q 463 97 464 88 z "},"K":{"ha":833,"x_min":115,"x_max":803,"o":"m 797 26 q 796 8 803 18 q 779 1 793 4 l 750 1 l 686 1 l 588 1 q 532 47 549 3 l 519 78 q 516 86 518 79 q 513 94 514 93 q 506 92 507 99 q 504 78 504 86 q 458 15 492 33 q 382 7 424 -7 q 358 18 371 11 q 342 32 344 33 q 335 21 340 32 q 322 6 332 13 q 293 1 313 1 l 169 1 q 139 4 149 1 q 115 35 118 11 l 115 71 l 115 165 l 115 435 l 115 657 l 115 694 q 136 725 115 715 q 164 728 140 728 l 289 728 q 317 725 308 728 q 339 694 343 714 q 356 697 353 694 q 364 707 358 699 q 415 728 383 728 q 469 711 451 728 q 488 688 482 701 q 490 682 489 686 q 492 674 490 678 q 494 668 493 671 q 499 665 496 665 q 518 681 506 663 q 540 706 532 697 q 592 728 565 728 l 657 728 l 742 728 q 765 724 754 728 q 774 707 775 719 q 756 674 772 697 l 710 611 q 610 472 676 564 q 592 438 593 450 q 600 403 590 422 l 664 282 q 753 113 707 199 q 767 83 757 103 q 783 51 778 63 q 797 26 797 29 m 383 650 q 391 630 382 639 q 411 619 400 621 q 444 636 433 617 q 439 674 456 657 q 403 681 424 689 q 383 650 382 672 m 339 460 q 353 457 342 449 q 363 468 357 460 l 394 514 q 414 540 408 531 q 417 561 428 554 q 403 563 414 563 q 388 565 392 565 q 357 578 365 571 q 338 572 338 594 q 337 557 338 568 q 336 540 336 546 l 336 486 q 339 460 336 464 m 474 182 q 468 199 476 182 q 450 239 451 236 q 441 262 449 242 q 428 290 433 282 q 407 300 417 301 q 390 288 397 297 q 373 269 388 283 q 351 246 358 254 q 339 200 339 228 q 343 164 339 165 q 360 169 349 163 q 381 181 375 179 q 425 185 403 189 q 454 178 433 183 q 460 174 456 178 q 468 171 465 169 q 474 182 476 174 m 444 99 q 435 118 446 110 q 414 126 425 126 q 382 106 390 126 q 390 71 374 83 q 428 67 408 56 q 444 99 444 76 z "},"L":{"ha":833,"x_min":203,"x_max":774,"o":"m 771 150 q 772 129 772 147 l 772 85 q 773 65 772 82 q 773 40 774 47 q 769 22 772 33 q 757 5 765 10 q 736 0 749 0 l 629 0 l 272 0 l 238 0 q 204 22 213 0 q 203 46 203 26 l 203 90 l 203 450 l 203 690 q 213 714 203 704 q 236 725 222 724 q 256 725 246 725 q 280 725 267 725 q 300 725 293 725 l 382 725 q 396 724 392 725 q 406 721 400 724 q 409 718 407 719 q 413 715 411 717 q 419 713 414 714 q 425 713 424 713 q 434 710 428 713 q 443 708 440 708 q 489 669 471 700 q 500 611 504 644 q 474 560 496 578 q 449 543 460 546 q 438 540 446 542 q 426 535 429 538 q 422 508 422 533 l 422 332 l 422 253 q 424 217 422 219 q 460 196 433 196 l 521 196 l 700 196 q 738 193 729 196 q 771 150 771 181 m 381 624 q 388 603 379 613 q 407 592 396 593 q 440 608 428 589 q 439 644 451 626 q 404 656 424 660 q 387 644 394 654 q 381 624 379 635 m 444 71 q 439 93 447 76 q 421 104 432 101 q 385 90 399 110 q 386 53 372 71 q 422 42 399 36 q 444 71 446 49 z "},"M":{"ha":833,"x_min":31,"x_max":800,"o":"m 799 697 q 800 683 800 694 l 800 651 l 800 382 l 800 96 l 800 38 q 786 8 797 15 q 749 1 776 1 l 674 1 q 632 3 636 1 q 622 7 626 4 q 615 15 618 10 q 611 23 613 19 q 609 33 610 26 q 608 43 608 40 q 608 54 608 46 q 608 64 608 63 l 608 333 q 601 354 608 350 q 585 343 597 356 l 582 338 q 577 326 579 332 q 573 311 575 319 q 569 299 571 303 q 547 228 561 275 q 507 103 519 144 q 502 88 506 99 q 496 71 499 76 q 463 35 485 47 q 369 35 414 11 q 328 89 338 50 q 310 144 322 107 q 292 201 297 182 q 249 335 276 246 q 247 341 249 336 q 245 348 246 346 q 242 353 244 350 q 236 356 239 356 q 224 351 228 357 q 221 338 221 346 l 221 222 l 221 74 q 222 58 221 71 q 222 38 222 44 q 218 23 221 32 q 208 8 215 14 q 171 1 199 1 l 94 1 q 51 3 56 1 q 31 36 31 8 l 31 210 l 31 522 l 31 693 q 53 726 31 721 q 88 728 58 728 l 231 728 q 263 725 256 728 q 290 693 281 718 q 295 676 292 688 q 300 660 299 665 q 303 651 301 657 q 307 643 306 646 q 324 642 315 635 q 329 651 326 644 q 333 661 332 658 q 367 697 344 682 q 415 711 390 713 q 494 664 471 708 q 497 658 496 663 q 500 650 499 653 q 504 644 501 647 q 510 639 507 640 q 515 639 513 638 q 524 653 519 640 q 530 672 526 660 q 535 688 533 683 q 558 721 543 711 q 592 728 568 728 l 735 728 l 769 728 q 790 717 781 726 q 799 697 800 708 m 382 615 q 392 596 381 604 q 413 588 403 588 q 444 608 435 588 q 438 643 454 628 q 400 649 421 656 q 382 615 382 639 m 490 550 q 474 549 489 564 q 442 531 454 535 q 376 535 413 519 q 349 554 367 539 q 336 551 336 564 q 338 547 336 550 q 340 541 339 544 q 342 536 342 538 q 347 519 343 531 q 353 501 351 507 q 370 450 358 483 q 391 390 382 417 q 407 339 400 363 q 415 322 413 322 q 424 339 418 324 q 431 360 428 349 q 438 385 435 371 q 444 406 442 399 q 466 473 450 421 q 490 550 482 525 m 449 107 q 439 127 450 118 q 415 138 428 136 q 383 115 393 138 q 393 79 376 93 q 431 74 410 63 q 449 107 449 83 z "},"N":{"ha":833,"x_min":69,"x_max":763,"o":"m 763 703 l 763 690 l 763 535 l 763 250 l 763 46 l 763 35 q 747 4 763 14 q 718 0 742 0 l 660 0 l 551 0 q 515 11 533 0 q 485 47 503 19 q 474 38 481 44 q 463 29 468 32 q 375 27 421 6 q 324 99 329 49 q 361 185 319 154 q 369 188 364 186 q 378 192 374 190 q 385 198 382 194 q 388 206 388 201 q 371 235 386 211 q 301 350 311 335 q 282 353 285 372 q 281 328 281 349 l 281 53 l 281 29 q 270 10 279 18 q 250 0 261 1 l 128 0 q 90 3 97 0 q 69 35 72 11 l 69 90 l 69 375 l 69 649 l 69 696 q 74 708 71 703 q 79 715 76 713 q 88 721 82 718 q 97 724 93 724 q 108 726 100 725 q 118 726 115 726 q 129 726 121 726 q 139 726 138 726 l 276 726 q 311 718 294 726 q 344 681 325 710 q 357 690 344 682 q 400 711 374 707 l 425 711 q 443 708 429 711 q 486 681 464 703 q 507 629 503 661 q 496 577 510 603 q 458 539 482 551 q 443 518 439 528 q 460 490 449 508 q 475 467 472 472 q 519 394 497 428 l 532 372 l 536 367 q 542 361 539 363 q 553 383 553 356 l 553 436 l 553 611 l 553 675 q 554 704 553 700 q 589 726 563 726 l 657 726 l 728 726 q 763 703 756 726 m 386 606 q 402 591 390 596 q 424 589 414 586 q 449 617 443 593 q 428 650 451 640 q 392 643 410 658 q 386 606 378 629 m 449 110 q 440 130 450 121 q 419 142 431 139 q 387 124 397 146 q 392 88 376 103 q 426 79 407 72 q 449 110 449 86 z "},"O":{"ha":833,"x_min":31,"x_max":790,"o":"m 789 428 q 790 371 790 410 q 732 144 790 235 q 551 17 668 46 q 436 0 488 0 q 321 8 365 0 q 264 22 282 17 q 210 44 249 26 q 119 118 165 64 q 63 219 83 161 q 40 335 46 264 q 81 572 31 476 q 151 664 108 625 q 254 725 190 699 q 492 744 354 764 q 699 646 629 725 q 721 622 714 631 q 728 611 722 619 q 736 599 733 603 q 764 543 753 574 q 779 488 775 507 q 789 428 782 476 m 379 660 q 386 640 378 649 q 406 628 394 631 q 440 643 428 624 q 444 661 447 651 q 439 679 444 672 q 422 693 433 689 q 401 693 411 696 q 379 660 375 683 m 567 383 q 566 398 567 389 q 565 411 565 407 q 536 519 565 468 q 442 578 507 571 q 333 558 376 588 q 272 465 289 529 q 264 351 260 417 q 289 239 269 274 q 375 172 318 183 q 488 183 439 160 q 553 269 533 207 q 567 383 560 289 m 444 89 q 438 110 446 101 q 417 122 429 119 q 383 105 394 126 q 388 67 372 83 q 422 57 400 50 q 439 69 432 60 q 444 89 446 79 z "},"P":{"ha":833,"x_min":146,"x_max":764,"o":"m 763 517 q 760 450 764 486 q 738 385 751 414 q 656 301 713 331 q 533 269 599 272 q 469 269 511 269 q 407 268 428 269 q 383 258 393 268 q 374 235 374 249 l 374 168 q 378 171 375 168 q 383 174 382 174 q 394 178 383 175 q 417 183 408 183 q 450 179 428 185 q 508 126 492 171 q 500 39 529 81 q 431 -1 475 3 q 369 17 406 -3 q 358 6 365 10 q 343 0 353 0 q 260 -1 333 -1 l 179 -1 q 160 6 168 0 q 150 22 153 11 q 147 40 147 33 q 147 63 146 46 q 147 81 147 79 l 147 283 l 147 526 l 147 682 q 160 718 147 708 q 207 724 169 724 l 429 724 q 572 722 561 724 q 646 703 615 715 q 711 658 681 689 q 763 517 763 611 m 389 647 q 397 627 388 636 q 418 615 406 618 q 451 633 442 613 q 446 671 461 654 q 410 678 432 688 q 389 647 388 669 m 544 501 q 519 557 547 538 q 461 576 497 574 q 436 578 461 578 l 411 576 q 386 571 393 576 q 374 550 375 563 l 374 483 q 378 431 374 438 q 399 415 389 417 l 428 415 q 485 422 463 415 q 531 450 519 433 q 544 501 544 471 m 392 94 q 397 72 389 89 q 417 61 404 64 q 450 72 438 57 q 451 110 464 89 q 417 124 439 126 q 399 113 407 121 q 392 94 390 104 z "},"Q":{"ha":833,"x_min":36,"x_max":807,"o":"m 803 115 q 799 93 807 107 q 790 76 796 88 q 779 58 783 64 q 770 41 776 53 q 758 20 764 29 q 744 6 751 11 q 735 1 740 1 q 723 2 729 0 q 713 7 717 4 q 702 14 708 10 q 693 19 696 18 q 642 53 689 22 q 590 75 607 76 q 560 68 583 75 q 549 65 556 67 q 538 61 543 63 q 526 60 532 60 q 464 51 506 54 q 336 56 400 47 q 110 183 194 74 q 39 432 36 279 q 115 676 42 586 q 218 761 160 733 q 344 800 274 792 q 476 801 400 808 q 542 790 521 796 q 604 768 567 783 q 708 694 664 744 q 774 579 753 643 q 794 449 794 517 q 783 313 797 367 q 733 193 768 246 q 732 168 725 176 q 756 150 736 163 q 768 143 758 149 q 783 135 778 138 q 803 115 796 128 m 379 707 q 388 686 378 696 q 408 675 397 676 q 442 694 432 672 q 436 731 453 715 q 399 738 421 746 q 379 707 376 729 m 569 419 l 569 456 q 560 525 569 469 q 528 588 550 565 q 501 610 510 606 q 471 625 493 617 q 401 633 432 638 q 290 560 325 626 q 268 492 272 525 q 265 422 265 433 q 271 353 269 361 q 293 285 283 301 q 401 219 326 226 q 428 218 410 218 q 447 224 444 218 q 438 242 451 228 l 411 260 q 385 303 372 282 q 410 347 401 333 q 426 368 419 365 q 453 363 435 372 q 483 343 472 349 q 511 325 507 328 q 539 307 532 308 q 547 308 543 306 q 553 317 551 311 q 558 329 556 324 q 561 342 560 335 q 563 351 563 350 q 569 419 569 374 m 444 140 q 435 160 446 151 q 413 168 424 168 q 381 147 389 169 q 392 110 374 125 q 429 107 408 96 q 444 140 444 114 z "},"R":{"ha":833,"x_min":76,"x_max":782,"o":"m 776 28 q 775 9 782 17 q 758 1 768 1 l 731 1 l 603 1 l 571 1 q 535 15 553 1 q 521 31 529 19 q 513 46 518 40 q 486 36 504 50 q 415 8 454 8 q 354 33 379 8 q 328 114 321 67 q 371 179 335 158 q 406 192 393 190 q 426 196 425 192 q 417 225 431 201 q 407 241 415 228 q 393 261 399 254 q 325 296 368 292 q 306 289 310 299 q 303 260 303 283 l 303 157 l 303 42 q 268 1 303 1 l 161 1 l 114 1 q 86 13 96 1 q 76 53 76 22 l 76 132 l 76 392 l 76 633 l 76 690 q 110 726 76 724 l 178 726 l 311 726 l 426 726 q 444 726 432 726 q 465 726 456 726 q 483 726 475 726 q 653 689 604 721 q 708 625 685 667 q 731 549 725 597 q 688 396 740 457 q 625 344 663 364 q 588 329 608 336 q 575 321 576 325 q 588 310 575 318 q 618 292 607 303 q 646 263 628 283 q 685 206 669 235 q 738 103 729 119 q 776 28 769 44 m 386 651 q 394 631 385 640 q 414 621 403 621 q 447 638 436 618 q 442 675 458 661 q 406 682 426 690 q 386 651 385 674 m 506 507 q 475 561 510 542 q 411 574 454 574 l 339 574 q 303 546 306 574 q 301 523 301 535 q 302 496 301 511 q 303 472 303 481 q 322 429 303 436 q 347 426 331 426 l 392 426 q 442 431 417 426 q 490 457 468 435 q 506 507 506 474 m 451 100 q 443 121 453 111 q 422 132 433 131 q 389 114 400 136 q 396 78 381 93 q 431 69 411 63 q 446 81 439 72 q 451 100 453 90 z "},"S":{"ha":833,"x_min":83,"x_max":744,"o":"m 740 274 q 731 178 744 222 q 685 96 711 125 q 647 63 672 79 q 607 36 639 56 q 563 18 581 24 q 514 7 529 10 q 418 0 461 0 q 315 8 385 0 q 222 36 260 18 q 100 182 135 78 q 88 231 92 206 q 104 265 83 254 q 138 271 107 267 q 208 274 161 271 q 235 274 217 274 q 263 275 253 275 q 294 264 283 278 q 304 243 303 254 l 313 224 q 340 189 324 201 q 429 161 375 161 q 508 189 482 161 q 522 230 524 208 q 506 269 521 251 q 492 282 500 276 q 474 292 485 288 q 457 299 463 296 q 437 306 451 301 q 419 311 422 310 q 367 324 401 317 q 322 335 333 332 q 229 365 267 350 q 152 426 183 385 q 118 515 121 467 q 174 678 108 613 q 344 751 229 733 q 439 756 400 758 q 540 742 504 753 q 632 703 597 725 q 694 632 665 682 q 713 586 708 601 q 718 542 721 547 q 708 528 715 533 q 693 522 701 524 q 676 519 685 519 q 658 518 667 518 q 640 518 649 518 q 603 517 628 518 q 567 517 579 517 q 533 518 544 514 q 504 551 514 525 q 481 588 494 575 q 397 614 447 619 q 329 576 340 608 q 325 544 324 558 q 353 511 331 524 q 439 481 378 497 q 533 457 503 467 q 558 449 542 454 q 581 442 575 443 q 621 422 604 432 q 665 396 657 403 q 699 363 681 386 q 740 274 728 329 m 383 681 q 392 658 382 668 q 414 649 403 649 q 447 668 438 647 q 440 706 457 689 q 403 712 425 721 q 383 681 382 703 m 450 93 q 442 113 451 103 q 421 125 432 124 q 388 107 399 125 q 392 69 378 86 q 431 61 408 53 q 450 93 453 72 z "},"T":{"ha":833,"x_min":74,"x_max":754,"o":"m 754 700 l 754 679 l 754 635 l 754 572 q 717 546 749 546 l 561 546 q 525 517 529 546 l 525 490 l 525 335 l 525 33 q 494 0 525 3 l 433 0 l 344 0 q 306 17 317 0 q 301 47 301 24 l 301 104 l 301 290 l 301 467 q 302 483 301 471 q 302 501 303 494 q 300 517 301 507 q 294 533 299 526 q 283 543 290 539 q 232 546 278 546 l 135 546 q 89 553 100 546 q 74 596 74 561 l 74 685 q 96 724 74 714 q 121 725 100 725 l 172 725 l 543 725 l 692 725 l 719 725 q 736 721 728 725 q 747 713 743 718 l 754 700 m 447 650 q 439 672 449 663 q 417 682 429 681 q 384 664 394 685 q 389 626 374 643 q 426 619 404 610 q 447 650 449 628 m 447 89 q 439 111 449 97 q 418 121 429 119 q 384 103 394 125 q 389 65 374 82 q 426 58 403 49 q 447 89 449 67 z "},"U":{"ha":833,"x_min":81,"x_max":756,"o":"m 754 694 q 756 672 756 692 l 756 631 l 756 347 l 756 282 q 738 182 756 233 q 617 38 708 89 q 426 0 550 0 q 329 7 382 0 q 240 28 274 14 q 164 79 203 40 q 108 156 136 106 q 94 201 106 161 q 85 251 92 210 q 81 318 81 274 l 81 594 l 81 681 q 93 710 81 699 q 126 718 104 718 l 256 718 q 288 707 276 718 q 297 689 294 701 q 298 683 297 688 q 300 675 299 678 q 306 669 301 671 l 318 669 q 351 683 333 669 q 389 707 378 704 q 432 711 411 713 q 499 665 479 701 q 497 572 528 617 q 418 528 465 528 q 360 549 385 528 q 356 552 358 550 q 351 556 353 554 q 340 564 344 563 q 303 564 318 571 q 299 549 299 561 l 299 496 l 299 347 q 301 269 299 286 q 351 199 311 221 q 443 185 392 178 q 517 226 492 194 q 539 307 539 258 l 539 543 l 539 664 l 539 683 q 567 717 540 708 q 604 718 572 718 l 679 718 l 721 718 q 742 711 731 718 q 754 694 753 704 m 386 619 q 394 599 385 608 q 414 588 403 589 q 447 603 436 585 q 443 640 457 622 q 407 650 431 657 q 392 638 399 647 q 386 619 385 629 m 451 75 q 446 97 456 83 q 428 110 438 106 q 393 96 406 115 q 393 57 381 76 q 429 47 406 40 q 451 75 453 53 z "},"V":{"ha":833,"x_min":44,"x_max":781,"o":"m 779 713 q 776 694 781 710 q 715 525 754 639 l 615 244 q 543 43 599 201 q 517 7 533 15 q 486 1 507 1 l 422 1 l 353 1 q 321 3 325 1 q 286 26 296 7 q 285 31 286 28 q 283 36 283 35 q 218 224 239 161 q 119 506 140 444 q 87 598 108 536 q 54 690 65 660 q 51 700 51 699 q 68 724 44 724 l 183 724 l 243 724 q 272 719 265 724 q 296 685 289 713 l 304 658 l 311 651 q 317 656 313 654 q 322 660 321 658 q 332 674 331 672 q 382 717 360 710 q 429 722 408 725 q 488 687 465 717 q 507 621 511 657 q 474 563 503 589 q 418 539 453 542 q 378 547 397 539 q 371 550 376 547 q 361 554 365 553 q 351 555 358 556 q 342 553 344 554 q 340 549 340 551 q 344 538 340 546 l 357 497 q 389 396 363 479 q 400 361 393 381 q 407 344 404 347 q 419 348 414 339 q 426 367 425 357 l 535 696 q 569 724 542 721 q 590 724 579 724 q 613 724 600 724 q 632 724 625 724 l 736 724 q 779 713 781 724 m 382 633 q 389 612 381 622 q 407 600 397 601 q 442 614 428 596 q 442 650 456 632 q 407 663 429 667 q 390 651 397 661 q 383 642 385 646 q 383 638 383 640 q 382 633 383 635 m 449 94 q 440 117 450 107 q 418 126 429 126 q 385 110 396 129 q 390 71 374 90 q 428 63 406 54 q 449 94 450 72 z "},"W":{"ha":833,"x_min":-51,"x_max":882,"o":"m 878 722 q 876 700 882 713 q 833 551 861 651 q 756 285 781 374 q 723 175 744 249 q 690 64 701 101 q 685 43 689 57 q 679 22 681 29 q 661 3 674 7 q 646 1 657 1 l 617 1 l 572 1 q 553 19 560 6 q 514 106 544 36 q 458 228 503 128 q 453 240 457 231 q 447 253 450 249 q 440 265 444 258 q 431 274 436 271 q 419 279 426 278 q 388 263 400 283 q 364 211 379 249 q 353 188 354 194 q 351 183 350 185 q 358 179 351 182 l 363 176 l 369 175 q 379 172 375 172 q 388 173 382 172 q 397 174 394 174 q 474 153 444 178 q 501 85 506 125 q 457 11 499 35 q 375 13 417 -10 q 335 56 346 26 q 329 75 332 61 q 310 94 325 85 q 297 66 308 92 q 278 26 285 40 q 246 1 265 1 l 175 1 q 146 24 153 1 l 138 53 q 89 226 121 114 q 44 383 57 338 l -43 688 q -47 699 -44 692 q -49 707 -49 706 q -36 735 -51 725 q -15 740 -29 740 l 71 740 l 110 740 q 125 739 121 740 q 140 710 133 735 l 165 636 q 195 544 175 604 q 221 467 215 485 q 244 438 231 439 q 259 442 253 436 q 267 452 265 447 q 272 467 269 457 l 340 635 q 358 674 353 667 q 411 699 378 699 q 465 678 446 699 q 485 640 476 665 q 515 563 492 624 q 550 468 538 501 q 558 444 551 464 q 571 413 565 424 q 588 398 575 400 q 607 407 600 396 q 619 443 613 414 q 631 484 624 457 q 642 525 639 511 l 692 701 q 700 732 696 725 q 743 740 707 740 l 836 740 q 856 739 850 740 q 869 733 861 739 q 878 722 876 724 m 447 615 q 440 634 449 625 q 422 646 432 643 q 389 633 401 650 q 390 597 376 615 q 426 586 404 579 q 447 615 447 593 m 383 88 q 391 69 383 78 q 408 57 399 60 q 442 72 429 53 q 440 108 454 90 q 405 118 426 126 q 383 88 383 110 z "},"X":{"ha":833,"x_min":24,"x_max":801,"o":"m 796 22 q 794 8 801 14 q 776 1 786 1 l 756 1 l 592 1 q 540 29 558 1 q 528 50 535 39 q 515 75 522 61 q 503 96 507 89 q 486 58 503 85 q 442 29 471 38 q 390 29 414 21 q 349 56 369 35 q 329 100 335 69 q 311 69 314 74 l 290 31 q 269 11 282 18 q 218 1 254 1 l 114 1 l 50 1 q 44 36 24 4 l 82 90 q 204 268 124 149 q 250 333 235 313 q 268 369 265 357 q 258 413 274 392 q 219 469 251 424 q 97 646 156 564 l 64 696 q 58 711 58 707 q 78 726 60 724 q 117 728 78 728 l 157 726 l 242 726 q 293 701 275 726 q 332 635 299 693 q 336 647 335 644 q 353 669 338 651 q 443 692 386 707 q 481 667 464 685 q 501 629 497 650 q 514 649 510 643 q 522 665 515 651 q 531 683 529 678 q 540 698 533 688 q 553 713 547 708 q 567 721 558 717 q 586 726 576 725 q 599 726 592 726 q 616 726 607 726 q 629 726 625 726 l 714 726 l 757 726 q 773 716 769 725 q 771 697 776 707 q 713 613 767 690 q 660 535 694 585 q 619 474 626 485 q 600 444 613 463 q 585 422 588 426 q 571 403 582 418 q 568 354 557 375 q 582 333 572 347 q 620 278 594 314 q 658 222 646 242 l 751 88 q 796 22 792 29 m 449 614 q 439 633 449 625 q 419 643 429 642 q 388 624 397 646 q 393 588 378 603 q 431 581 408 569 q 449 614 449 590 m 449 114 q 440 133 450 125 q 419 143 431 142 q 387 126 397 146 q 392 89 376 106 q 428 82 408 72 q 449 114 449 90 z "},"Y":{"ha":833,"x_min":33,"x_max":800,"o":"m 794 715 q 785 686 800 710 q 588 392 621 442 q 536 310 542 325 q 528 189 528 283 q 528 140 528 172 q 528 82 528 108 q 528 33 528 56 q 518 10 528 19 q 494 0 508 0 l 421 0 l 339 0 q 304 31 307 0 l 304 81 l 304 181 q 297 304 304 279 q 285 332 293 318 q 264 363 276 346 q 247 388 251 381 q 47 685 114 585 q 35 713 33 708 q 78 725 39 725 l 236 725 q 288 696 268 725 q 308 661 290 692 q 319 651 314 649 q 322 655 321 653 q 324 660 324 657 q 325 664 325 663 q 342 692 331 678 q 385 721 360 714 q 448 717 417 731 q 493 674 479 704 q 503 651 500 661 q 510 640 503 640 q 516 644 513 640 q 522 654 519 649 q 525 661 525 660 l 546 694 q 560 713 551 706 q 584 722 569 719 q 606 726 599 725 q 633 726 614 726 q 656 725 653 725 l 751 725 q 794 715 790 725 m 379 631 q 388 610 378 619 q 408 600 397 601 q 440 618 431 599 q 436 654 449 638 q 400 664 424 672 q 379 631 379 656 m 454 543 q 439 546 453 550 q 421 540 428 540 q 385 546 390 536 l 383 546 q 390 524 379 542 q 411 497 407 499 q 435 511 424 494 q 454 543 446 533 m 454 88 q 445 109 456 99 q 424 119 435 119 q 390 103 401 122 q 396 64 378 82 q 433 57 411 49 q 454 88 456 65 z "},"Z":{"ha":833,"x_min":71,"x_max":760,"o":"m 758 147 q 760 110 760 144 l 760 49 q 754 17 760 26 q 726 0 746 0 l 682 0 l 444 0 l 186 0 l 114 0 q 72 22 81 0 q 71 58 71 26 l 71 124 q 93 192 71 165 q 110 208 99 197 q 128 224 122 218 l 211 303 q 401 482 339 422 l 449 526 q 456 547 461 539 q 435 553 453 553 l 201 553 l 156 553 q 136 554 139 553 q 123 560 128 556 q 115 569 118 565 q 111 583 113 574 q 110 596 110 592 q 110 610 110 600 q 110 624 110 621 l 110 685 q 118 714 110 706 q 144 725 125 725 l 161 725 l 375 725 l 635 725 l 704 725 q 719 724 717 725 q 744 697 738 718 q 746 653 746 690 l 747 625 q 746 599 747 599 q 721 538 740 560 q 590 415 718 535 l 403 238 l 361 200 q 360 176 349 182 q 381 175 361 175 l 614 175 l 714 175 q 732 174 726 175 q 758 147 760 167 m 449 640 q 443 663 454 649 q 425 675 439 669 q 390 664 404 683 q 388 625 376 644 q 422 611 399 606 q 449 640 450 618 m 449 79 q 442 103 454 90 q 424 114 432 113 q 388 101 401 121 q 389 63 374 81 q 424 50 403 44 q 449 79 449 58 z "},"^":{"ha":833,"x_min":0,"x_max":0,"o":""},"a":{"ha":833,"x_min":28,"x_max":806,"o":"m 799 26 q 789 1 806 10 q 769 -1 783 -1 l 610 -1 q 565 31 576 -1 q 560 52 564 38 q 552 78 556 67 q 543 97 549 89 q 519 115 536 108 q 506 117 507 121 l 507 107 q 500 67 507 82 q 452 19 485 33 q 383 17 419 6 q 338 53 356 26 q 324 108 321 81 l 324 118 l 313 118 q 285 103 301 117 q 272 76 278 96 q 266 56 271 71 q 258 33 261 42 q 217 -1 250 -1 l 150 -1 l 60 -1 q 40 1 46 -1 q 32 26 28 8 q 57 99 32 29 l 121 267 q 190 448 143 326 q 258 631 236 569 q 276 679 267 657 l 285 700 q 331 725 303 725 l 414 725 l 499 725 q 544 703 526 725 q 554 679 546 701 q 563 655 557 671 q 572 631 569 639 l 710 265 q 742 181 721 238 q 772 97 763 125 q 782 72 776 89 q 792 47 788 56 q 795 37 792 44 q 799 26 799 29 m 382 643 q 390 622 381 632 q 411 610 400 613 q 444 628 433 607 q 439 664 454 649 q 404 674 422 681 q 382 643 382 664 m 483 300 l 479 318 l 468 354 q 453 402 464 368 q 438 456 443 436 q 430 481 435 464 q 422 504 425 497 q 410 515 418 522 q 404 508 407 514 l 401 501 q 378 425 393 476 q 354 347 363 374 q 342 304 343 308 q 349 283 340 290 q 372 275 358 275 l 453 275 q 483 300 483 275 m 447 104 q 440 125 449 115 q 419 136 431 135 q 387 118 397 138 q 390 82 376 99 q 426 74 404 67 q 442 85 435 76 q 447 104 449 94 z "},"b":{"ha":833,"x_min":113,"x_max":775,"o":"m 769 219 q 767 161 775 196 q 707 60 751 97 q 656 25 681 36 q 600 11 631 15 q 356 0 536 0 l 175 0 l 142 0 q 113 35 115 3 l 113 118 l 113 297 l 113 651 l 113 688 q 126 717 113 704 q 160 725 135 725 l 224 725 l 419 725 l 474 726 q 528 725 528 728 q 649 697 613 719 q 729 599 714 657 q 724 475 749 529 q 689 426 707 444 l 678 415 l 665 408 q 653 401 664 407 q 640 392 643 396 q 651 376 632 381 q 679 365 657 375 q 728 329 713 346 q 769 219 769 281 m 383 651 q 389 629 378 644 q 408 617 397 618 q 444 631 431 611 q 443 668 457 650 q 407 681 429 688 q 383 651 382 672 m 326 474 q 340 447 325 460 q 367 442 349 442 l 439 442 q 490 454 467 442 q 517 497 511 465 q 508 547 521 526 q 467 574 494 569 q 418 576 436 576 l 375 576 q 353 575 360 576 q 326 539 329 568 l 326 474 m 546 238 q 513 289 550 271 q 447 303 489 303 l 371 303 q 328 281 336 303 q 326 257 326 274 l 326 208 q 346 163 326 174 q 369 160 353 160 l 417 160 q 475 161 465 160 q 529 182 515 167 q 546 238 546 204 m 450 76 q 425 111 453 104 q 389 99 406 119 q 389 61 375 81 q 424 46 399 43 q 442 57 433 49 q 446 67 444 60 q 450 76 447 74 z "},"c":{"ha":833,"x_min":42,"x_max":744,"o":"m 740 238 q 733 201 744 229 q 719 165 731 192 q 613 46 676 83 q 535 14 578 25 q 451 1 507 7 q 367 3 422 0 q 285 15 324 6 q 203 47 240 26 q 140 100 174 65 q 89 171 111 132 q 60 247 78 189 q 44 332 50 272 q 44 419 42 375 q 90 589 49 506 q 208 707 125 660 q 376 750 278 746 q 547 733 469 757 q 683 639 631 708 q 726 568 703 614 q 728 532 736 544 q 704 518 721 521 l 593 493 q 535 507 546 483 q 493 560 519 539 q 458 576 478 571 q 421 583 444 581 q 340 564 379 588 q 310 536 321 551 q 288 500 300 525 q 269 418 275 475 q 269 332 265 375 q 333 189 279 218 q 371 174 358 175 q 413 169 392 169 q 489 192 453 169 q 535 254 517 210 q 541 270 536 257 q 550 289 546 283 q 585 301 560 307 l 681 272 q 692 270 683 272 q 704 267 700 268 q 715 263 708 265 q 726 256 722 260 q 735 248 731 253 q 740 238 739 243 m 393 657 q 403 638 392 646 q 426 629 415 629 q 457 652 450 631 q 446 689 464 674 q 408 690 428 703 q 393 657 393 683 m 460 92 q 451 112 461 103 q 429 124 442 121 q 396 105 407 126 q 401 67 385 83 q 439 60 417 51 q 460 92 461 68 z "},"d":{"ha":833,"x_min":103,"x_max":772,"o":"m 769 396 q 769 338 772 378 l 765 276 q 754 217 764 265 q 735 164 747 188 q 704 115 710 122 q 622 42 671 71 q 508 6 593 24 q 411 0 483 0 l 240 0 l 163 0 l 129 0 q 109 14 115 1 q 103 33 103 26 q 103 58 103 39 l 103 368 l 103 671 l 103 692 q 132 726 103 719 l 167 726 l 247 726 l 415 726 q 510 721 467 726 q 622 685 569 714 q 667 651 632 679 q 704 610 675 646 q 733 558 717 594 q 740 546 735 554 q 742 540 742 544 q 743 533 742 536 q 753 506 749 521 q 769 396 769 436 m 388 643 q 394 622 386 632 q 414 610 403 613 q 449 624 433 606 q 454 643 454 631 q 447 661 454 651 q 410 675 435 683 q 393 663 400 672 q 388 643 386 653 m 544 365 q 543 394 544 385 q 521 499 540 464 q 433 557 493 547 q 381 563 414 560 q 340 556 350 563 q 330 540 333 550 q 326 522 326 529 q 326 499 325 514 q 326 481 326 483 l 326 203 q 339 171 326 182 q 353 164 344 165 q 375 164 361 163 q 392 165 389 165 q 488 185 456 165 q 538 264 521 201 q 543 311 539 271 q 544 365 544 329 m 454 83 q 446 106 456 96 q 424 115 436 115 q 390 97 400 118 q 397 60 381 76 q 434 53 413 44 q 454 83 456 61 z "},"e":{"ha":833,"x_min":129,"x_max":733,"o":"m 731 158 q 732 126 732 157 l 732 56 q 733 44 732 53 q 733 28 733 35 q 732 15 733 22 q 726 5 731 8 q 715 0 722 1 l 658 0 l 382 0 l 158 0 q 129 18 131 0 q 129 33 129 25 q 129 51 129 42 q 129 67 129 61 l 129 322 l 129 604 l 129 686 q 147 717 129 717 l 319 717 l 610 717 l 694 717 l 708 717 q 722 696 722 715 l 722 576 q 707 553 722 561 q 688 551 704 551 l 422 551 l 376 551 q 357 550 358 551 q 349 519 349 546 q 350 465 349 475 q 355 456 351 460 q 365 451 358 453 q 376 449 371 450 q 389 449 381 449 q 400 450 397 450 l 536 450 l 661 450 l 681 450 q 696 428 696 446 l 696 364 l 696 319 q 691 309 694 313 q 681 304 688 306 q 670 303 675 303 q 657 303 665 303 q 646 304 649 304 l 385 304 l 365 304 q 350 282 350 300 l 350 217 l 350 190 q 353 179 350 188 q 372 169 358 169 l 407 169 l 542 169 l 678 169 q 686 169 681 169 q 697 170 692 169 q 708 170 701 171 q 718 169 714 169 q 726 165 722 168 q 731 158 729 163 m 386 638 q 413 607 385 615 q 444 624 433 603 q 439 660 454 644 q 405 666 425 674 q 386 638 385 658 m 449 75 q 441 94 450 86 q 421 106 432 103 q 389 89 400 108 q 394 53 381 69 q 428 44 410 38 q 443 56 436 47 q 449 75 450 65 z "},"f":{"ha":833,"x_min":136,"x_max":693,"o":"m 692 711 q 693 689 693 710 l 693 594 q 668 556 693 557 l 619 556 l 517 556 l 421 556 q 378 553 383 556 q 366 540 369 549 q 362 524 363 531 q 362 504 361 518 q 363 488 363 490 q 367 458 363 464 q 390 446 374 446 l 550 446 l 638 446 q 678 435 668 446 q 682 411 682 428 l 682 363 q 683 349 682 361 q 683 331 683 336 q 679 317 682 325 q 669 304 676 308 q 626 299 663 299 l 531 299 l 431 299 l 385 299 q 363 253 363 293 l 363 169 q 401 186 376 183 q 469 169 439 190 q 507 86 511 142 q 461 14 504 35 q 421 3 436 3 q 381 10 396 3 q 375 13 378 11 q 369 15 372 14 q 365 18 367 18 q 360 15 363 19 q 333 0 344 0 l 215 0 l 167 0 q 139 15 146 0 q 136 57 136 24 l 136 285 l 136 568 l 136 667 l 136 706 q 163 731 139 728 l 176 731 l 269 731 l 553 731 l 649 731 q 692 711 686 731 m 449 649 q 424 683 453 675 q 388 669 401 689 q 389 631 374 650 q 424 619 401 613 q 442 631 435 624 q 444 640 443 633 q 449 649 446 647 m 383 94 q 392 74 382 83 q 413 63 401 64 q 444 78 433 58 q 442 114 454 99 q 406 125 425 133 q 383 94 381 117 z "},"g":{"ha":833,"x_min":57,"x_max":774,"o":"m 771 400 q 772 372 772 397 l 772 311 l 772 171 q 751 103 772 122 q 739 92 746 97 q 723 83 732 88 q 710 75 714 78 l 665 50 q 621 31 642 38 q 597 23 614 28 q 574 15 581 18 q 475 1 549 7 q 375 3 433 -3 q 192 65 263 10 q 82 229 110 129 q 63 328 67 283 q 63 429 57 389 q 83 528 69 481 q 131 619 99 574 q 200 688 161 661 q 293 732 240 717 q 389 749 332 746 q 493 749 458 751 q 592 735 560 743 q 638 717 632 721 q 678 690 669 700 q 735 617 718 649 q 732 539 774 547 l 615 518 q 579 513 586 511 q 542 535 557 513 q 472 586 517 576 q 379 583 426 596 q 307 521 332 567 q 279 425 283 478 q 304 231 268 301 q 374 170 326 188 q 474 161 422 153 q 515 172 488 164 l 536 181 l 556 190 q 582 228 575 203 q 569 269 589 254 q 525 275 561 275 l 497 275 q 471 275 471 274 q 439 301 443 278 l 439 354 q 438 368 439 358 q 438 386 438 378 q 439 401 438 394 q 471 426 446 424 l 569 426 l 713 426 l 740 426 q 762 418 751 425 q 771 400 772 411 m 383 661 q 391 640 382 650 q 411 628 400 631 q 445 644 433 624 q 443 682 457 665 q 406 693 425 700 q 389 680 396 689 q 383 661 382 671 m 450 93 q 440 113 451 104 q 417 122 428 122 q 385 101 394 124 q 394 64 376 78 q 432 60 413 49 q 450 93 450 69 z "},"h":{"ha":833,"x_min":75,"x_max":769,"o":"m 763 718 q 769 685 769 708 l 769 625 l 769 415 l 769 182 l 769 44 q 753 10 769 19 q 729 6 746 6 l 685 6 l 583 6 q 561 10 568 6 q 544 38 546 22 q 543 103 543 49 l 543 219 l 543 257 l 543 276 q 497 300 533 300 l 389 300 q 322 297 338 300 q 299 243 299 292 l 299 153 q 332 156 325 153 q 356 174 335 157 l 368 182 q 401 194 379 189 q 488 158 456 204 q 503 97 507 132 q 475 40 500 63 q 375 25 429 -1 q 360 35 369 28 q 347 44 350 43 q 329 53 336 53 q 320 53 325 53 q 309 53 315 53 q 299 53 303 53 q 290 17 299 25 q 261 6 281 6 l 211 6 l 108 6 q 84 17 93 6 q 75 44 75 29 l 75 107 l 75 363 l 75 619 l 75 689 q 100 729 75 721 q 132 731 104 731 l 199 731 l 257 731 q 283 725 274 731 q 299 692 299 717 l 299 678 l 310 678 q 328 681 321 678 q 357 699 339 683 q 383 714 365 707 q 443 715 410 724 q 478 693 463 710 q 500 657 494 676 q 482 572 515 606 q 444 546 465 556 q 410 542 432 542 q 356 563 381 542 q 338 578 342 576 q 299 579 332 579 l 299 531 q 303 496 299 504 q 356 478 313 478 l 460 478 l 501 478 q 522 479 519 478 q 543 500 538 485 l 543 521 l 543 618 q 542 642 543 626 q 542 672 542 658 q 543 696 542 685 q 579 731 549 731 l 736 731 q 763 718 754 733 m 408 664 q 381 635 390 660 q 404 599 381 603 q 440 610 426 594 q 443 647 457 629 q 408 664 429 668 m 408 139 q 381 110 390 135 q 404 74 381 81 q 441 85 426 67 q 443 124 456 104 q 408 139 428 143 z "},"i":{"ha":833,"x_min":215,"x_max":614,"o":"m 613 703 q 614 685 614 701 l 614 649 l 614 578 q 583 546 611 549 l 554 546 l 528 546 l 528 536 l 528 513 l 528 196 l 528 183 q 544 182 528 182 q 603 174 593 182 q 614 131 614 164 l 614 46 q 600 7 614 18 q 546 1 593 1 l 419 1 l 294 1 l 256 1 q 236 3 239 1 q 217 42 217 11 l 217 125 q 224 169 217 161 q 278 182 235 182 l 303 182 l 303 193 l 303 507 l 303 532 l 303 544 q 283 546 301 546 l 250 546 q 227 555 238 546 q 217 576 217 564 q 217 608 215 576 l 217 639 l 217 699 q 228 719 218 711 q 251 726 239 726 l 368 726 l 499 726 l 575 726 q 594 724 588 726 q 613 703 611 714 m 449 635 q 440 656 450 646 q 418 667 431 665 q 385 646 394 667 q 392 610 376 628 q 428 603 407 594 q 449 635 450 613 m 449 94 q 440 116 449 107 q 418 126 431 125 q 385 107 394 129 q 392 71 376 86 q 428 63 408 54 q 449 94 449 72 z "},"j":{"ha":833,"x_min":94,"x_max":678,"o":"m 676 696 q 678 674 678 689 l 678 393 q 669 215 678 288 q 639 119 663 158 q 568 44 618 82 q 375 0 506 0 q 178 53 246 0 q 117 135 133 88 q 104 181 110 150 q 97 222 97 215 q 118 263 94 251 q 161 269 126 267 q 238 279 210 275 q 274 279 265 282 q 300 239 293 271 q 310 203 307 207 q 342 175 324 182 q 388 171 358 168 q 431 189 413 174 q 451 229 443 200 q 456 308 456 256 l 456 550 q 425 544 436 544 q 401 550 408 547 q 351 588 372 558 q 338 644 335 613 q 360 699 340 676 q 465 724 401 744 q 474 724 469 722 l 482 728 q 497 731 488 731 l 575 731 l 638 731 q 665 719 653 729 q 676 696 678 710 m 461 633 q 456 657 464 639 q 438 669 447 668 q 403 655 417 674 q 403 618 389 636 q 436 606 417 601 q 453 616 444 607 q 461 633 463 625 m 463 97 q 454 118 464 108 q 433 131 444 128 q 399 114 411 135 q 403 76 388 93 q 439 65 418 58 q 456 78 449 68 q 463 97 464 88 z "},"k":{"ha":833,"x_min":115,"x_max":803,"o":"m 797 26 q 796 8 803 18 q 779 1 793 4 l 750 1 l 686 1 l 588 1 q 532 47 549 3 l 519 78 q 516 86 518 79 q 513 94 514 93 q 506 92 507 99 q 504 78 504 86 q 458 15 492 33 q 382 7 424 -7 q 358 18 371 11 q 342 32 344 33 q 335 21 340 32 q 322 6 332 13 q 293 1 313 1 l 169 1 q 139 4 149 1 q 115 35 118 11 l 115 71 l 115 165 l 115 435 l 115 657 l 115 694 q 136 725 115 715 q 164 728 140 728 l 289 728 q 317 725 308 728 q 339 694 343 714 q 356 697 353 694 q 364 707 358 699 q 415 728 383 728 q 469 711 451 728 q 488 688 482 701 q 490 682 489 686 q 492 674 490 678 q 494 668 493 671 q 499 665 496 665 q 518 681 506 663 q 540 706 532 697 q 592 728 565 728 l 657 728 l 742 728 q 765 724 754 728 q 774 707 775 719 q 756 674 772 697 l 710 611 q 610 472 676 564 q 592 438 593 450 q 600 403 590 422 l 664 282 q 753 113 707 199 q 767 83 757 103 q 783 51 778 63 q 797 26 797 29 m 383 650 q 391 630 382 639 q 411 619 400 621 q 444 636 433 617 q 439 674 456 657 q 403 681 424 689 q 383 650 382 672 m 339 460 q 353 457 342 449 q 363 468 357 460 l 394 514 q 414 540 408 531 q 417 561 428 554 q 403 563 414 563 q 388 565 392 565 q 357 578 365 571 q 338 572 338 594 q 337 557 338 568 q 336 540 336 546 l 336 486 q 339 460 336 464 m 474 182 q 468 199 476 182 q 450 239 451 236 q 441 262 449 242 q 428 290 433 282 q 407 300 417 301 q 390 288 397 297 q 373 269 388 283 q 351 246 358 254 q 339 200 339 228 q 343 164 339 165 q 360 169 349 163 q 381 181 375 179 q 425 185 403 189 q 454 178 433 183 q 460 174 456 178 q 468 171 465 169 q 474 182 476 174 m 444 99 q 435 118 446 110 q 414 126 425 126 q 382 106 390 126 q 390 71 374 83 q 428 67 408 56 q 444 99 444 76 z "},"l":{"ha":833,"x_min":203,"x_max":774,"o":"m 771 150 q 772 129 772 147 l 772 85 q 773 65 772 82 q 773 40 774 47 q 769 22 772 33 q 757 5 765 10 q 736 0 749 0 l 629 0 l 272 0 l 238 0 q 204 22 213 0 q 203 46 203 26 l 203 90 l 203 450 l 203 690 q 213 714 203 704 q 236 725 222 724 q 256 725 246 725 q 280 725 267 725 q 300 725 293 725 l 382 725 q 396 724 392 725 q 406 721 400 724 q 409 718 407 719 q 413 715 411 717 q 419 713 414 714 q 425 713 424 713 q 434 710 428 713 q 443 708 440 708 q 489 669 471 700 q 500 611 504 644 q 474 560 496 578 q 449 543 460 546 q 438 540 446 542 q 426 535 429 538 q 422 508 422 533 l 422 332 l 422 253 q 424 217 422 219 q 460 196 433 196 l 521 196 l 700 196 q 738 193 729 196 q 771 150 771 181 m 381 624 q 388 603 379 613 q 407 592 396 593 q 440 608 428 589 q 439 644 451 626 q 404 656 424 660 q 387 644 394 654 q 381 624 379 635 m 444 71 q 439 93 447 76 q 421 104 432 101 q 385 90 399 110 q 386 53 372 71 q 422 42 399 36 q 444 71 446 49 z "},"m":{"ha":833,"x_min":31,"x_max":800,"o":"m 799 697 q 800 683 800 694 l 800 651 l 800 382 l 800 96 l 800 38 q 786 8 797 15 q 749 1 776 1 l 674 1 q 632 3 636 1 q 622 7 626 4 q 615 15 618 10 q 611 23 613 19 q 609 33 610 26 q 608 43 608 40 q 608 54 608 46 q 608 64 608 63 l 608 333 q 601 354 608 350 q 585 343 597 356 l 582 338 q 577 326 579 332 q 573 311 575 319 q 569 299 571 303 q 547 228 561 275 q 507 103 519 144 q 502 88 506 99 q 496 71 499 76 q 463 35 485 47 q 369 35 414 11 q 328 89 338 50 q 310 144 322 107 q 292 201 297 182 q 249 335 276 246 q 247 341 249 336 q 245 348 246 346 q 242 353 244 350 q 236 356 239 356 q 224 351 228 357 q 221 338 221 346 l 221 222 l 221 74 q 222 58 221 71 q 222 38 222 44 q 218 23 221 32 q 208 8 215 14 q 171 1 199 1 l 94 1 q 51 3 56 1 q 31 36 31 8 l 31 210 l 31 522 l 31 693 q 53 726 31 721 q 88 728 58 728 l 231 728 q 263 725 256 728 q 290 693 281 718 q 295 676 292 688 q 300 660 299 665 q 303 651 301 657 q 307 643 306 646 q 324 642 315 635 q 329 651 326 644 q 333 661 332 658 q 367 697 344 682 q 415 711 390 713 q 494 664 471 708 q 497 658 496 663 q 500 650 499 653 q 504 644 501 647 q 510 639 507 640 q 515 639 513 638 q 524 653 519 640 q 530 672 526 660 q 535 688 533 683 q 558 721 543 711 q 592 728 568 728 l 735 728 l 769 728 q 790 717 781 726 q 799 697 800 708 m 382 615 q 392 596 381 604 q 413 588 403 588 q 444 608 435 588 q 438 643 454 628 q 400 649 421 656 q 382 615 382 639 m 490 550 q 474 549 489 564 q 442 531 454 535 q 376 535 413 519 q 349 554 367 539 q 336 551 336 564 q 338 547 336 550 q 340 541 339 544 q 342 536 342 538 q 347 519 343 531 q 353 501 351 507 q 370 450 358 483 q 391 390 382 417 q 407 339 400 363 q 415 322 413 322 q 424 339 418 324 q 431 360 428 349 q 438 385 435 371 q 444 406 442 399 q 466 473 450 421 q 490 550 482 525 m 449 107 q 439 127 450 118 q 415 138 428 136 q 383 115 393 138 q 393 79 376 93 q 431 74 410 63 q 449 107 449 83 z "},"n":{"ha":833,"x_min":69,"x_max":764,"o":"m 763 697 q 764 675 764 694 l 764 326 l 764 35 q 757 14 764 24 q 747 4 756 10 q 735 0 742 0 l 733 0 l 718 0 l 671 0 l 660 0 l 571 0 l 553 0 l 551 0 q 538 1 542 0 q 522 7 529 3 q 517 10 519 10 l 515 11 q 485 47 503 19 q 474 38 481 44 q 463 29 468 32 q 375 27 421 6 q 324 99 329 49 q 361 185 319 154 q 369 188 364 186 q 378 192 374 190 q 385 198 382 194 q 388 206 388 201 l 386 211 l 378 224 l 371 235 q 362 251 368 240 q 353 265 356 261 l 319 319 q 301 349 308 339 l 297 354 q 282 353 286 371 q 281 340 281 349 l 281 329 l 281 328 l 281 247 l 281 56 l 281 38 l 281 29 q 275 14 281 22 q 257 1 267 3 q 253 1 256 1 q 250 0 251 0 l 246 0 l 226 0 l 128 0 l 119 0 l 111 0 q 90 3 96 0 q 69 35 72 11 l 69 42 l 69 88 l 69 90 l 69 375 l 69 478 l 69 646 q 69 657 69 649 q 69 673 69 665 q 69 686 69 681 l 69 696 q 81 717 71 707 q 86 721 83 719 q 139 726 96 726 l 242 726 l 274 726 l 276 726 q 311 718 294 726 q 336 693 322 713 l 344 681 q 347 685 344 682 l 356 690 q 399 711 381 710 q 442 710 417 715 q 476 690 457 704 l 486 681 q 500 657 496 668 q 507 631 504 650 l 507 628 q 496 576 510 601 q 458 539 482 551 q 442 524 442 531 q 443 518 442 521 q 460 490 449 508 q 475 467 472 472 q 490 442 479 458 l 503 421 q 511 408 506 417 q 519 394 517 399 l 532 372 l 535 369 q 539 364 538 365 q 542 361 539 361 q 549 361 546 358 q 551 382 551 364 l 551 436 l 551 610 l 551 675 q 554 706 551 699 q 567 719 558 713 q 589 726 578 726 l 592 726 l 657 726 l 667 726 l 728 726 l 729 726 q 738 725 735 726 q 763 703 758 719 l 763 697 m 383 621 q 386 607 383 615 q 410 590 393 593 q 438 597 426 586 q 446 633 453 613 q 428 650 439 646 q 408 651 419 654 q 383 624 385 646 l 383 621 m 392 88 q 399 80 392 88 q 426 79 407 72 q 449 107 446 86 l 443 117 l 431 138 l 419 142 q 387 124 397 146 q 392 88 376 103 z "},"o":{"ha":833,"x_min":31,"x_max":790,"o":"m 789 428 q 790 371 790 410 q 732 144 790 235 q 551 17 668 46 q 436 0 488 0 q 321 8 365 0 q 264 22 282 17 q 210 44 249 26 q 119 118 165 64 q 63 219 83 161 q 40 335 46 264 q 81 572 31 476 q 151 664 108 625 q 254 725 190 699 q 492 744 354 764 q 699 646 629 725 q 721 622 714 631 q 728 611 722 619 q 736 599 733 603 q 764 543 753 574 q 779 488 775 507 q 789 428 782 476 m 379 660 q 386 640 378 649 q 406 628 394 631 q 440 643 428 624 q 444 661 447 651 q 439 679 444 672 q 422 693 433 689 q 401 693 411 696 q 379 660 375 683 m 567 383 q 566 398 567 389 q 565 411 565 407 q 536 519 565 468 q 442 578 507 571 q 333 558 376 588 q 272 465 289 529 q 264 351 260 417 q 289 239 269 274 q 375 172 318 183 q 488 183 439 160 q 553 269 533 207 q 567 383 560 289 m 444 89 q 438 110 446 101 q 417 122 429 119 q 383 105 394 126 q 388 67 372 83 q 422 57 400 50 q 439 69 432 60 q 444 89 446 79 z "},"p":{"ha":833,"x_min":146,"x_max":764,"o":"m 763 517 q 760 450 764 486 q 738 385 751 414 q 656 301 713 331 q 533 269 599 272 q 469 269 511 269 q 407 268 428 269 q 383 258 393 268 q 374 235 374 249 l 374 168 q 378 171 375 168 q 383 174 382 174 q 394 178 383 175 q 417 183 408 183 q 450 179 428 185 q 508 126 492 171 q 500 39 529 81 q 431 -1 475 3 q 369 17 406 -3 q 358 6 365 10 q 343 0 353 0 q 260 -1 333 -1 l 179 -1 q 160 6 168 0 q 150 22 153 11 q 147 40 147 33 q 147 63 146 46 q 147 81 147 79 l 147 283 l 147 526 l 147 682 q 160 718 147 708 q 207 724 169 724 l 429 724 q 572 722 561 724 q 646 703 615 715 q 711 658 681 689 q 763 517 763 611 m 389 647 q 397 627 388 636 q 418 615 406 618 q 451 633 442 613 q 446 671 461 654 q 410 678 432 688 q 389 647 388 669 m 544 501 q 519 557 547 538 q 461 576 497 574 q 436 578 461 578 l 411 576 q 386 571 393 576 q 374 550 375 563 l 374 483 q 378 431 374 438 q 399 415 389 417 l 428 415 q 485 422 463 415 q 531 450 519 433 q 544 501 544 471 m 392 94 q 397 72 389 89 q 417 61 404 64 q 450 72 438 57 q 451 110 464 89 q 417 124 439 126 q 399 113 407 121 q 392 94 390 104 z "},"q":{"ha":833,"x_min":36,"x_max":807,"o":"m 803 115 q 799 93 807 107 q 790 76 796 88 q 779 58 783 64 q 770 41 776 53 q 758 20 764 29 q 744 6 751 11 q 735 1 740 1 q 723 2 729 0 q 713 7 717 4 q 702 14 708 10 q 693 19 696 18 q 642 53 689 22 q 590 75 607 76 q 560 68 583 75 q 549 65 556 67 q 538 61 543 63 q 526 60 532 60 q 464 51 506 54 q 336 56 400 47 q 110 183 194 74 q 39 432 36 279 q 115 676 42 586 q 218 761 160 733 q 344 800 274 792 q 476 801 400 808 q 542 790 521 796 q 604 768 567 783 q 708 694 664 744 q 774 579 753 643 q 794 449 794 517 q 783 313 797 367 q 733 193 768 246 q 732 168 725 176 q 756 150 736 163 q 768 143 758 149 q 783 135 778 138 q 803 115 796 128 m 379 707 q 388 686 378 696 q 408 675 397 676 q 442 694 432 672 q 436 731 453 715 q 399 738 421 746 q 379 707 376 729 m 569 419 l 569 456 q 560 525 569 469 q 528 588 550 565 q 501 610 510 606 q 471 625 493 617 q 401 633 432 638 q 290 560 325 626 q 268 492 272 525 q 265 422 265 433 q 271 353 269 361 q 293 285 283 301 q 401 219 326 226 q 428 218 410 218 q 447 224 444 218 q 438 242 451 228 l 411 260 q 385 303 372 282 q 410 347 401 333 q 426 368 419 365 q 453 363 435 372 q 483 343 472 349 q 511 325 507 328 q 539 307 532 308 q 547 308 543 306 q 553 317 551 311 q 558 329 556 324 q 561 342 560 335 q 563 351 563 350 q 569 419 569 374 m 444 140 q 435 160 446 151 q 413 168 424 168 q 381 147 389 169 q 392 110 374 125 q 429 107 408 96 q 444 140 444 114 z "},"r":{"ha":833,"x_min":76,"x_max":782,"o":"m 776 28 q 775 9 782 17 q 758 1 768 1 l 731 1 l 603 1 l 571 1 q 535 15 553 1 q 521 31 529 19 q 513 46 518 40 q 486 36 504 50 q 415 8 454 8 q 354 33 379 8 q 328 114 321 67 q 371 179 335 158 q 406 192 393 190 q 426 196 425 192 q 417 225 431 201 q 407 241 415 228 q 393 261 399 254 q 325 296 368 292 q 306 289 310 299 q 303 260 303 283 l 303 157 l 303 42 q 268 1 303 1 l 161 1 l 114 1 q 86 13 96 1 q 76 53 76 22 l 76 132 l 76 392 l 76 633 l 76 690 q 110 726 76 724 l 178 726 l 311 726 l 426 726 q 444 726 432 726 q 465 726 456 726 q 483 726 475 726 q 653 689 604 721 q 708 625 685 667 q 731 549 725 597 q 688 396 740 457 q 625 344 663 364 q 588 329 608 336 q 575 321 576 325 q 588 310 575 318 q 618 292 607 303 q 646 263 628 283 q 685 206 669 235 q 738 103 729 119 q 776 28 769 44 m 386 651 q 394 631 385 640 q 414 621 403 621 q 447 638 436 618 q 442 675 458 661 q 406 682 426 690 q 386 651 385 674 m 506 507 q 475 561 510 542 q 411 574 454 574 l 339 574 q 303 546 306 574 q 301 523 301 535 q 302 496 301 511 q 303 472 303 481 q 322 429 303 436 q 347 426 331 426 l 392 426 q 442 431 417 426 q 490 457 468 435 q 506 507 506 474 m 451 100 q 443 121 453 111 q 422 132 433 131 q 389 114 400 136 q 396 78 381 93 q 431 69 411 63 q 446 81 439 72 q 451 100 453 90 z "},"s":{"ha":833,"x_min":83,"x_max":744,"o":"m 740 274 q 731 178 744 222 q 685 96 711 125 q 647 63 672 79 q 607 36 639 56 q 563 18 581 24 q 514 7 529 10 q 418 0 461 0 q 315 8 385 0 q 222 36 260 18 q 100 182 135 78 q 88 231 92 206 q 104 265 83 254 q 138 271 107 267 q 208 274 161 271 q 235 274 217 274 q 263 275 253 275 q 294 264 283 278 q 304 243 303 254 l 313 224 q 340 189 324 201 q 429 161 375 161 q 508 189 482 161 q 522 230 524 208 q 506 269 521 251 q 492 282 500 276 q 474 292 485 288 q 457 299 463 296 q 437 306 451 301 q 419 311 422 310 q 367 324 401 317 q 322 335 333 332 q 229 365 267 350 q 152 426 183 385 q 118 515 121 467 q 174 678 108 613 q 344 751 229 733 q 439 756 400 758 q 540 742 504 753 q 632 703 597 725 q 694 632 665 682 q 713 586 708 601 q 718 542 721 547 q 708 528 715 533 q 693 522 701 524 q 676 519 685 519 q 658 518 667 518 q 640 518 649 518 q 603 517 628 518 q 567 517 579 517 q 533 518 544 514 q 504 551 514 525 q 481 588 494 575 q 397 614 447 619 q 329 576 340 608 q 325 544 324 558 q 353 511 331 524 q 439 481 378 497 q 533 457 503 467 q 558 449 542 454 q 581 442 575 443 q 621 422 604 432 q 665 396 657 403 q 699 363 681 386 q 740 274 728 329 m 383 681 q 392 658 382 668 q 414 649 403 649 q 447 668 438 647 q 440 706 457 689 q 403 712 425 721 q 383 681 382 703 m 450 93 q 442 113 451 103 q 421 125 432 124 q 388 107 399 125 q 392 69 378 86 q 431 61 408 53 q 450 93 453 72 z "},"t":{"ha":833,"x_min":74,"x_max":754,"o":"m 754 700 l 754 679 l 754 635 l 754 572 q 717 546 749 546 l 561 546 q 525 517 529 546 l 525 490 l 525 335 l 525 33 q 494 0 525 3 l 433 0 l 344 0 q 306 17 317 0 q 301 47 301 24 l 301 104 l 301 290 l 301 467 q 302 483 301 471 q 302 501 303 494 q 300 517 301 507 q 294 533 299 526 q 283 543 290 539 q 232 546 278 546 l 135 546 q 89 553 100 546 q 74 596 74 561 l 74 685 q 96 724 74 714 q 121 725 100 725 l 172 725 l 543 725 l 692 725 l 719 725 q 736 721 728 725 q 747 713 743 718 l 754 700 m 447 650 q 439 672 449 663 q 417 682 429 681 q 384 664 394 685 q 389 626 374 643 q 426 619 404 610 q 447 650 449 628 m 447 89 q 439 111 449 97 q 418 121 429 119 q 384 103 394 125 q 389 65 374 82 q 426 58 403 49 q 447 89 449 67 z "},"u":{"ha":833,"x_min":81,"x_max":756,"o":"m 754 694 q 756 672 756 692 l 756 631 l 756 347 l 756 282 q 738 182 756 233 q 617 38 708 89 q 426 0 550 0 q 329 7 382 0 q 240 28 274 14 q 164 79 203 40 q 108 156 136 106 q 94 201 106 161 q 85 251 92 210 q 81 318 81 274 l 81 594 l 81 681 q 93 710 81 699 q 126 718 104 718 l 256 718 q 288 707 276 718 q 297 689 294 701 q 298 683 297 688 q 300 675 299 678 q 306 669 301 671 l 318 669 q 351 683 333 669 q 389 707 378 704 q 432 711 411 713 q 499 665 479 701 q 497 572 528 617 q 418 528 465 528 q 360 549 385 528 q 356 552 358 550 q 351 556 353 554 q 340 564 344 563 q 303 564 318 571 q 299 549 299 561 l 299 496 l 299 347 q 301 269 299 286 q 351 199 311 221 q 443 185 392 178 q 517 226 492 194 q 539 307 539 258 l 539 543 l 539 664 l 539 683 q 567 717 540 708 q 604 718 572 718 l 679 718 l 721 718 q 742 711 731 718 q 754 694 753 704 m 386 619 q 394 599 385 608 q 414 588 403 589 q 447 603 436 585 q 443 640 457 622 q 407 650 431 657 q 392 638 399 647 q 386 619 385 629 m 451 75 q 446 97 456 83 q 428 110 438 106 q 393 96 406 115 q 393 57 381 76 q 429 47 406 40 q 451 75 453 53 z "},"v":{"ha":833,"x_min":44,"x_max":781,"o":"m 779 713 q 776 694 781 710 q 715 525 754 639 l 615 244 q 543 43 599 201 q 517 7 533 15 q 486 1 507 1 l 422 1 l 353 1 q 321 3 325 1 q 286 26 296 7 q 285 31 286 28 q 283 36 283 35 q 218 224 239 161 q 119 506 140 444 q 87 598 108 536 q 54 690 65 660 q 51 700 51 699 q 68 724 44 724 l 183 724 l 243 724 q 272 719 265 724 q 296 685 289 713 l 304 658 l 311 651 q 317 656 313 654 q 322 660 321 658 q 332 674 331 672 q 382 717 360 710 q 429 722 408 725 q 488 687 465 717 q 507 621 511 657 q 474 563 503 589 q 418 539 453 542 q 378 547 397 539 q 371 550 376 547 q 361 554 365 553 q 351 555 358 556 q 342 553 344 554 q 340 549 340 551 q 344 538 340 546 l 357 497 q 389 396 363 479 q 400 361 393 381 q 407 344 404 347 q 419 348 414 339 q 426 367 425 357 l 535 696 q 569 724 542 721 q 590 724 579 724 q 613 724 600 724 q 632 724 625 724 l 736 724 q 779 713 781 724 m 382 633 q 389 612 381 622 q 407 600 397 601 q 442 614 428 596 q 442 650 456 632 q 407 663 429 667 q 390 651 397 661 q 383 642 385 646 q 383 638 383 640 q 382 633 383 635 m 449 94 q 440 117 450 107 q 418 126 429 126 q 385 110 396 129 q 390 71 374 90 q 428 63 406 54 q 449 94 450 72 z "},"w":{"ha":833,"x_min":-51,"x_max":882,"o":"m 878 722 q 876 700 882 713 q 833 551 861 651 q 756 285 781 374 q 723 175 744 249 q 690 64 701 101 q 685 43 689 57 q 679 22 681 29 q 661 3 674 7 q 646 1 657 1 l 617 1 l 572 1 q 553 19 560 6 q 514 106 544 36 q 458 228 503 128 q 453 240 457 231 q 447 253 450 249 q 440 265 444 258 q 431 274 436 271 q 419 279 426 278 q 388 263 400 283 q 364 211 379 249 q 353 188 354 194 q 351 183 350 185 q 358 179 351 182 l 363 176 l 369 175 q 379 172 375 172 q 388 173 382 172 q 397 174 394 174 q 474 153 444 178 q 501 85 506 125 q 457 11 499 35 q 375 13 417 -10 q 335 56 346 26 q 329 75 332 61 q 310 94 325 85 q 297 66 308 92 q 278 26 285 40 q 246 1 265 1 l 175 1 q 146 24 153 1 l 138 53 q 89 226 121 114 q 44 383 57 338 l -43 688 q -47 699 -44 692 q -49 707 -49 706 q -36 735 -51 725 q -15 740 -29 740 l 71 740 l 110 740 q 125 739 121 740 q 140 710 133 735 l 165 636 q 195 544 175 604 q 221 467 215 485 q 244 438 231 439 q 259 442 253 436 q 267 452 265 447 q 272 467 269 457 l 340 635 q 358 674 353 667 q 411 699 378 699 q 465 678 446 699 q 485 640 476 665 q 515 563 492 624 q 550 468 538 501 q 558 444 551 464 q 571 413 565 424 q 588 398 575 400 q 607 407 600 396 q 619 443 613 414 q 631 484 624 457 q 642 525 639 511 l 692 701 q 700 732 696 725 q 743 740 707 740 l 836 740 q 856 739 850 740 q 869 733 861 739 q 878 722 876 724 m 447 615 q 440 634 449 625 q 422 646 432 643 q 389 633 401 650 q 390 597 376 615 q 426 586 404 579 q 447 615 447 593 m 383 88 q 391 69 383 78 q 408 57 399 60 q 442 72 429 53 q 440 108 454 90 q 405 118 426 126 q 383 88 383 110 z "},"x":{"ha":833,"x_min":24,"x_max":801,"o":"m 796 22 q 794 8 801 14 q 776 1 786 1 l 756 1 l 592 1 q 540 29 558 1 q 528 50 535 39 q 515 75 522 61 q 503 96 507 89 q 486 58 503 85 q 442 29 471 38 q 390 29 414 21 q 349 56 369 35 q 329 100 335 69 q 311 69 314 74 l 290 31 q 269 11 282 18 q 218 1 254 1 l 114 1 l 50 1 q 44 36 24 4 l 82 90 q 204 268 124 149 q 250 333 235 313 q 268 369 265 357 q 258 413 274 392 q 219 469 251 424 q 97 646 156 564 l 64 696 q 58 711 58 707 q 78 726 60 724 q 117 728 78 728 l 157 726 l 242 726 q 293 701 275 726 q 332 635 299 693 q 336 647 335 644 q 353 669 338 651 q 443 692 386 707 q 481 667 464 685 q 501 629 497 650 q 514 649 510 643 q 522 665 515 651 q 531 683 529 678 q 540 698 533 688 q 553 713 547 708 q 567 721 558 717 q 586 726 576 725 q 599 726 592 726 q 616 726 607 726 q 629 726 625 726 l 714 726 l 757 726 q 773 716 769 725 q 771 697 776 707 q 713 613 767 690 q 660 535 694 585 q 619 474 626 485 q 600 444 613 463 q 585 422 588 426 q 571 403 582 418 q 568 354 557 375 q 582 333 572 347 q 620 278 594 314 q 658 222 646 242 l 751 88 q 796 22 792 29 m 449 614 q 439 633 449 625 q 419 643 429 642 q 388 624 397 646 q 393 588 378 603 q 431 581 408 569 q 449 614 449 590 m 449 114 q 440 133 450 125 q 419 143 431 142 q 387 126 397 146 q 392 89 376 106 q 428 82 408 72 q 449 114 449 90 z "},"y":{"ha":833,"x_min":33,"x_max":800,"o":"m 794 715 q 785 686 800 710 q 588 392 621 442 q 536 310 542 325 q 528 189 528 283 q 528 140 528 172 q 528 82 528 108 q 528 33 528 56 q 518 10 528 19 q 494 0 508 0 l 421 0 l 339 0 q 304 31 307 0 l 304 81 l 304 181 q 297 304 304 279 q 285 332 293 318 q 264 363 276 346 q 247 388 251 381 q 47 685 114 585 q 35 713 33 708 q 78 725 39 725 l 236 725 q 288 696 268 725 q 308 661 290 692 q 319 651 314 649 q 322 655 321 653 q 324 660 324 657 q 325 664 325 663 q 342 692 331 678 q 385 721 360 714 q 448 717 417 731 q 493 674 479 704 q 503 651 500 661 q 510 640 503 640 q 516 644 513 640 q 522 654 519 649 q 525 661 525 660 l 546 694 q 560 713 551 706 q 584 722 569 719 q 606 726 599 725 q 633 726 614 726 q 656 725 653 725 l 751 725 q 794 715 790 725 m 379 631 q 388 610 378 619 q 408 600 397 601 q 440 618 431 599 q 436 654 449 638 q 400 664 424 672 q 379 631 379 656 m 454 543 q 439 546 453 550 q 421 540 428 540 q 385 546 390 536 l 383 546 q 390 524 379 542 q 411 497 407 499 q 435 511 424 494 q 454 543 446 533 m 454 88 q 445 109 456 99 q 424 119 435 119 q 390 103 401 122 q 396 64 378 82 q 433 57 411 49 q 454 88 456 65 z "},"z":{"ha":833,"x_min":71,"x_max":760,"o":"m 758 147 q 760 110 760 144 l 760 49 q 754 17 760 26 q 726 0 746 0 l 682 0 l 444 0 l 186 0 l 114 0 q 72 22 81 0 q 71 58 71 26 l 71 124 q 93 192 71 165 q 110 208 99 197 q 128 224 122 218 l 211 303 q 401 482 339 422 l 449 526 q 456 547 461 539 q 435 553 453 553 l 201 553 l 156 553 q 136 554 139 553 q 123 560 128 556 q 115 569 118 565 q 111 583 113 574 q 110 596 110 592 q 110 610 110 600 q 110 624 110 621 l 110 685 q 118 714 110 706 q 144 725 125 725 l 161 725 l 375 725 l 635 725 l 704 725 q 719 724 717 725 q 744 697 738 718 q 746 653 746 690 l 747 625 q 746 599 747 599 q 721 538 740 560 q 590 415 718 535 l 403 238 l 361 200 q 360 176 349 182 q 381 175 361 175 l 614 175 l 714 175 q 732 174 726 175 q 758 147 760 167 m 449 640 q 443 663 454 649 q 425 675 439 669 q 390 664 404 683 q 388 625 376 644 q 422 611 399 606 q 449 640 450 618 m 449 79 q 442 103 454 90 q 424 114 432 113 q 388 101 401 121 q 389 63 374 81 q 424 50 403 44 q 449 79 449 58 z "},"":{"ha":833,"x_min":0,"x_max":0,"o":""},"":{"ha":833,"x_min":210,"x_max":629,"o":"m 439 1 l 408 1 q 290 43 346 3 q 221 142 239 81 q 210 206 211 176 q 221 269 210 239 q 292 368 242 331 q 413 410 340 406 q 469 403 440 413 q 529 376 504 393 q 607 278 581 342 q 614 156 629 221 q 550 51 600 96 q 500 19 525 29 q 439 1 471 8 m 417 271 q 437 278 428 269 q 447 297 446 286 q 431 332 450 321 q 393 329 411 343 q 385 289 375 314 q 417 271 393 271 m 417 61 q 437 68 428 60 q 447 88 446 76 q 431 122 450 111 q 393 119 411 133 q 385 79 375 104 q 417 61 393 61 z "},"":{"ha":833,"x_min":0,"x_max":0,"o":""},"":{"ha":833,"x_min":136,"x_max":739,"o":"m 738 157 q 739 143 739 156 l 739 113 l 739 35 q 731 3 739 8 q 713 0 725 0 l 611 0 l 279 0 l 169 0 q 136 18 139 0 l 136 89 l 136 232 l 136 567 l 136 675 q 154 714 136 711 l 186 714 q 203 719 200 714 q 203 733 206 724 q 197 754 200 740 q 209 806 192 781 q 254 835 226 831 q 306 825 282 839 q 336 785 331 811 q 335 738 342 756 q 331 732 333 736 q 326 724 328 728 q 325 718 324 721 q 342 714 328 710 q 346 718 346 715 q 347 722 346 719 q 350 729 347 725 q 354 735 353 733 q 372 754 361 746 q 421 774 394 774 q 472 758 446 775 q 493 740 486 749 q 500 728 499 732 q 504 717 503 717 q 514 713 507 714 q 524 717 521 713 q 515 736 525 721 q 514 788 506 763 q 549 828 525 814 q 601 833 572 840 q 642 803 626 828 q 653 754 657 779 q 644 731 651 743 q 644 717 642 719 q 658 714 646 714 l 697 714 q 728 699 725 714 q 729 683 729 692 q 728 663 729 674 q 728 646 728 651 l 728 575 q 711 554 728 556 l 679 554 l 611 554 l 443 554 l 388 554 q 363 549 368 554 q 358 535 358 544 l 358 501 l 358 467 q 364 451 358 458 q 388 449 368 449 l 447 449 l 614 449 l 672 449 q 697 442 690 449 q 701 401 701 438 l 701 325 q 699 311 701 315 q 685 303 694 303 l 656 303 l 499 303 l 421 303 q 408 303 417 303 q 391 303 399 303 q 378 303 383 303 q 358 285 360 300 l 358 225 l 358 190 q 361 176 358 181 q 383 168 367 168 l 511 168 l 674 168 l 718 168 q 738 157 736 168 m 390 696 q 397 673 389 685 q 417 660 406 661 q 451 676 439 657 q 451 713 464 694 q 417 725 438 732 q 399 714 406 722 l 397 711 q 393 704 394 707 q 392 700 393 703 q 390 696 392 697 m 457 71 q 451 93 464 81 q 432 106 446 103 q 398 92 411 113 q 397 54 385 71 q 433 42 413 35 q 451 53 443 44 q 457 71 458 61 z "},"":{"ha":833,"x_min":28,"x_max":806,"o":"m 799 26 q 789 1 806 10 q 769 -1 783 -1 l 610 -1 q 565 31 576 -1 q 560 52 564 38 q 552 78 556 67 q 543 97 549 89 q 519 115 536 108 q 506 117 507 121 l 507 107 q 500 67 507 82 q 452 19 485 33 q 383 17 419 6 q 338 53 356 26 q 324 108 321 81 l 324 118 l 313 118 q 285 103 301 117 q 272 76 278 96 q 266 56 271 71 q 258 33 261 42 q 217 -1 250 -1 l 150 -1 l 60 -1 q 40 1 46 -1 q 32 26 28 8 q 57 99 32 29 l 121 267 q 190 448 143 326 q 258 631 236 569 q 276 679 267 657 l 285 700 q 331 725 303 725 l 414 725 l 499 725 q 544 703 526 725 q 554 679 546 701 q 563 655 557 671 q 572 631 569 639 l 710 265 q 742 181 721 238 q 772 97 763 125 q 782 72 776 89 q 792 47 788 56 q 795 37 792 44 q 799 26 799 29 m 382 643 q 390 622 381 632 q 411 610 400 613 q 444 628 433 607 q 439 664 454 649 q 404 674 422 681 q 382 643 382 664 m 483 300 l 479 318 l 468 354 q 453 402 464 368 q 438 456 443 436 q 430 481 435 464 q 422 504 425 497 q 410 515 418 522 q 404 508 407 514 l 401 501 q 378 425 393 476 q 354 347 363 374 q 342 304 343 308 q 349 283 340 290 q 372 275 358 275 l 453 275 q 483 300 483 275 m 447 104 q 440 125 449 115 q 419 136 431 135 q 387 118 397 138 q 390 82 376 99 q 426 74 404 67 q 442 85 435 76 q 447 104 449 94 z "},"":{"ha":833,"x_min":106,"x_max":772,"o":"m 769 239 q 767 164 772 189 q 739 94 758 125 q 683 44 721 67 q 528 1 618 6 q 390 0 482 0 l 169 0 q 125 4 132 0 q 106 42 106 15 l 106 186 l 106 425 l 106 632 l 106 683 q 125 721 106 710 q 161 725 132 725 l 238 725 l 472 725 l 660 725 q 696 721 689 725 q 706 712 703 717 q 712 698 710 707 q 714 686 714 689 q 714 669 714 683 l 714 657 l 714 604 q 706 578 714 588 q 661 567 696 567 l 446 567 l 368 567 q 331 540 335 567 q 329 499 329 533 q 332 464 329 471 q 340 454 335 458 q 349 448 344 450 q 360 445 353 446 q 372 444 368 444 q 385 444 375 444 q 396 444 394 444 q 558 438 504 444 q 706 376 654 425 q 769 239 763 321 m 381 646 q 389 625 379 635 q 411 614 399 615 q 444 632 435 614 q 439 669 456 653 q 401 677 424 686 q 381 646 379 668 m 549 232 q 513 286 550 269 q 446 299 492 296 l 375 299 q 332 281 342 299 q 329 258 329 274 l 329 215 q 342 164 329 174 q 356 158 347 160 q 371 156 364 156 q 388 156 378 156 q 403 157 399 157 q 422 156 410 157 q 446 156 435 156 q 465 157 457 156 q 524 176 503 163 q 549 232 543 192 m 447 78 q 440 99 449 89 q 421 110 432 108 q 386 93 399 113 q 390 56 374 74 q 426 46 406 40 q 447 78 450 56 z "},"":{"ha":833,"x_min":113,"x_max":775,"o":"m 769 219 q 767 161 775 196 q 707 60 751 97 q 656 25 681 36 q 600 11 631 15 q 356 0 536 0 l 175 0 l 142 0 q 113 35 115 3 l 113 118 l 113 297 l 113 651 l 113 688 q 126 717 113 704 q 160 725 135 725 l 224 725 l 419 725 l 474 726 q 528 725 528 728 q 649 697 613 719 q 729 599 714 657 q 724 475 749 529 q 689 426 707 444 l 678 415 l 665 408 q 653 401 664 407 q 640 392 643 396 q 651 376 632 381 q 679 365 657 375 q 728 329 713 346 q 769 219 769 281 m 383 651 q 389 629 378 644 q 408 617 397 618 q 444 631 431 611 q 443 668 457 650 q 407 681 429 688 q 383 651 382 672 m 326 474 q 340 447 325 460 q 367 442 349 442 l 439 442 q 490 454 467 442 q 517 497 511 465 q 508 547 521 526 q 467 574 494 569 q 418 576 436 576 l 375 576 q 353 575 360 576 q 326 539 329 568 l 326 474 m 546 238 q 513 289 550 271 q 447 303 489 303 l 371 303 q 328 281 336 303 q 326 257 326 274 l 326 208 q 346 163 326 174 q 369 160 353 160 l 417 160 q 475 161 465 160 q 529 182 515 167 q 546 238 546 204 m 450 76 q 425 111 453 104 q 389 99 406 119 q 389 61 375 81 q 424 46 399 43 q 442 57 433 49 q 446 67 444 60 q 450 76 447 74 z "},"":{"ha":833,"x_min":210,"x_max":778,"o":"m 776 697 q 778 678 778 694 l 778 638 l 778 561 q 754 517 775 531 q 715 508 739 508 l 644 508 l 474 508 q 438 499 446 508 q 429 463 429 488 l 429 293 l 429 214 q 433 189 429 192 q 443 185 435 188 q 456 181 451 183 q 479 165 467 178 q 507 117 500 149 q 496 56 513 85 q 450 17 479 26 q 432 13 447 15 q 426 10 431 11 q 419 10 421 10 q 413 6 418 8 q 404 1 407 3 q 389 0 399 0 l 304 0 l 244 0 q 210 56 210 3 l 210 188 l 210 564 l 210 678 q 213 701 210 694 q 247 724 219 721 l 283 724 l 356 724 l 547 724 l 710 724 q 721 724 714 724 q 733 724 728 724 q 743 724 739 724 q 776 697 768 722 m 453 653 q 442 672 451 664 q 422 682 433 681 q 391 663 400 683 q 397 626 382 642 q 435 621 414 610 q 453 653 453 629 m 433 129 q 394 119 407 136 q 394 83 381 101 q 428 68 407 64 q 453 97 450 72 q 433 129 456 122 z "},"":{"ha":833,"x_min":6,"x_max":828,"o":"m 826 264 l 826 244 l 826 206 l 826 93 l 826 35 q 817 11 826 21 q 794 1 808 1 l 724 1 l 685 1 q 663 7 668 1 q 647 63 647 18 q 632 117 647 107 q 575 122 624 122 l 500 122 q 503 113 500 119 q 507 104 507 106 q 508 85 508 99 q 504 54 508 67 q 454 -1 489 15 q 378 0 415 -17 q 329 54 343 14 q 335 122 314 96 l 269 122 l 211 122 q 189 104 199 118 q 186 81 186 97 q 182 18 186 28 q 140 1 174 1 l 56 1 q 14 15 22 1 q 6 51 6 26 l 6 132 l 6 222 q 7 261 6 256 q 22 283 8 276 q 35 289 28 288 l 47 289 q 92 319 81 292 q 121 440 100 340 q 138 563 129 482 q 143 685 143 618 l 143 750 l 143 813 q 178 846 146 843 l 200 846 l 336 846 l 678 846 q 691 847 681 846 q 707 847 701 847 q 720 844 713 846 q 733 840 728 843 q 743 829 739 836 q 749 803 749 821 l 749 756 l 749 407 l 749 324 q 782 289 751 292 q 810 285 808 285 q 822 276 815 282 q 826 264 828 269 m 385 763 q 390 739 379 754 q 408 726 394 732 q 444 740 431 719 q 443 779 457 761 q 407 792 431 796 q 391 780 399 789 q 385 763 383 771 m 526 635 q 518 656 526 647 q 479 668 506 668 l 401 668 q 360 667 374 668 q 349 665 351 667 q 347 658 347 664 q 346 633 346 650 q 338 522 346 597 q 319 404 331 454 q 314 376 317 394 q 308 350 311 358 q 305 333 308 349 q 302 317 301 318 q 306 301 303 315 q 339 289 313 289 l 413 289 l 483 289 q 517 299 507 289 q 526 329 526 308 l 526 376 l 526 635 m 450 81 q 443 104 453 92 q 425 115 433 114 q 389 101 403 121 q 390 63 375 81 q 426 51 407 43 q 443 63 436 56 q 447 72 447 67 q 448 76 447 74 q 450 81 449 79 z "},"":{"ha":833,"x_min":129,"x_max":733,"o":"m 731 158 q 732 126 732 157 l 732 56 q 733 44 732 53 q 733 28 733 35 q 732 15 733 22 q 726 5 731 8 q 715 0 722 1 l 658 0 l 382 0 l 158 0 q 129 18 131 0 q 129 33 129 25 q 129 51 129 42 q 129 67 129 61 l 129 322 l 129 604 l 129 686 q 147 717 129 717 l 319 717 l 610 717 l 694 717 l 708 717 q 722 696 722 715 l 722 576 q 707 553 722 561 q 688 551 704 551 l 422 551 l 376 551 q 357 550 358 551 q 349 519 349 546 q 350 465 349 475 q 355 456 351 460 q 365 451 358 453 q 376 449 371 450 q 389 449 381 449 q 400 450 397 450 l 536 450 l 661 450 l 681 450 q 696 428 696 446 l 696 364 l 696 319 q 691 309 694 313 q 681 304 688 306 q 670 303 675 303 q 657 303 665 303 q 646 304 649 304 l 385 304 l 365 304 q 350 282 350 300 l 350 217 l 350 190 q 353 179 350 188 q 372 169 358 169 l 407 169 l 542 169 l 678 169 q 686 169 681 169 q 697 170 692 169 q 708 170 701 171 q 718 169 714 169 q 726 165 722 168 q 731 158 729 163 m 386 638 q 413 607 385 615 q 444 624 433 603 q 439 660 454 644 q 405 666 425 674 q 386 638 385 658 m 449 75 q 441 94 450 86 q 421 106 432 103 q 389 89 400 108 q 394 53 381 69 q 428 44 410 38 q 443 56 436 47 q 449 75 450 65 z "},"":{"ha":833,"x_min":8,"x_max":831,"o":"m 825 54 q 813 8 831 21 q 761 1 801 1 l 682 1 q 643 28 654 4 q 633 60 638 38 q 626 85 628 82 q 616 123 624 96 q 604 165 608 150 q 596 187 603 171 q 586 213 589 203 q 560 257 575 244 q 546 267 551 265 q 528 250 535 269 q 525 206 525 240 l 525 42 q 510 4 525 14 q 457 1 504 1 l 365 1 q 322 10 329 1 q 314 51 314 18 l 314 135 l 314 219 q 307 260 314 250 q 275 253 293 279 q 250 204 257 226 q 244 190 249 199 q 238 173 240 181 q 233 158 235 165 q 210 74 217 103 q 192 22 193 25 q 151 1 178 1 l 65 1 q 19 15 31 1 q 15 68 8 26 q 29 128 26 121 q 57 190 32 136 q 69 218 61 200 q 79 244 76 236 q 90 269 81 249 q 104 300 99 289 q 133 349 124 339 q 140 356 136 351 q 147 363 143 360 q 153 368 150 365 q 163 376 154 369 q 174 386 171 382 q 175 399 176 396 q 164 412 174 403 q 153 424 154 421 q 124 465 128 456 q 115 491 121 472 q 104 519 108 510 q 71 567 92 546 q 47 576 61 576 q 26 583 29 579 q 24 600 24 588 l 24 638 l 24 704 q 38 725 26 718 q 67 729 43 729 q 128 724 117 726 q 215 647 179 714 q 231 612 224 631 q 245 569 238 593 q 257 532 253 544 q 279 482 268 497 q 308 481 299 457 q 314 522 314 490 l 314 614 l 314 686 q 331 722 314 715 q 383 725 336 725 l 475 725 q 517 717 510 725 q 525 674 525 707 l 525 508 q 536 471 525 476 q 565 493 550 463 q 581 527 574 508 q 594 572 588 546 q 606 608 601 597 q 672 706 628 675 q 724 726 699 725 l 782 731 q 806 721 797 731 q 815 697 815 711 l 815 622 q 808 579 815 585 q 801 577 806 578 q 792 576 797 576 q 785 575 788 575 q 764 563 772 574 q 744 540 750 549 q 731 513 739 532 q 722 487 726 504 q 713 461 717 469 q 681 418 703 443 q 664 400 665 403 q 671 379 660 390 q 711 342 699 360 q 740 289 726 318 q 788 179 778 200 q 825 54 825 96 m 453 651 q 444 672 454 663 q 424 683 435 681 q 390 668 407 688 q 394 629 379 650 q 431 619 407 608 q 453 651 456 629 m 453 82 q 444 103 454 93 q 424 114 435 113 q 390 96 400 114 q 394 58 378 75 q 432 50 410 42 q 447 63 440 53 q 453 82 454 72 z "},"":{"ha":833,"x_min":90,"x_max":715,"o":"m 711 272 q 708 192 715 228 q 615 56 688 103 q 453 1 539 8 q 278 15 343 -4 q 139 110 186 40 q 99 189 113 146 q 100 225 90 215 q 125 235 106 232 l 240 243 q 268 244 257 246 q 300 226 282 244 q 324 196 322 197 q 357 176 329 190 q 438 178 400 164 q 489 235 481 192 q 490 271 492 258 q 468 300 488 283 q 399 331 438 326 q 363 332 388 332 q 328 340 336 332 q 318 374 318 350 l 318 418 q 342 443 324 442 q 363 443 349 444 q 383 443 376 442 q 447 483 431 451 q 450 560 468 531 q 376 586 431 589 q 310 553 328 583 q 254 522 285 519 q 140 536 221 528 q 114 544 121 539 q 107 576 99 557 q 153 651 128 624 q 217 706 179 685 q 299 738 243 722 q 386 747 331 747 q 468 742 431 750 q 622 676 571 726 q 668 604 654 647 q 672 524 679 569 q 640 449 668 481 q 610 421 632 438 q 601 407 601 413 q 611 396 601 399 q 627 388 614 394 q 647 376 640 382 q 679 347 667 361 q 711 272 701 319 m 451 660 q 442 681 453 671 q 421 692 432 690 q 388 674 399 694 q 393 638 378 653 q 431 629 410 618 q 451 660 451 636 m 451 89 q 443 110 453 100 q 422 122 433 119 q 389 106 404 126 q 392 68 376 89 q 429 57 406 50 q 445 70 438 60 q 451 89 453 81 z "},"":{"ha":833,"x_min":72,"x_max":763,"o":"m 761 697 q 763 683 763 694 l 763 514 l 763 242 l 763 49 q 753 10 763 19 q 725 1 744 1 l 672 1 l 608 1 l 578 1 q 562 12 569 3 q 553 29 554 21 l 553 49 l 553 289 l 553 351 q 544 361 550 361 q 533 351 540 361 l 514 319 q 483 268 503 301 q 451 217 463 235 q 447 200 444 204 q 461 189 449 194 q 475 182 474 183 q 510 108 510 151 q 471 33 510 57 q 406 18 439 14 q 368 32 388 19 q 349 47 350 46 q 318 10 331 17 q 295 2 308 4 q 273 0 282 0 q 247 1 264 0 q 225 1 231 1 l 106 1 q 72 28 76 1 q 72 32 72 29 q 72 38 72 35 q 72 43 72 42 l 72 129 l 72 438 l 72 675 l 72 689 q 94 721 72 713 q 135 724 103 724 l 213 724 q 254 722 247 724 q 283 689 279 718 q 285 661 285 676 q 284 628 285 646 q 283 600 283 610 l 283 442 l 283 389 q 285 363 283 364 q 294 361 289 356 q 304 375 299 367 l 338 429 q 356 459 342 436 q 378 494 369 482 q 385 506 379 496 q 393 522 392 517 q 388 531 393 528 q 376 538 383 535 q 367 543 369 540 q 336 578 344 561 q 327 627 325 599 q 346 675 329 656 q 418 711 374 708 q 490 679 458 714 q 508 706 503 701 q 536 721 522 717 q 579 724 542 724 l 668 724 l 729 724 q 747 717 742 721 q 761 697 763 707 m 451 615 q 428 650 454 640 q 393 639 407 658 q 392 600 381 619 q 424 588 403 582 q 451 615 444 592 m 447 125 q 440 132 446 126 q 429 140 433 138 q 410 140 419 143 q 387 109 388 133 q 408 78 386 85 q 443 88 428 71 q 447 125 456 101 z "},"":{"ha":833,"x_min":69,"x_max":758,"o":"m 581 721 l 732 721 q 750 713 742 721 q 758 694 758 706 l 758 26 q 750 8 758 17 q 732 0 742 0 l 576 0 q 557 8 565 0 q 549 26 549 15 l 549 382 q 544 395 549 393 q 533 388 539 397 l 404 150 q 407 140 404 140 l 414 140 q 461 125 439 143 q 474 111 469 117 q 484 61 489 89 q 457 17 479 33 q 382 13 422 -11 q 360 33 368 21 q 354 40 356 38 l 346 43 l 335 22 q 293 0 319 0 l 96 0 q 77 8 85 0 q 69 26 69 15 l 69 694 q 77 713 69 706 q 96 721 85 721 l 251 721 q 271 713 263 721 q 279 694 279 706 l 279 336 q 284 323 279 325 q 294 331 289 321 l 481 653 q 481 661 483 657 q 474 663 478 665 q 419 656 446 656 q 297 696 350 656 q 250 763 250 735 q 263 791 250 778 q 293 804 275 804 q 344 772 319 804 l 350 767 q 357 768 353 764 q 440 800 386 818 q 478 767 467 792 q 482 763 479 764 q 486 765 485 763 q 493 772 490 768 q 546 804 518 804 q 577 786 565 804 q 582 749 589 768 q 578 740 581 746 q 575 731 576 733 q 581 721 568 721 m 392 738 q 414 710 389 713 q 442 732 439 707 q 437 750 443 742 q 421 760 431 758 q 392 738 397 763 m 432 92 q 414 97 425 99 q 397 88 403 96 q 392 70 392 81 q 400 53 393 60 q 435 56 419 38 q 432 92 451 75 z "},"":{"ha":833,"x_min":118,"x_max":801,"o":"m 797 24 q 796 9 801 15 q 781 1 790 3 l 760 1 l 653 1 l 604 1 l 583 1 q 550 18 563 6 q 535 44 544 24 l 522 71 q 519 78 521 74 q 517 85 518 82 q 514 92 515 89 q 507 96 511 96 q 506 86 506 94 q 478 29 506 54 q 418 1 451 4 q 364 17 388 1 q 349 29 358 19 q 339 24 343 35 q 290 1 332 1 l 182 1 q 126 13 136 1 q 118 47 118 24 l 118 197 l 118 432 l 118 633 l 118 685 q 133 719 118 710 q 157 725 142 725 l 201 725 l 301 725 q 324 721 317 725 q 336 710 333 715 q 338 701 338 707 q 340 694 339 696 q 349 693 342 692 q 357 694 356 693 l 369 707 q 400 722 379 717 q 468 711 438 732 q 490 682 481 703 q 492 676 490 681 q 494 670 493 672 q 497 665 494 668 q 501 662 499 661 q 507 664 503 663 q 519 678 511 668 q 535 694 524 683 q 560 715 547 708 q 618 725 575 725 l 726 725 q 734 725 728 725 q 743 725 740 725 q 751 725 746 725 q 760 724 757 725 q 767 720 764 722 q 772 715 771 718 q 774 706 774 711 q 747 663 772 697 q 686 576 719 621 l 624 489 q 614 476 621 485 q 602 460 607 468 q 596 447 597 453 q 596 414 590 429 q 599 407 597 411 q 601 401 600 403 q 617 372 607 392 q 633 342 628 351 q 739 139 685 242 q 781 58 767 86 l 797 24 m 385 646 q 394 626 383 635 q 415 617 404 617 q 446 637 438 617 q 439 672 454 657 q 403 679 425 688 q 385 646 385 669 m 336 483 q 340 458 336 467 q 351 455 344 450 q 363 465 358 460 q 396 510 385 496 l 414 538 q 418 558 429 553 q 411 560 417 560 q 404 561 406 561 q 396 563 401 561 q 388 564 390 564 q 358 576 374 565 q 339 571 339 588 l 339 539 q 338 511 339 529 q 336 483 338 493 m 475 179 q 468 199 475 185 l 451 240 q 442 262 450 242 q 426 292 433 282 q 406 299 417 303 q 390 286 403 297 q 351 242 360 256 q 342 197 342 225 l 342 175 q 346 163 342 164 q 361 169 350 163 q 383 181 372 176 q 429 185 411 188 q 456 175 443 183 q 461 174 457 175 q 475 179 474 168 m 446 94 q 438 115 447 104 q 418 126 429 125 q 386 110 393 126 q 389 72 375 90 q 425 64 404 54 q 446 94 449 72 z "},"":{"ha":833,"x_min":54,"x_max":785,"o":"m 781 24 q 779 8 785 17 q 757 0 775 0 l 711 0 l 592 0 q 540 24 551 0 q 531 50 536 32 q 524 72 525 68 q 483 198 510 117 q 447 304 456 279 q 426 369 429 363 q 411 378 419 385 q 403 358 406 374 q 343 172 375 276 q 351 170 346 172 q 361 168 357 168 q 376 175 369 169 q 404 183 389 182 q 453 179 432 189 q 496 140 482 165 q 510 83 511 114 q 483 28 506 51 q 428 1 460 4 q 342 42 376 -4 q 325 64 329 61 q 314 71 317 72 l 311 68 q 302 43 307 63 q 292 17 297 24 q 251 0 276 0 l 171 0 l 88 0 q 54 15 54 0 q 57 28 54 19 l 60 36 q 74 76 67 54 q 131 240 93 131 q 189 403 169 349 q 237 543 204 450 q 286 682 269 636 q 290 691 288 685 q 293 700 292 697 q 332 719 303 719 l 492 719 l 507 719 q 532 706 519 718 q 543 686 539 699 q 579 585 558 640 q 637 424 592 549 q 706 232 682 300 q 758 85 736 151 l 775 40 q 777 35 775 39 q 780 29 779 32 q 781 24 781 26 m 451 635 q 441 653 453 646 q 418 661 429 661 q 387 639 394 661 q 397 601 379 617 q 436 600 421 589 q 451 635 451 613 m 386 93 q 394 73 385 83 q 413 61 403 63 q 447 78 436 58 q 442 114 457 97 q 406 123 428 131 q 386 93 385 115 z "},"":{"ha":833,"x_min":31,"x_max":800,"o":"m 799 697 q 800 683 800 694 l 800 651 l 800 382 l 800 96 l 800 38 q 786 8 797 15 q 749 1 776 1 l 674 1 q 632 3 636 1 q 622 7 626 4 q 615 15 618 10 q 611 23 613 19 q 609 33 610 26 q 608 43 608 40 q 608 54 608 46 q 608 64 608 63 l 608 333 q 601 354 608 350 q 585 343 597 356 l 582 338 q 577 326 579 332 q 573 311 575 319 q 569 299 571 303 q 547 228 561 275 q 507 103 519 144 q 502 88 506 99 q 496 71 499 76 q 463 35 485 47 q 369 35 414 11 q 328 89 338 50 q 310 144 322 107 q 292 201 297 182 q 249 335 276 246 q 247 341 249 336 q 245 348 246 346 q 242 353 244 350 q 236 356 239 356 q 224 351 228 357 q 221 338 221 346 l 221 222 l 221 74 q 222 58 221 71 q 222 38 222 44 q 218 23 221 32 q 208 8 215 14 q 171 1 199 1 l 94 1 q 51 3 56 1 q 31 36 31 8 l 31 210 l 31 522 l 31 693 q 53 726 31 721 q 88 728 58 728 l 231 728 q 263 725 256 728 q 290 693 281 718 q 295 676 292 688 q 300 660 299 665 q 303 651 301 657 q 307 643 306 646 q 324 642 315 635 q 329 651 326 644 q 333 661 332 658 q 367 697 344 682 q 415 711 390 713 q 494 664 471 708 q 497 658 496 663 q 500 650 499 653 q 504 644 501 647 q 510 639 507 640 q 515 639 513 638 q 524 653 519 640 q 530 672 526 660 q 535 688 533 683 q 558 721 543 711 q 592 728 568 728 l 735 728 l 769 728 q 790 717 781 726 q 799 697 800 708 m 382 615 q 392 596 381 604 q 413 588 403 588 q 444 608 435 588 q 438 643 454 628 q 400 649 421 656 q 382 615 382 639 m 490 550 q 474 549 489 564 q 442 531 454 535 q 376 535 413 519 q 349 554 367 539 q 336 551 336 564 q 338 547 336 550 q 340 541 339 544 q 342 536 342 538 q 347 519 343 531 q 353 501 351 507 q 370 450 358 483 q 391 390 382 417 q 407 339 400 363 q 415 322 413 322 q 424 339 418 324 q 431 360 428 349 q 438 385 435 371 q 444 406 442 399 q 466 473 450 421 q 490 550 482 525 m 449 107 q 439 127 450 118 q 415 138 428 136 q 383 115 393 138 q 393 79 376 93 q 431 74 410 63 q 449 107 449 83 z "},"":{"ha":833,"x_min":75,"x_max":769,"o":"m 763 718 q 769 685 769 708 l 769 625 l 769 415 l 769 182 l 769 44 q 753 10 769 19 q 729 6 746 6 l 685 6 l 583 6 q 561 10 568 6 q 544 38 546 22 q 543 103 543 49 l 543 219 l 543 257 l 543 276 q 497 300 533 300 l 389 300 q 322 297 338 300 q 299 243 299 292 l 299 153 q 332 156 325 153 q 356 174 335 157 l 368 182 q 401 194 379 189 q 488 158 456 204 q 503 97 507 132 q 475 40 500 63 q 375 25 429 -1 q 360 35 369 28 q 347 44 350 43 q 329 53 336 53 q 320 53 325 53 q 309 53 315 53 q 299 53 303 53 q 290 17 299 25 q 261 6 281 6 l 211 6 l 108 6 q 84 17 93 6 q 75 44 75 29 l 75 107 l 75 363 l 75 619 l 75 689 q 100 729 75 721 q 132 731 104 731 l 199 731 l 257 731 q 283 725 274 731 q 299 692 299 717 l 299 678 l 310 678 q 328 681 321 678 q 357 699 339 683 q 383 714 365 707 q 443 715 410 724 q 478 693 463 710 q 500 657 494 676 q 482 572 515 606 q 444 546 465 556 q 410 542 432 542 q 356 563 381 542 q 338 578 342 576 q 299 579 332 579 l 299 531 q 303 496 299 504 q 356 478 313 478 l 460 478 l 501 478 q 522 479 519 478 q 543 500 538 485 l 543 521 l 543 618 q 542 642 543 626 q 542 672 542 658 q 543 696 542 685 q 579 731 549 731 l 736 731 q 763 718 754 733 m 408 664 q 381 635 390 660 q 404 599 381 603 q 440 610 426 594 q 443 647 457 629 q 408 664 429 668 m 408 139 q 381 110 390 135 q 404 74 381 81 q 441 85 426 67 q 443 124 456 104 q 408 139 428 143 z "},"":{"ha":833,"x_min":31,"x_max":790,"o":"m 789 428 q 790 371 790 410 q 732 144 790 235 q 551 17 668 46 q 436 0 488 0 q 321 8 365 0 q 264 22 282 17 q 210 44 249 26 q 119 118 165 64 q 63 219 83 161 q 40 335 46 264 q 81 572 31 476 q 151 664 108 625 q 254 725 190 699 q 492 744 354 764 q 699 646 629 725 q 721 622 714 631 q 728 611 722 619 q 736 599 733 603 q 764 543 753 574 q 779 488 775 507 q 789 428 782 476 m 379 660 q 386 640 378 649 q 406 628 394 631 q 440 643 428 624 q 444 661 447 651 q 439 679 444 672 q 422 693 433 689 q 401 693 411 696 q 379 660 375 683 m 567 383 q 566 398 567 389 q 565 411 565 407 q 536 519 565 468 q 442 578 507 571 q 333 558 376 588 q 272 465 289 529 q 264 351 260 417 q 289 239 269 274 q 375 172 318 183 q 488 183 439 160 q 553 269 533 207 q 567 383 560 289 m 444 89 q 438 110 446 101 q 417 122 429 119 q 383 105 394 126 q 388 67 372 83 q 422 57 400 50 q 439 69 432 60 q 444 89 446 79 z "},"":{"ha":833,"x_min":69,"x_max":761,"o":"m 760 697 q 761 681 761 694 l 761 651 l 761 381 l 761 92 l 761 33 q 744 6 758 13 q 710 0 736 0 l 575 0 q 548 11 558 0 q 538 39 538 22 l 538 290 l 538 439 l 538 511 q 518 543 538 535 q 483 546 511 546 l 339 546 q 307 539 317 546 q 293 510 293 532 l 293 411 l 293 251 l 293 183 l 293 146 q 294 142 293 142 l 313 142 l 321 142 q 361 167 331 143 q 442 181 399 194 q 504 114 490 165 q 501 63 510 89 q 475 24 494 40 q 385 6 439 -14 q 360 18 372 10 q 351 26 358 19 q 339 36 344 33 q 325 38 335 38 l 296 38 q 293 32 293 36 q 292 26 293 31 q 290 21 292 22 q 275 4 282 8 q 240 0 268 0 l 167 0 l 107 0 q 75 15 85 0 q 69 64 69 24 l 69 328 l 69 621 l 69 688 q 80 713 69 703 q 106 722 90 722 l 310 722 l 621 722 l 714 722 l 728 722 q 747 715 738 722 q 760 697 750 713 m 447 643 q 438 663 449 654 q 417 672 428 671 q 386 652 394 674 q 394 615 378 631 q 432 611 411 599 q 447 643 447 619 m 382 90 q 391 71 382 81 q 411 60 400 61 q 443 78 432 58 q 438 114 454 97 q 401 121 422 129 q 382 90 381 113 z "},"":{"ha":833,"x_min":146,"x_max":764,"o":"m 763 517 q 760 450 764 486 q 738 385 751 414 q 656 301 713 331 q 533 269 599 272 q 469 269 511 269 q 407 268 428 269 q 383 258 393 268 q 374 235 374 249 l 374 168 q 378 171 375 168 q 383 174 382 174 q 394 178 383 175 q 417 183 408 183 q 450 179 428 185 q 508 126 492 171 q 500 39 529 81 q 431 -1 475 3 q 369 17 406 -3 q 358 6 365 10 q 343 0 353 0 q 260 -1 333 -1 l 179 -1 q 160 6 168 0 q 150 22 153 11 q 147 40 147 33 q 147 63 146 46 q 147 81 147 79 l 147 283 l 147 526 l 147 682 q 160 718 147 708 q 207 724 169 724 l 429 724 q 572 722 561 724 q 646 703 615 715 q 711 658 681 689 q 763 517 763 611 m 389 647 q 397 627 388 636 q 418 615 406 618 q 451 633 442 613 q 446 671 461 654 q 410 678 432 688 q 389 647 388 669 m 544 501 q 519 557 547 538 q 461 576 497 574 q 436 578 461 578 l 411 576 q 386 571 393 576 q 374 550 375 563 l 374 483 q 378 431 374 438 q 399 415 389 417 l 428 415 q 485 422 463 415 q 531 450 519 433 q 544 501 544 471 m 392 94 q 397 72 389 89 q 417 61 404 64 q 450 72 438 57 q 451 110 464 89 q 417 124 439 126 q 399 113 407 121 q 392 94 390 104 z "},"":{"ha":833,"x_min":42,"x_max":744,"o":"m 740 238 q 733 201 744 229 q 719 165 731 192 q 613 46 676 83 q 535 14 578 25 q 451 1 507 7 q 367 3 422 0 q 285 15 324 6 q 203 47 240 26 q 140 100 174 65 q 89 171 111 132 q 60 247 78 189 q 44 332 50 272 q 44 419 42 375 q 90 589 49 506 q 208 707 125 660 q 376 750 278 746 q 547 733 469 757 q 683 639 631 708 q 726 568 703 614 q 728 532 736 544 q 704 518 721 521 l 593 493 q 535 507 546 483 q 493 560 519 539 q 458 576 478 571 q 421 583 444 581 q 340 564 379 588 q 310 536 321 551 q 288 500 300 525 q 269 418 275 475 q 269 332 265 375 q 333 189 279 218 q 371 174 358 175 q 413 169 392 169 q 489 192 453 169 q 535 254 517 210 q 541 270 536 257 q 550 289 546 283 q 585 301 560 307 l 681 272 q 692 270 683 272 q 704 267 700 268 q 715 263 708 265 q 726 256 722 260 q 735 248 731 253 q 740 238 739 243 m 393 657 q 403 638 392 646 q 426 629 415 629 q 457 652 450 631 q 446 689 464 674 q 408 690 428 703 q 393 657 393 683 m 460 92 q 451 112 461 103 q 429 124 442 121 q 396 105 407 126 q 401 67 385 83 q 439 60 417 51 q 460 92 461 68 z "},"":{"ha":833,"x_min":74,"x_max":754,"o":"m 754 700 l 754 679 l 754 635 l 754 572 q 717 546 749 546 l 561 546 q 525 517 529 546 l 525 490 l 525 335 l 525 33 q 494 0 525 3 l 433 0 l 344 0 q 306 17 317 0 q 301 47 301 24 l 301 104 l 301 290 l 301 467 q 302 483 301 471 q 302 501 303 494 q 300 517 301 507 q 294 533 299 526 q 283 543 290 539 q 232 546 278 546 l 135 546 q 89 553 100 546 q 74 596 74 561 l 74 685 q 96 724 74 714 q 121 725 100 725 l 172 725 l 543 725 l 692 725 l 719 725 q 736 721 728 725 q 747 713 743 718 l 754 700 m 447 650 q 439 672 449 663 q 417 682 429 681 q 384 664 394 685 q 389 626 374 643 q 426 619 404 610 q 447 650 449 628 m 447 89 q 439 111 449 97 q 418 121 429 119 q 384 103 394 125 q 389 65 374 82 q 426 58 403 49 q 447 89 449 67 z "},"":{"ha":833,"x_min":89,"x_max":742,"o":"m 736 724 q 735 699 742 715 q 688 569 718 653 q 649 460 657 485 q 554 194 593 307 q 544 167 553 192 q 533 138 535 143 q 522 112 531 132 q 507 83 513 92 q 492 60 501 74 q 471 36 482 46 q 368 1 435 4 l 264 1 q 213 4 246 1 q 196 6 207 6 q 176 8 185 6 q 161 14 167 10 q 144 50 144 25 l 144 122 q 164 157 144 150 q 210 156 172 160 q 226 154 217 154 q 245 155 235 154 q 261 156 256 156 q 313 168 292 156 q 336 203 332 179 q 329 244 340 226 q 308 288 322 260 q 290 321 293 317 q 142 611 267 368 q 97 700 121 656 q 92 724 89 714 q 125 736 97 736 l 274 736 q 308 732 297 736 q 338 688 329 722 q 344 696 340 690 q 351 704 349 701 l 368 717 q 460 721 417 747 q 492 694 481 710 q 497 683 494 690 q 501 674 500 676 q 506 687 503 676 q 510 703 508 697 q 517 715 513 708 q 526 725 521 722 q 563 736 546 736 l 632 736 l 704 736 q 736 724 729 736 m 383 639 q 392 619 382 628 q 411 607 401 610 q 444 625 433 604 q 440 661 456 646 q 403 669 425 678 q 383 639 382 661 m 433 451 q 465 556 456 521 l 444 551 q 422 549 428 549 q 400 549 411 546 q 391 551 397 549 q 381 554 385 554 q 407 469 400 489 q 415 444 410 451 q 433 451 424 433 m 449 82 q 439 104 450 93 q 421 113 432 111 q 388 98 399 118 q 392 61 378 78 q 426 50 404 43 q 449 82 453 63 z "},"":{"ha":833,"x_min":14,"x_max":813,"o":"m 808 436 q 813 374 813 406 q 800 257 813 307 q 735 150 781 192 q 625 94 699 115 q 565 81 603 88 q 522 54 532 75 q 520 40 521 50 q 519 28 519 31 q 506 7 514 13 q 485 0 494 0 l 458 0 l 371 0 q 329 8 339 0 q 318 29 321 15 q 317 43 317 33 q 315 57 317 53 q 268 83 308 75 q 149 118 206 94 q 63 197 94 143 q 28 314 32 250 q 68 554 14 475 q 161 629 104 603 q 283 664 221 656 q 317 694 313 669 q 351 722 319 722 l 486 722 q 519 697 515 722 q 531 674 522 682 q 554 664 540 665 q 671 631 618 656 q 769 551 735 604 q 797 494 789 521 q 808 436 803 478 m 451 651 q 442 672 454 660 q 422 679 432 679 q 389 660 399 681 q 396 622 379 639 q 433 617 413 607 q 451 651 451 625 m 632 375 q 574 499 629 453 q 522 506 533 531 q 521 461 521 503 l 521 276 q 529 239 521 244 q 583 261 546 228 q 618 311 608 283 q 628 342 626 331 q 630 358 629 347 q 632 375 631 369 m 317 494 q 310 508 318 503 q 294 514 303 514 q 267 499 283 513 q 224 446 240 476 q 211 328 194 394 q 240 275 218 301 q 264 253 253 261 q 292 236 282 238 q 315 249 310 232 q 317 265 317 254 l 317 344 l 317 494 m 451 81 q 442 101 453 92 q 419 110 431 110 q 388 89 396 111 q 397 51 381 67 q 433 46 417 38 q 451 81 451 56 z "},"":{"ha":833,"x_min":24,"x_max":801,"o":"m 796 22 q 794 8 801 14 q 776 1 786 1 l 756 1 l 592 1 q 540 29 558 1 q 528 50 535 39 q 515 75 522 61 q 503 96 507 89 q 486 58 503 85 q 442 29 471 38 q 390 29 414 21 q 349 56 369 35 q 329 100 335 69 q 311 69 314 74 l 290 31 q 269 11 282 18 q 218 1 254 1 l 114 1 l 50 1 q 44 36 24 4 l 82 90 q 204 268 124 149 q 250 333 235 313 q 268 369 265 357 q 258 413 274 392 q 219 469 251 424 q 97 646 156 564 l 64 696 q 58 711 58 707 q 78 726 60 724 q 117 728 78 728 l 157 726 l 242 726 q 293 701 275 726 q 332 635 299 693 q 336 647 335 644 q 353 669 338 651 q 443 692 386 707 q 481 667 464 685 q 501 629 497 650 q 514 649 510 643 q 522 665 515 651 q 531 683 529 678 q 540 698 533 688 q 553 713 547 708 q 567 721 558 717 q 586 726 576 725 q 599 726 592 726 q 616 726 607 726 q 629 726 625 726 l 714 726 l 757 726 q 773 716 769 725 q 771 697 776 707 q 713 613 767 690 q 660 535 694 585 q 619 474 626 485 q 600 444 613 463 q 585 422 588 426 q 571 403 582 418 q 568 354 557 375 q 582 333 572 347 q 620 278 594 314 q 658 222 646 242 l 751 88 q 796 22 792 29 m 449 614 q 439 633 449 625 q 419 643 429 642 q 388 624 397 646 q 393 588 378 603 q 431 581 408 569 q 449 614 449 590 m 449 114 q 440 133 450 125 q 419 143 431 142 q 387 126 397 146 q 392 89 376 106 q 428 82 408 72 q 449 114 449 90 z "},"":{"ha":833,"x_min":86,"x_max":831,"o":"m 829 261 q 831 226 831 258 l 831 153 l 831 71 l 831 35 q 823 15 829 22 q 805 4 817 7 q 785 1 793 1 q 760 1 776 0 q 740 1 744 1 q 720 1 736 1 q 697 1 704 0 q 677 4 689 1 q 659 14 665 7 q 651 33 653 21 q 650 88 650 42 q 642 110 650 100 q 621 122 633 121 l 550 122 l 400 122 l 128 122 q 98 133 110 122 q 86 160 86 143 l 86 235 l 86 557 l 86 801 q 89 822 86 815 q 124 846 97 846 q 144 846 133 846 q 168 846 154 846 q 189 846 182 846 l 254 846 q 289 825 278 843 q 290 800 290 822 l 290 686 l 290 372 l 290 339 q 311 311 292 324 q 349 300 324 300 l 415 300 l 493 300 q 531 306 522 300 q 541 316 538 310 q 546 331 544 322 q 548 344 547 339 q 548 361 549 350 q 547 376 547 372 l 547 679 l 547 704 l 531 704 l 521 704 q 499 693 511 703 q 457 667 464 669 q 411 664 428 658 q 340 725 354 676 q 368 824 324 786 q 463 839 407 858 q 486 825 476 833 q 508 810 500 811 q 526 808 511 808 l 546 808 q 547 815 547 808 q 581 846 551 843 q 598 847 589 847 q 617 847 607 847 q 633 846 628 846 l 708 846 q 744 833 733 846 q 753 804 753 824 l 753 696 l 753 385 l 753 354 q 756 314 753 319 q 771 294 760 301 q 794 289 781 289 q 815 282 807 289 q 829 261 831 271 m 461 754 q 453 775 463 765 q 432 786 443 785 q 399 768 410 789 q 406 732 389 747 q 439 724 418 717 q 461 754 464 733 m 461 203 q 453 224 463 215 q 432 236 444 233 q 399 219 410 240 q 403 181 389 197 q 440 172 417 164 q 461 203 463 181 z "},"":{"ha":833,"x_min":24,"x_max":679,"o":"m 678 706 l 679 704 l 679 688 l 679 657 l 679 560 l 679 296 l 679 86 q 679 75 679 83 q 679 62 679 67 q 679 49 679 57 q 678 37 679 42 q 675 25 676 32 q 670 15 674 18 q 663 7 667 11 q 653 1 660 3 q 640 0 647 0 l 528 0 l 492 0 q 463 14 467 0 q 443 4 456 7 q 421 0 433 0 q 349 29 374 -3 q 325 74 332 49 q 329 125 321 101 q 401 183 343 171 q 446 178 426 186 l 453 175 q 456 178 454 175 l 456 194 l 456 211 q 451 229 456 224 q 431 235 447 235 q 405 232 422 235 q 382 229 388 229 q 350 229 367 229 q 313 229 333 229 q 282 229 293 229 q 266 230 275 229 q 246 232 257 231 q 229 233 235 233 q 181 243 200 236 q 94 296 138 257 q 24 475 24 358 l 24 593 l 24 664 q 25 694 24 690 q 33 712 28 706 q 49 720 39 718 q 67 723 60 722 q 88 723 74 724 q 106 722 101 722 l 181 722 q 215 717 207 722 q 231 683 231 707 l 231 628 l 231 514 q 239 467 231 497 q 264 429 250 440 q 356 410 299 406 q 382 415 375 413 q 406 422 393 417 q 443 450 433 435 q 456 549 456 472 q 435 542 453 546 q 414 539 421 539 q 383 544 394 539 q 328 603 340 563 q 339 685 315 653 q 408 722 367 721 q 446 718 421 724 q 463 708 463 713 q 478 719 471 717 q 493 722 483 722 l 608 722 q 622 723 611 722 q 639 723 633 724 q 653 721 644 722 q 668 716 663 719 q 678 706 674 713 m 447 632 q 439 653 450 642 q 419 663 432 660 q 387 645 399 665 q 390 610 375 625 q 427 602 406 594 q 447 632 449 610 m 447 92 q 440 113 449 104 q 418 124 431 122 q 386 106 396 126 q 392 69 376 85 q 426 61 407 54 q 442 73 435 64 q 447 92 449 82 z "},"":{"ha":833,"x_min":29,"x_max":806,"o":"m 804 75 q 805 61 804 72 q 806 43 806 50 q 803 27 806 36 q 797 14 801 18 q 739 1 786 1 l 438 1 l 117 1 l 60 1 q 29 57 29 7 l 29 351 l 29 660 l 29 686 q 46 718 31 706 q 93 724 53 724 l 175 724 q 214 704 206 724 q 218 676 218 694 l 218 551 l 218 232 q 218 225 218 229 q 218 217 218 221 q 218 210 218 213 q 254 179 222 179 q 306 193 293 176 q 314 222 314 203 l 314 526 l 314 665 q 344 724 314 722 l 479 724 q 496 721 489 724 q 514 704 507 718 q 518 678 518 697 l 518 369 l 518 233 q 519 210 518 218 q 554 179 524 182 q 608 190 596 176 q 617 221 617 200 l 617 338 l 617 663 l 617 688 q 644 724 619 719 q 663 725 653 725 q 685 724 674 725 q 704 724 697 724 l 769 724 q 792 715 782 725 q 804 693 803 706 l 804 675 l 804 394 l 804 75 m 425 604 q 451 633 442 608 q 426 669 451 665 q 390 657 404 675 q 389 619 376 639 q 425 604 404 600 m 425 49 q 451 76 442 53 q 426 114 451 108 q 391 100 406 118 q 389 64 376 82 q 425 49 401 42 z "},"":{"ha":833,"x_min":14,"x_max":868,"o":"m 868 254 l 868 207 l 868 42 q 847 3 868 14 q 826 1 844 1 l 785 1 l 719 1 q 689 42 689 6 q 690 63 689 47 q 689 90 690 79 q 682 108 688 101 q 631 122 672 122 l 364 122 l 57 122 q 26 132 36 122 q 15 163 15 146 l 15 265 l 15 644 l 15 783 q 15 789 15 785 q 40 843 15 835 q 61 844 44 844 l 104 844 l 171 844 q 194 832 186 843 q 203 811 203 821 q 204 783 204 801 q 204 781 204 782 q 204 778 204 779 l 204 424 l 204 333 q 215 310 204 319 q 240 300 225 300 q 294 317 285 300 q 300 347 300 326 l 300 403 l 300 585 l 300 761 l 300 806 q 314 838 300 825 q 364 844 322 844 l 454 844 q 497 831 489 844 q 504 800 504 821 l 504 468 l 504 340 q 517 310 504 325 q 542 300 526 300 q 551 300 544 300 q 563 300 557 300 q 572 300 568 300 q 603 336 603 304 q 603 346 603 340 q 603 358 603 351 q 603 367 603 364 l 603 532 l 603 721 l 603 811 q 615 835 604 825 q 639 844 625 844 l 715 844 q 772 842 765 844 q 790 807 790 832 l 790 490 l 790 358 q 792 319 790 332 q 806 297 793 306 q 833 289 818 288 q 857 279 847 290 q 868 254 867 268 m 447 744 q 449 749 447 746 q 450 754 450 753 q 429 790 450 781 q 392 779 407 799 q 389 740 376 760 q 424 725 401 721 q 442 736 435 729 q 447 744 444 739 m 447 189 q 449 193 447 190 q 450 197 450 196 q 429 233 450 224 q 392 223 407 243 q 389 183 376 203 q 424 169 403 165 q 442 181 432 171 q 447 189 444 182 z "},"":{"ha":833,"x_min":44,"x_max":771,"o":"m 768 260 q 768 200 771 240 q 718 85 763 140 q 613 17 685 43 q 496 0 568 0 l 308 0 l 219 0 q 179 7 189 0 q 161 44 161 17 l 161 99 l 161 481 q 160 511 161 501 q 117 544 156 544 q 103 544 114 544 q 87 544 92 543 q 73 546 82 544 q 59 551 64 547 q 50 563 54 556 q 44 632 44 574 l 44 676 q 50 700 44 690 q 100 719 61 719 l 256 719 l 339 719 q 361 713 350 719 q 365 710 363 713 q 368 708 367 708 l 374 711 l 390 715 q 494 683 450 732 q 515 619 517 656 q 489 556 513 582 q 428 526 463 526 q 397 528 407 526 q 389 529 394 528 q 381 531 383 531 q 376 522 376 531 q 397 460 376 469 q 422 456 406 456 l 471 456 q 610 442 558 456 q 671 415 636 435 q 719 375 690 404 q 753 321 740 356 q 758 306 754 315 q 763 290 761 296 q 765 275 764 285 q 768 260 767 265 m 386 615 q 396 597 385 604 q 419 589 407 589 q 451 611 443 589 q 440 649 458 633 q 401 651 422 665 q 386 615 386 642 m 551 242 q 536 292 551 275 q 493 317 519 311 q 436 324 471 324 q 423 324 433 324 q 408 324 413 325 q 396 321 403 324 q 385 313 389 318 q 376 251 376 300 q 378 172 376 186 q 393 147 381 153 q 428 144 400 144 q 488 150 469 144 q 538 183 524 163 q 551 242 551 206 m 453 76 q 442 97 454 88 q 418 106 429 106 q 388 83 394 106 q 397 46 379 61 q 436 42 414 29 q 453 76 453 51 z "},"":{"ha":833,"x_min":138,"x_max":781,"o":"m 779 697 q 781 688 781 694 l 781 561 l 781 313 l 781 93 l 781 40 q 753 1 781 7 q 718 0 742 0 l 660 0 q 631 13 642 0 l 621 29 q 619 38 619 32 q 617 47 619 44 q 585 19 606 29 q 560 10 574 14 q 535 3 546 6 q 508 1 525 1 q 484 0 492 0 q 457 0 476 0 q 432 0 438 0 l 186 0 l 168 0 q 139 22 146 3 q 138 61 138 26 l 138 275 l 138 549 l 138 689 q 156 719 138 710 q 183 724 164 724 l 308 724 q 338 722 333 724 q 353 711 349 717 q 363 708 358 706 q 428 722 392 726 q 494 671 474 714 q 493 586 514 628 q 432 542 476 550 q 400 540 414 536 q 381 546 392 540 q 372 550 378 546 q 363 554 365 554 l 363 507 q 365 474 363 478 q 372 463 368 467 q 385 458 376 460 q 396 456 393 456 q 411 456 399 456 l 422 456 q 503 454 476 456 q 571 431 538 450 q 599 411 590 419 q 615 382 606 404 l 615 479 l 615 625 l 615 675 q 618 699 615 692 q 627 715 621 708 q 644 723 633 721 q 661 725 654 725 q 682 724 668 725 q 700 724 696 724 q 718 724 704 724 q 738 724 732 725 q 754 722 744 724 q 770 713 764 719 q 779 697 776 707 m 379 631 q 387 610 378 619 q 407 599 396 601 q 440 615 428 594 q 438 651 451 635 q 403 661 424 668 q 386 649 394 658 q 379 631 378 640 m 533 233 q 506 288 536 263 q 446 307 493 297 q 388 308 421 311 q 363 274 363 307 l 363 197 q 374 154 363 163 q 422 147 382 147 q 476 153 453 147 q 519 182 501 157 q 533 233 533 201 m 443 81 q 433 101 444 92 q 411 110 422 110 q 380 89 388 111 q 389 51 372 67 q 426 47 403 38 q 443 81 443 56 z "},"":{"ha":833,"x_min":139,"x_max":754,"o":"m 751 242 q 751 193 754 217 q 651 29 742 75 q 478 0 597 0 l 197 0 l 174 0 q 140 24 147 0 q 139 71 139 29 l 139 340 l 139 628 l 139 688 q 154 717 142 710 q 188 722 163 722 l 324 722 q 354 711 344 722 q 363 706 360 706 q 364 707 364 706 l 367 708 l 378 715 q 469 704 426 736 q 501 664 490 690 q 506 613 511 638 q 483 569 500 589 q 444 544 465 550 q 407 539 424 538 q 385 544 401 539 q 374 549 382 544 q 369 551 372 549 q 364 554 365 554 l 364 486 q 375 463 365 472 q 399 454 385 454 q 524 453 503 454 q 639 425 596 447 q 721 350 696 394 q 751 242 751 297 m 383 626 q 392 607 382 615 q 414 599 403 599 q 444 619 435 599 q 438 654 454 639 q 400 660 421 669 q 383 626 383 651 m 536 228 q 531 256 532 251 q 513 282 528 267 q 456 306 493 303 q 393 308 435 308 q 364 275 367 308 l 364 208 q 372 158 364 169 q 418 147 381 147 q 471 150 453 147 q 518 176 503 157 q 531 201 528 190 l 535 214 q 536 228 535 222 m 383 58 q 392 39 382 47 q 414 31 403 31 q 444 51 435 31 q 438 86 454 72 q 400 92 421 103 q 383 58 383 83 z "},"":{"ha":833,"x_min":58,"x_max":776,"o":"m 775 403 q 772 313 776 364 q 711 138 761 214 q 564 26 657 57 q 382 1 476 -6 q 288 13 328 4 q 201 42 250 19 q 74 168 125 76 q 60 206 58 197 q 85 232 63 226 q 196 263 104 239 q 203 265 197 263 q 212 267 210 267 q 219 269 214 268 q 228 271 225 271 q 235 271 231 271 q 244 270 240 271 q 251 268 247 269 q 258 264 254 267 q 264 257 261 261 q 277 238 269 251 q 288 221 285 225 q 319 190 303 201 q 403 168 350 168 q 489 192 456 168 q 538 265 528 224 q 529 301 544 290 q 500 307 522 307 l 376 307 q 347 311 353 307 q 329 344 329 321 l 329 400 q 342 432 329 424 q 372 440 351 440 l 429 440 l 494 440 q 524 443 518 440 q 522 518 560 457 q 454 572 497 560 q 364 576 408 585 q 289 531 315 568 q 258 503 271 508 q 228 506 247 497 l 114 549 q 88 563 90 558 q 85 600 74 576 q 228 718 138 683 q 411 749 306 749 q 596 710 518 749 q 674 656 644 683 l 704 622 q 728 585 711 614 q 775 403 768 515 m 450 656 q 444 679 457 667 q 426 692 439 688 q 392 679 406 699 q 390 642 379 660 q 425 628 400 622 q 443 638 435 629 q 450 656 451 646 m 450 93 q 444 115 456 101 q 426 129 435 128 q 390 114 403 133 q 390 76 376 94 q 425 64 404 57 q 443 75 435 67 q 450 93 451 83 z "},"":{"ha":833,"x_min":43,"x_max":842,"o":"m 839 406 q 836 317 842 354 q 792 139 825 201 q 660 19 743 51 q 572 1 614 3 q 525 3 540 1 q 482 10 494 6 q 472 13 479 11 q 461 17 465 15 q 443 13 456 18 q 403 8 428 6 q 362 27 381 11 q 336 64 343 43 q 332 100 329 81 q 333 106 332 103 q 335 111 335 110 q 325 126 333 118 q 304 167 308 157 q 289 210 293 194 q 278 253 282 235 q 267 292 271 286 q 232 306 254 310 q 210 278 213 304 q 208 197 208 269 l 208 69 q 183 15 208 25 l 143 15 l 83 15 q 43 51 46 15 l 43 103 l 43 343 l 43 607 l 43 686 q 54 726 43 715 q 85 738 65 738 l 146 738 q 182 736 176 738 q 208 706 206 729 l 208 614 l 208 549 l 208 533 q 208 519 207 519 q 225 486 211 492 q 265 489 244 479 q 285 522 279 499 l 297 568 q 315 608 314 607 l 325 625 q 332 636 332 635 l 332 640 q 333 671 332 665 q 356 710 340 694 q 431 735 389 743 q 438 733 432 735 q 446 731 443 731 q 456 734 450 731 q 465 738 463 738 q 510 747 479 742 q 689 718 603 763 q 804 586 765 678 q 839 406 832 519 m 383 650 q 393 628 381 640 q 413 618 401 619 q 446 636 436 618 q 442 674 456 657 q 404 682 425 690 q 383 650 381 674 m 669 385 q 669 399 669 389 q 668 413 668 408 q 574 581 661 565 q 521 578 550 585 q 481 549 497 569 q 443 453 451 518 q 439 346 436 411 q 457 244 442 285 q 525 174 479 186 q 619 193 579 160 q 663 283 651 219 q 669 385 669 325 m 450 88 q 440 108 450 99 q 419 119 431 118 q 388 100 397 121 q 393 63 378 79 q 430 56 408 47 q 450 88 451 65 z "},"":{"ha":833,"x_min":51,"x_max":756,"o":"m 754 700 q 756 664 756 699 l 756 453 l 756 181 l 756 35 q 746 10 756 18 q 717 1 738 1 l 597 1 q 583 1 596 1 q 567 1 571 0 q 554 3 563 1 q 542 10 546 6 q 535 24 538 15 q 532 47 532 31 l 532 100 l 532 229 l 532 260 q 526 292 532 285 q 504 293 522 297 q 465 282 481 290 q 417 219 442 268 q 410 193 403 197 q 431 190 414 190 q 492 151 471 185 q 507 113 504 133 q 503 69 508 92 q 446 13 490 26 q 379 15 410 0 q 346 38 369 19 q 321 43 328 50 q 317 35 319 42 q 311 26 314 28 q 297 11 303 15 q 264 1 283 1 l 158 1 l 99 1 l 72 1 q 61 31 51 7 q 75 57 68 42 l 135 174 q 153 208 146 196 l 168 232 q 218 292 194 271 q 249 308 222 294 q 260 317 260 314 q 250 328 263 324 q 213 342 217 339 q 179 364 197 349 q 125 428 143 390 q 114 592 88 506 q 226 706 143 678 q 386 724 282 724 l 604 724 l 708 724 q 754 700 747 724 m 385 653 q 390 632 378 644 q 407 618 399 622 q 442 630 429 613 q 443 667 454 647 q 408 681 433 683 q 385 653 382 674 m 532 539 q 494 571 528 571 l 456 572 q 415 571 415 572 q 361 560 375 568 q 329 514 333 542 q 342 460 326 479 q 385 431 356 440 q 439 425 403 425 l 478 425 l 506 425 q 532 464 532 431 l 532 539 m 407 129 q 385 94 382 122 q 410 68 385 74 q 443 81 429 61 q 441 118 456 97 q 407 129 426 139 z "},"":{"ha":833,"x_min":28,"x_max":806,"o":"m 799 26 q 789 1 806 10 q 769 -1 783 -1 l 610 -1 q 565 31 576 -1 q 560 52 564 38 q 552 78 556 67 q 543 97 549 89 q 519 115 536 108 q 506 117 507 121 l 507 107 q 500 67 507 82 q 452 19 485 33 q 383 17 419 6 q 338 53 356 26 q 324 108 321 81 l 324 118 l 313 118 q 285 103 301 117 q 272 76 278 96 q 266 56 271 71 q 258 33 261 42 q 217 -1 250 -1 l 150 -1 l 60 -1 q 40 1 46 -1 q 32 26 28 8 q 57 99 32 29 l 121 267 q 190 448 143 326 q 258 631 236 569 q 276 679 267 657 l 285 700 q 331 725 303 725 l 414 725 l 499 725 q 544 703 526 725 q 554 679 546 701 q 563 655 557 671 q 572 631 569 639 l 710 265 q 742 181 721 238 q 772 97 763 125 q 782 72 776 89 q 792 47 788 56 q 795 37 792 44 q 799 26 799 29 m 382 643 q 390 622 381 632 q 411 610 400 613 q 444 628 433 607 q 439 664 454 649 q 404 674 422 681 q 382 643 382 664 m 483 300 l 479 318 l 468 354 q 453 402 464 368 q 438 456 443 436 q 430 481 435 464 q 422 504 425 497 q 410 515 418 522 q 404 508 407 514 l 401 501 q 378 425 393 476 q 354 347 363 374 q 342 304 343 308 q 349 283 340 290 q 372 275 358 275 l 453 275 q 483 300 483 275 m 447 104 q 440 125 449 115 q 419 136 431 135 q 387 118 397 138 q 390 82 376 99 q 426 74 404 67 q 442 85 435 76 q 447 104 449 94 z "},"":{"ha":833,"x_min":106,"x_max":772,"o":"m 769 239 q 767 164 772 189 q 739 94 758 125 q 683 44 721 67 q 528 1 618 6 q 390 0 482 0 l 169 0 q 125 4 132 0 q 106 42 106 15 l 106 186 l 106 425 l 106 632 l 106 683 q 125 721 106 710 q 161 725 132 725 l 238 725 l 472 725 l 660 725 q 696 721 689 725 q 706 712 703 717 q 712 698 710 707 q 714 686 714 689 q 714 669 714 683 l 714 657 l 714 604 q 706 578 714 588 q 661 567 696 567 l 446 567 l 368 567 q 331 540 335 567 q 329 499 329 533 q 332 464 329 471 q 340 454 335 458 q 349 448 344 450 q 360 445 353 446 q 372 444 368 444 q 385 444 375 444 q 396 444 394 444 q 558 438 504 444 q 706 376 654 425 q 769 239 763 321 m 381 646 q 389 625 379 635 q 411 614 399 615 q 444 632 435 614 q 439 669 456 653 q 401 677 424 686 q 381 646 379 668 m 549 232 q 513 286 550 269 q 446 299 492 296 l 375 299 q 332 281 342 299 q 329 258 329 274 l 329 215 q 342 164 329 174 q 356 158 347 160 q 371 156 364 156 q 388 156 378 156 q 403 157 399 157 q 422 156 410 157 q 446 156 435 156 q 465 157 457 156 q 524 176 503 163 q 549 232 543 192 m 447 78 q 440 99 449 89 q 421 110 432 108 q 386 93 399 113 q 390 56 374 74 q 426 46 406 40 q 447 78 450 56 z "},"":{"ha":833,"x_min":113,"x_max":775,"o":"m 769 219 q 767 161 775 196 q 707 60 751 97 q 656 25 681 36 q 600 11 631 15 q 356 0 536 0 l 175 0 l 142 0 q 113 35 115 3 l 113 118 l 113 297 l 113 651 l 113 688 q 126 717 113 704 q 160 725 135 725 l 224 725 l 419 725 l 474 726 q 528 725 528 728 q 649 697 613 719 q 729 599 714 657 q 724 475 749 529 q 689 426 707 444 l 678 415 l 665 408 q 653 401 664 407 q 640 392 643 396 q 651 376 632 381 q 679 365 657 375 q 728 329 713 346 q 769 219 769 281 m 383 651 q 389 629 378 644 q 408 617 397 618 q 444 631 431 611 q 443 668 457 650 q 407 681 429 688 q 383 651 382 672 m 326 474 q 340 447 325 460 q 367 442 349 442 l 439 442 q 490 454 467 442 q 517 497 511 465 q 508 547 521 526 q 467 574 494 569 q 418 576 436 576 l 375 576 q 353 575 360 576 q 326 539 329 568 l 326 474 m 546 238 q 513 289 550 271 q 447 303 489 303 l 371 303 q 328 281 336 303 q 326 257 326 274 l 326 208 q 346 163 326 174 q 369 160 353 160 l 417 160 q 475 161 465 160 q 529 182 515 167 q 546 238 546 204 m 450 76 q 425 111 453 104 q 389 99 406 119 q 389 61 375 81 q 424 46 399 43 q 442 57 433 49 q 446 67 444 60 q 450 76 447 74 z "},"":{"ha":833,"x_min":210,"x_max":778,"o":"m 776 697 q 778 678 778 694 l 778 638 l 778 561 q 754 517 775 531 q 715 508 739 508 l 644 508 l 474 508 q 438 499 446 508 q 429 463 429 488 l 429 293 l 429 214 q 433 189 429 192 q 443 185 435 188 q 456 181 451 183 q 479 165 467 178 q 507 117 500 149 q 496 56 513 85 q 450 17 479 26 q 432 13 447 15 q 426 10 431 11 q 419 10 421 10 q 413 6 418 8 q 404 1 407 3 q 389 0 399 0 l 304 0 l 244 0 q 210 56 210 3 l 210 188 l 210 564 l 210 678 q 213 701 210 694 q 247 724 219 721 l 283 724 l 356 724 l 547 724 l 710 724 q 721 724 714 724 q 733 724 728 724 q 743 724 739 724 q 776 697 768 722 m 453 653 q 442 672 451 664 q 422 682 433 681 q 391 663 400 683 q 397 626 382 642 q 435 621 414 610 q 453 653 453 629 m 433 129 q 394 119 407 136 q 394 83 381 101 q 428 68 407 64 q 453 97 450 72 q 433 129 456 122 z "},"":{"ha":833,"x_min":6,"x_max":828,"o":"m 826 264 l 826 244 l 826 206 l 826 93 l 826 35 q 817 11 826 21 q 794 1 808 1 l 724 1 l 685 1 q 663 7 668 1 q 647 63 647 18 q 632 117 647 107 q 575 122 624 122 l 500 122 q 503 113 500 119 q 507 104 507 106 q 508 85 508 99 q 504 54 508 67 q 454 -1 489 15 q 378 0 415 -17 q 329 54 343 14 q 335 122 314 96 l 269 122 l 211 122 q 189 104 199 118 q 186 81 186 97 q 182 18 186 28 q 140 1 174 1 l 56 1 q 14 15 22 1 q 6 51 6 26 l 6 132 l 6 222 q 7 261 6 256 q 22 283 8 276 q 35 289 28 288 l 47 289 q 92 319 81 292 q 121 440 100 340 q 138 563 129 482 q 143 685 143 618 l 143 750 l 143 813 q 178 846 146 843 l 200 846 l 336 846 l 678 846 q 691 847 681 846 q 707 847 701 847 q 720 844 713 846 q 733 840 728 843 q 743 829 739 836 q 749 803 749 821 l 749 756 l 749 407 l 749 324 q 782 289 751 292 q 810 285 808 285 q 822 276 815 282 q 826 264 828 269 m 385 763 q 390 739 379 754 q 408 726 394 732 q 444 740 431 719 q 443 779 457 761 q 407 792 431 796 q 391 780 399 789 q 385 763 383 771 m 526 635 q 518 656 526 647 q 479 668 506 668 l 401 668 q 360 667 374 668 q 349 665 351 667 q 347 658 347 664 q 346 633 346 650 q 338 522 346 597 q 319 404 331 454 q 314 376 317 394 q 308 350 311 358 q 305 333 308 349 q 302 317 301 318 q 306 301 303 315 q 339 289 313 289 l 413 289 l 483 289 q 517 299 507 289 q 526 329 526 308 l 526 376 l 526 635 m 450 81 q 443 104 453 92 q 425 115 433 114 q 389 101 403 121 q 390 63 375 81 q 426 51 407 43 q 443 63 436 56 q 447 72 447 67 q 448 76 447 74 q 450 81 449 79 z "},"":{"ha":833,"x_min":129,"x_max":733,"o":"m 731 158 q 732 126 732 157 l 732 56 q 733 44 732 53 q 733 28 733 35 q 732 15 733 22 q 726 5 731 8 q 715 0 722 1 l 658 0 l 382 0 l 158 0 q 129 18 131 0 q 129 33 129 25 q 129 51 129 42 q 129 67 129 61 l 129 322 l 129 604 l 129 686 q 147 717 129 717 l 319 717 l 610 717 l 694 717 l 708 717 q 722 696 722 715 l 722 576 q 707 553 722 561 q 688 551 704 551 l 422 551 l 376 551 q 357 550 358 551 q 349 519 349 546 q 350 465 349 475 q 355 456 351 460 q 365 451 358 453 q 376 449 371 450 q 389 449 381 449 q 400 450 397 450 l 536 450 l 661 450 l 681 450 q 696 428 696 446 l 696 364 l 696 319 q 691 309 694 313 q 681 304 688 306 q 670 303 675 303 q 657 303 665 303 q 646 304 649 304 l 385 304 l 365 304 q 350 282 350 300 l 350 217 l 350 190 q 353 179 350 188 q 372 169 358 169 l 407 169 l 542 169 l 678 169 q 686 169 681 169 q 697 170 692 169 q 708 170 701 171 q 718 169 714 169 q 726 165 722 168 q 731 158 729 163 m 386 638 q 413 607 385 615 q 444 624 433 603 q 439 660 454 644 q 405 666 425 674 q 386 638 385 658 m 449 75 q 441 94 450 86 q 421 106 432 103 q 389 89 400 108 q 394 53 381 69 q 428 44 410 38 q 443 56 436 47 q 449 75 450 65 z "},"":{"ha":833,"x_min":8,"x_max":831,"o":"m 825 54 q 813 8 831 21 q 761 1 801 1 l 682 1 q 643 28 654 4 q 633 60 638 38 q 626 85 628 82 q 616 123 624 96 q 604 165 608 150 q 596 187 603 171 q 586 213 589 203 q 560 257 575 244 q 546 267 551 265 q 528 250 535 269 q 525 206 525 240 l 525 42 q 510 4 525 14 q 457 1 504 1 l 365 1 q 322 10 329 1 q 314 51 314 18 l 314 135 l 314 219 q 307 260 314 250 q 275 253 293 279 q 250 204 257 226 q 244 190 249 199 q 238 173 240 181 q 233 158 235 165 q 210 74 217 103 q 192 22 193 25 q 151 1 178 1 l 65 1 q 19 15 31 1 q 15 68 8 26 q 29 128 26 121 q 57 190 32 136 q 69 218 61 200 q 79 244 76 236 q 90 269 81 249 q 104 300 99 289 q 133 349 124 339 q 140 356 136 351 q 147 363 143 360 q 153 368 150 365 q 163 376 154 369 q 174 386 171 382 q 175 399 176 396 q 164 412 174 403 q 153 424 154 421 q 124 465 128 456 q 115 491 121 472 q 104 519 108 510 q 71 567 92 546 q 47 576 61 576 q 26 583 29 579 q 24 600 24 588 l 24 638 l 24 704 q 38 725 26 718 q 67 729 43 729 q 128 724 117 726 q 215 647 179 714 q 231 612 224 631 q 245 569 238 593 q 257 532 253 544 q 279 482 268 497 q 308 481 299 457 q 314 522 314 490 l 314 614 l 314 686 q 331 722 314 715 q 383 725 336 725 l 475 725 q 517 717 510 725 q 525 674 525 707 l 525 508 q 536 471 525 476 q 565 493 550 463 q 581 527 574 508 q 594 572 588 546 q 606 608 601 597 q 672 706 628 675 q 724 726 699 725 l 782 731 q 806 721 797 731 q 815 697 815 711 l 815 622 q 808 579 815 585 q 801 577 806 578 q 792 576 797 576 q 785 575 788 575 q 764 563 772 574 q 744 540 750 549 q 731 513 739 532 q 722 487 726 504 q 713 461 717 469 q 681 418 703 443 q 664 400 665 403 q 671 379 660 390 q 711 342 699 360 q 740 289 726 318 q 788 179 778 200 q 825 54 825 96 m 453 651 q 444 672 454 663 q 424 683 435 681 q 390 668 407 688 q 394 629 379 650 q 431 619 407 608 q 453 651 456 629 m 453 82 q 444 103 454 93 q 424 114 435 113 q 390 96 400 114 q 394 58 378 75 q 432 50 410 42 q 447 63 440 53 q 453 82 454 72 z "},"":{"ha":833,"x_min":90,"x_max":715,"o":"m 711 272 q 708 192 715 228 q 615 56 688 103 q 453 1 539 8 q 278 15 343 -4 q 139 110 186 40 q 99 189 113 146 q 100 225 90 215 q 125 235 106 232 l 240 243 q 268 244 257 246 q 300 226 282 244 q 324 196 322 197 q 357 176 329 190 q 438 178 400 164 q 489 235 481 192 q 490 271 492 258 q 468 300 488 283 q 399 331 438 326 q 363 332 388 332 q 328 340 336 332 q 318 374 318 350 l 318 418 q 342 443 324 442 q 363 443 349 444 q 383 443 376 442 q 447 483 431 451 q 450 560 468 531 q 376 586 431 589 q 310 553 328 583 q 254 522 285 519 q 140 536 221 528 q 114 544 121 539 q 107 576 99 557 q 153 651 128 624 q 217 706 179 685 q 299 738 243 722 q 386 747 331 747 q 468 742 431 750 q 622 676 571 726 q 668 604 654 647 q 672 524 679 569 q 640 449 668 481 q 610 421 632 438 q 601 407 601 413 q 611 396 601 399 q 627 388 614 394 q 647 376 640 382 q 679 347 667 361 q 711 272 701 319 m 451 660 q 442 681 453 671 q 421 692 432 690 q 388 674 399 694 q 393 638 378 653 q 431 629 410 618 q 451 660 451 636 m 451 89 q 443 110 453 100 q 422 122 433 119 q 389 106 404 126 q 392 68 376 89 q 429 57 406 50 q 445 70 438 60 q 451 89 453 81 z "},"":{"ha":833,"x_min":72,"x_max":763,"o":"m 761 697 q 763 683 763 694 l 763 514 l 763 242 l 763 49 q 753 10 763 19 q 725 1 744 1 l 672 1 l 608 1 l 578 1 q 562 12 569 3 q 553 29 554 21 l 553 49 l 553 289 l 553 351 q 544 361 550 361 q 533 351 540 361 l 514 319 q 483 268 503 301 q 451 217 463 235 q 447 200 444 204 q 461 189 449 194 q 475 182 474 183 q 510 108 510 151 q 471 33 510 57 q 406 18 439 14 q 368 32 388 19 q 349 47 350 46 q 318 10 331 17 q 295 2 308 4 q 273 0 282 0 q 247 1 264 0 q 225 1 231 1 l 106 1 q 72 28 76 1 q 72 32 72 29 q 72 38 72 35 q 72 43 72 42 l 72 129 l 72 438 l 72 675 l 72 689 q 94 721 72 713 q 135 724 103 724 l 213 724 q 254 722 247 724 q 283 689 279 718 q 285 661 285 676 q 284 628 285 646 q 283 600 283 610 l 283 442 l 283 389 q 285 363 283 364 q 294 361 289 356 q 304 375 299 367 l 338 429 q 356 459 342 436 q 378 494 369 482 q 385 506 379 496 q 393 522 392 517 q 388 531 393 528 q 376 538 383 535 q 367 543 369 540 q 336 578 344 561 q 327 627 325 599 q 346 675 329 656 q 418 711 374 708 q 490 679 458 714 q 508 706 503 701 q 536 721 522 717 q 579 724 542 724 l 668 724 l 729 724 q 747 717 742 721 q 761 697 763 707 m 451 615 q 428 650 454 640 q 393 639 407 658 q 392 600 381 619 q 424 588 403 582 q 451 615 444 592 m 447 125 q 440 132 446 126 q 429 140 433 138 q 410 140 419 143 q 387 109 388 133 q 408 78 386 85 q 443 88 428 71 q 447 125 456 101 z "},"":{"ha":833,"x_min":69,"x_max":758,"o":"m 581 721 l 732 721 q 750 713 742 721 q 758 694 758 706 l 758 26 q 750 8 758 17 q 732 0 742 0 l 576 0 q 557 8 565 0 q 549 26 549 15 l 549 382 q 544 395 549 393 q 533 388 539 397 l 404 150 q 407 140 404 140 l 414 140 q 461 125 439 143 q 474 111 469 117 q 484 61 489 89 q 457 17 479 33 q 382 13 422 -11 q 360 33 368 21 q 354 40 356 38 l 346 43 l 335 22 q 293 0 319 0 l 96 0 q 77 8 85 0 q 69 26 69 15 l 69 694 q 77 713 69 706 q 96 721 85 721 l 251 721 q 271 713 263 721 q 279 694 279 706 l 279 336 q 284 323 279 325 q 294 331 289 321 l 481 653 q 481 661 483 657 q 474 663 478 665 q 419 656 446 656 q 297 696 350 656 q 250 763 250 735 q 263 791 250 778 q 293 804 275 804 q 344 772 319 804 l 350 767 q 357 768 353 764 q 440 800 386 818 q 478 767 467 792 q 482 763 479 764 q 486 765 485 763 q 493 772 490 768 q 546 804 518 804 q 577 786 565 804 q 582 749 589 768 q 578 740 581 746 q 575 731 576 733 q 581 721 568 721 m 392 738 q 414 710 389 713 q 442 732 439 707 q 437 750 443 742 q 421 760 431 758 q 392 738 397 763 m 432 92 q 414 97 425 99 q 397 88 403 96 q 392 70 392 81 q 400 53 393 60 q 435 56 419 38 q 432 92 451 75 z "},"":{"ha":833,"x_min":118,"x_max":801,"o":"m 797 24 q 796 9 801 15 q 781 1 790 3 l 760 1 l 653 1 l 604 1 l 583 1 q 550 18 563 6 q 535 44 544 24 l 522 71 q 519 78 521 74 q 517 85 518 82 q 514 92 515 89 q 507 96 511 96 q 506 86 506 94 q 478 29 506 54 q 418 1 451 4 q 364 17 388 1 q 349 29 358 19 q 339 24 343 35 q 290 1 332 1 l 182 1 q 126 13 136 1 q 118 47 118 24 l 118 197 l 118 432 l 118 633 l 118 685 q 133 719 118 710 q 157 725 142 725 l 201 725 l 301 725 q 324 721 317 725 q 336 710 333 715 q 338 701 338 707 q 340 694 339 696 q 349 693 342 692 q 357 694 356 693 l 369 707 q 400 722 379 717 q 468 711 438 732 q 490 682 481 703 q 492 676 490 681 q 494 670 493 672 q 497 665 494 668 q 501 662 499 661 q 507 664 503 663 q 519 678 511 668 q 535 694 524 683 q 560 715 547 708 q 618 725 575 725 l 726 725 q 734 725 728 725 q 743 725 740 725 q 751 725 746 725 q 760 724 757 725 q 767 720 764 722 q 772 715 771 718 q 774 706 774 711 q 747 663 772 697 q 686 576 719 621 l 624 489 q 614 476 621 485 q 602 460 607 468 q 596 447 597 453 q 596 414 590 429 q 599 407 597 411 q 601 401 600 403 q 617 372 607 392 q 633 342 628 351 q 739 139 685 242 q 781 58 767 86 l 797 24 m 385 646 q 394 626 383 635 q 415 617 404 617 q 446 637 438 617 q 439 672 454 657 q 403 679 425 688 q 385 646 385 669 m 336 483 q 340 458 336 467 q 351 455 344 450 q 363 465 358 460 q 396 510 385 496 l 414 538 q 418 558 429 553 q 411 560 417 560 q 404 561 406 561 q 396 563 401 561 q 388 564 390 564 q 358 576 374 565 q 339 571 339 588 l 339 539 q 338 511 339 529 q 336 483 338 493 m 475 179 q 468 199 475 185 l 451 240 q 442 262 450 242 q 426 292 433 282 q 406 299 417 303 q 390 286 403 297 q 351 242 360 256 q 342 197 342 225 l 342 175 q 346 163 342 164 q 361 169 350 163 q 383 181 372 176 q 429 185 411 188 q 456 175 443 183 q 461 174 457 175 q 475 179 474 168 m 446 94 q 438 115 447 104 q 418 126 429 125 q 386 110 393 126 q 389 72 375 90 q 425 64 404 54 q 446 94 449 72 z "},"":{"ha":833,"x_min":54,"x_max":785,"o":"m 781 24 q 779 8 785 17 q 757 0 775 0 l 711 0 l 592 0 q 540 24 551 0 q 531 50 536 32 q 524 72 525 68 q 483 198 510 117 q 447 304 456 279 q 426 369 429 363 q 411 378 419 385 q 403 358 406 374 q 343 172 375 276 q 351 170 346 172 q 361 168 357 168 q 376 175 369 169 q 404 183 389 182 q 453 179 432 189 q 496 140 482 165 q 510 83 511 114 q 483 28 506 51 q 428 1 460 4 q 342 42 376 -4 q 325 64 329 61 q 314 71 317 72 l 311 68 q 302 43 307 63 q 292 17 297 24 q 251 0 276 0 l 171 0 l 88 0 q 54 15 54 0 q 57 28 54 19 l 60 36 q 74 76 67 54 q 131 240 93 131 q 189 403 169 349 q 237 543 204 450 q 286 682 269 636 q 290 691 288 685 q 293 700 292 697 q 332 719 303 719 l 492 719 l 507 719 q 532 706 519 718 q 543 686 539 699 q 579 585 558 640 q 637 424 592 549 q 706 232 682 300 q 758 85 736 151 l 775 40 q 777 35 775 39 q 780 29 779 32 q 781 24 781 26 m 451 635 q 441 653 453 646 q 418 661 429 661 q 387 639 394 661 q 397 601 379 617 q 436 600 421 589 q 451 635 451 613 m 386 93 q 394 73 385 83 q 413 61 403 63 q 447 78 436 58 q 442 114 457 97 q 406 123 428 131 q 386 93 385 115 z "},"":{"ha":833,"x_min":31,"x_max":800,"o":"m 799 697 q 800 683 800 694 l 800 651 l 800 382 l 800 96 l 800 38 q 786 8 797 15 q 749 1 776 1 l 674 1 q 632 3 636 1 q 622 7 626 4 q 615 15 618 10 q 611 23 613 19 q 609 33 610 26 q 608 43 608 40 q 608 54 608 46 q 608 64 608 63 l 608 333 q 601 354 608 350 q 585 343 597 356 l 582 338 q 577 326 579 332 q 573 311 575 319 q 569 299 571 303 q 547 228 561 275 q 507 103 519 144 q 502 88 506 99 q 496 71 499 76 q 463 35 485 47 q 369 35 414 11 q 328 89 338 50 q 310 144 322 107 q 292 201 297 182 q 249 335 276 246 q 247 341 249 336 q 245 348 246 346 q 242 353 244 350 q 236 356 239 356 q 224 351 228 357 q 221 338 221 346 l 221 222 l 221 74 q 222 58 221 71 q 222 38 222 44 q 218 23 221 32 q 208 8 215 14 q 171 1 199 1 l 94 1 q 51 3 56 1 q 31 36 31 8 l 31 210 l 31 522 l 31 693 q 53 726 31 721 q 88 728 58 728 l 231 728 q 263 725 256 728 q 290 693 281 718 q 295 676 292 688 q 300 660 299 665 q 303 651 301 657 q 307 643 306 646 q 324 642 315 635 q 329 651 326 644 q 333 661 332 658 q 367 697 344 682 q 415 711 390 713 q 494 664 471 708 q 497 658 496 663 q 500 650 499 653 q 504 644 501 647 q 510 639 507 640 q 515 639 513 638 q 524 653 519 640 q 530 672 526 660 q 535 688 533 683 q 558 721 543 711 q 592 728 568 728 l 735 728 l 769 728 q 790 717 781 726 q 799 697 800 708 m 382 615 q 392 596 381 604 q 413 588 403 588 q 444 608 435 588 q 438 643 454 628 q 400 649 421 656 q 382 615 382 639 m 490 550 q 474 549 489 564 q 442 531 454 535 q 376 535 413 519 q 349 554 367 539 q 336 551 336 564 q 338 547 336 550 q 340 541 339 544 q 342 536 342 538 q 347 519 343 531 q 353 501 351 507 q 370 450 358 483 q 391 390 382 417 q 407 339 400 363 q 415 322 413 322 q 424 339 418 324 q 431 360 428 349 q 438 385 435 371 q 444 406 442 399 q 466 473 450 421 q 490 550 482 525 m 449 107 q 439 127 450 118 q 415 138 428 136 q 383 115 393 138 q 393 79 376 93 q 431 74 410 63 q 449 107 449 83 z "},"":{"ha":833,"x_min":75,"x_max":769,"o":"m 763 718 q 769 685 769 708 l 769 625 l 769 415 l 769 182 l 769 44 q 753 10 769 19 q 729 6 746 6 l 685 6 l 583 6 q 561 10 568 6 q 544 38 546 22 q 543 103 543 49 l 543 219 l 543 257 l 543 276 q 497 300 533 300 l 389 300 q 322 297 338 300 q 299 243 299 292 l 299 153 q 332 156 325 153 q 356 174 335 157 l 368 182 q 401 194 379 189 q 488 158 456 204 q 503 97 507 132 q 475 40 500 63 q 375 25 429 -1 q 360 35 369 28 q 347 44 350 43 q 329 53 336 53 q 320 53 325 53 q 309 53 315 53 q 299 53 303 53 q 290 17 299 25 q 261 6 281 6 l 211 6 l 108 6 q 84 17 93 6 q 75 44 75 29 l 75 107 l 75 363 l 75 619 l 75 689 q 100 729 75 721 q 132 731 104 731 l 199 731 l 257 731 q 283 725 274 731 q 299 692 299 717 l 299 678 l 310 678 q 328 681 321 678 q 357 699 339 683 q 383 714 365 707 q 443 715 410 724 q 478 693 463 710 q 500 657 494 676 q 482 572 515 606 q 444 546 465 556 q 410 542 432 542 q 356 563 381 542 q 338 578 342 576 q 299 579 332 579 l 299 531 q 303 496 299 504 q 356 478 313 478 l 460 478 l 501 478 q 522 479 519 478 q 543 500 538 485 l 543 521 l 543 618 q 542 642 543 626 q 542 672 542 658 q 543 696 542 685 q 579 731 549 731 l 736 731 q 763 718 754 733 m 408 664 q 381 635 390 660 q 404 599 381 603 q 440 610 426 594 q 443 647 457 629 q 408 664 429 668 m 408 139 q 381 110 390 135 q 404 74 381 81 q 441 85 426 67 q 443 124 456 104 q 408 139 428 143 z "},"":{"ha":833,"x_min":31,"x_max":790,"o":"m 789 428 q 790 371 790 410 q 732 144 790 235 q 551 17 668 46 q 436 0 488 0 q 321 8 365 0 q 264 22 282 17 q 210 44 249 26 q 119 118 165 64 q 63 219 83 161 q 40 335 46 264 q 81 572 31 476 q 151 664 108 625 q 254 725 190 699 q 492 744 354 764 q 699 646 629 725 q 721 622 714 631 q 728 611 722 619 q 736 599 733 603 q 764 543 753 574 q 779 488 775 507 q 789 428 782 476 m 379 660 q 386 640 378 649 q 406 628 394 631 q 440 643 428 624 q 444 661 447 651 q 439 679 444 672 q 422 693 433 689 q 401 693 411 696 q 379 660 375 683 m 567 383 q 566 398 567 389 q 565 411 565 407 q 536 519 565 468 q 442 578 507 571 q 333 558 376 588 q 272 465 289 529 q 264 351 260 417 q 289 239 269 274 q 375 172 318 183 q 488 183 439 160 q 553 269 533 207 q 567 383 560 289 m 444 89 q 438 110 446 101 q 417 122 429 119 q 383 105 394 126 q 388 67 372 83 q 422 57 400 50 q 439 69 432 60 q 444 89 446 79 z "},"":{"ha":833,"x_min":69,"x_max":761,"o":"m 760 697 q 761 681 761 694 l 761 651 l 761 381 l 761 92 l 761 33 q 744 6 758 13 q 710 0 736 0 l 575 0 q 548 11 558 0 q 538 39 538 22 l 538 290 l 538 439 l 538 511 q 518 543 538 535 q 483 546 511 546 l 339 546 q 307 539 317 546 q 293 510 293 532 l 293 411 l 293 251 l 293 183 l 293 146 q 294 142 293 142 l 313 142 l 321 142 q 361 167 331 143 q 442 181 399 194 q 504 114 490 165 q 501 63 510 89 q 475 24 494 40 q 385 6 439 -14 q 360 18 372 10 q 351 26 358 19 q 339 36 344 33 q 325 38 335 38 l 296 38 q 293 32 293 36 q 292 26 293 31 q 290 21 292 22 q 275 4 282 8 q 240 0 268 0 l 167 0 l 107 0 q 75 15 85 0 q 69 64 69 24 l 69 328 l 69 621 l 69 688 q 80 713 69 703 q 106 722 90 722 l 310 722 l 621 722 l 714 722 l 728 722 q 747 715 738 722 q 760 697 750 713 m 447 643 q 438 663 449 654 q 417 672 428 671 q 386 652 394 674 q 394 615 378 631 q 432 611 411 599 q 447 643 447 619 m 382 90 q 391 71 382 81 q 411 60 400 61 q 443 78 432 58 q 438 114 454 97 q 401 121 422 129 q 382 90 381 113 z "},"":{"ha":833,"x_min":146,"x_max":764,"o":"m 763 517 q 760 450 764 486 q 738 385 751 414 q 656 301 713 331 q 533 269 599 272 q 469 269 511 269 q 407 268 428 269 q 383 258 393 268 q 374 235 374 249 l 374 168 q 378 171 375 168 q 383 174 382 174 q 394 178 383 175 q 417 183 408 183 q 450 179 428 185 q 508 126 492 171 q 500 39 529 81 q 431 -1 475 3 q 369 17 406 -3 q 358 6 365 10 q 343 0 353 0 q 260 -1 333 -1 l 179 -1 q 160 6 168 0 q 150 22 153 11 q 147 40 147 33 q 147 63 146 46 q 147 81 147 79 l 147 283 l 147 526 l 147 682 q 160 718 147 708 q 207 724 169 724 l 429 724 q 572 722 561 724 q 646 703 615 715 q 711 658 681 689 q 763 517 763 611 m 389 647 q 397 627 388 636 q 418 615 406 618 q 451 633 442 613 q 446 671 461 654 q 410 678 432 688 q 389 647 388 669 m 544 501 q 519 557 547 538 q 461 576 497 574 q 436 578 461 578 l 411 576 q 386 571 393 576 q 374 550 375 563 l 374 483 q 378 431 374 438 q 399 415 389 417 l 428 415 q 485 422 463 415 q 531 450 519 433 q 544 501 544 471 m 392 94 q 397 72 389 89 q 417 61 404 64 q 450 72 438 57 q 451 110 464 89 q 417 124 439 126 q 399 113 407 121 q 392 94 390 104 z "},"":{"ha":833,"x_min":42,"x_max":744,"o":"m 740 238 q 733 201 744 229 q 719 165 731 192 q 613 46 676 83 q 535 14 578 25 q 451 1 507 7 q 367 3 422 0 q 285 15 324 6 q 203 47 240 26 q 140 100 174 65 q 89 171 111 132 q 60 247 78 189 q 44 332 50 272 q 44 419 42 375 q 90 589 49 506 q 208 707 125 660 q 376 750 278 746 q 547 733 469 757 q 683 639 631 708 q 726 568 703 614 q 728 532 736 544 q 704 518 721 521 l 593 493 q 535 507 546 483 q 493 560 519 539 q 458 576 478 571 q 421 583 444 581 q 340 564 379 588 q 310 536 321 551 q 288 500 300 525 q 269 418 275 475 q 269 332 265 375 q 333 189 279 218 q 371 174 358 175 q 413 169 392 169 q 489 192 453 169 q 535 254 517 210 q 541 270 536 257 q 550 289 546 283 q 585 301 560 307 l 681 272 q 692 270 683 272 q 704 267 700 268 q 715 263 708 265 q 726 256 722 260 q 735 248 731 253 q 740 238 739 243 m 393 657 q 403 638 392 646 q 426 629 415 629 q 457 652 450 631 q 446 689 464 674 q 408 690 428 703 q 393 657 393 683 m 460 92 q 451 112 461 103 q 429 124 442 121 q 396 105 407 126 q 401 67 385 83 q 439 60 417 51 q 460 92 461 68 z "},"":{"ha":833,"x_min":74,"x_max":754,"o":"m 754 700 l 754 679 l 754 635 l 754 572 q 717 546 749 546 l 561 546 q 525 517 529 546 l 525 490 l 525 335 l 525 33 q 494 0 525 3 l 433 0 l 344 0 q 306 17 317 0 q 301 47 301 24 l 301 104 l 301 290 l 301 467 q 302 483 301 471 q 302 501 303 494 q 300 517 301 507 q 294 533 299 526 q 283 543 290 539 q 232 546 278 546 l 135 546 q 89 553 100 546 q 74 596 74 561 l 74 685 q 96 724 74 714 q 121 725 100 725 l 172 725 l 543 725 l 692 725 l 719 725 q 736 721 728 725 q 747 713 743 718 l 754 700 m 447 650 q 439 672 449 663 q 417 682 429 681 q 384 664 394 685 q 389 626 374 643 q 426 619 404 610 q 447 650 449 628 m 447 89 q 439 111 449 97 q 418 121 429 119 q 384 103 394 125 q 389 65 374 82 q 426 58 403 49 q 447 89 449 67 z "},"":{"ha":833,"x_min":89,"x_max":742,"o":"m 736 724 q 735 699 742 715 q 688 569 718 653 q 649 460 657 485 q 554 194 593 307 q 544 167 553 192 q 533 138 535 143 q 522 112 531 132 q 507 83 513 92 q 492 60 501 74 q 471 36 482 46 q 368 1 435 4 l 264 1 q 213 4 246 1 q 196 6 207 6 q 176 8 185 6 q 161 14 167 10 q 144 50 144 25 l 144 122 q 164 157 144 150 q 210 156 172 160 q 226 154 217 154 q 245 155 235 154 q 261 156 256 156 q 313 168 292 156 q 336 203 332 179 q 329 244 340 226 q 308 288 322 260 q 290 321 293 317 q 142 611 267 368 q 97 700 121 656 q 92 724 89 714 q 125 736 97 736 l 274 736 q 308 732 297 736 q 338 688 329 722 q 344 696 340 690 q 351 704 349 701 l 368 717 q 460 721 417 747 q 492 694 481 710 q 497 683 494 690 q 501 674 500 676 q 506 687 503 676 q 510 703 508 697 q 517 715 513 708 q 526 725 521 722 q 563 736 546 736 l 632 736 l 704 736 q 736 724 729 736 m 383 639 q 392 619 382 628 q 411 607 401 610 q 444 625 433 604 q 440 661 456 646 q 403 669 425 678 q 383 639 382 661 m 433 451 q 465 556 456 521 l 444 551 q 422 549 428 549 q 400 549 411 546 q 391 551 397 549 q 381 554 385 554 q 407 469 400 489 q 415 444 410 451 q 433 451 424 433 m 449 82 q 439 104 450 93 q 421 113 432 111 q 388 98 399 118 q 392 61 378 78 q 426 50 404 43 q 449 82 453 63 z "},"":{"ha":833,"x_min":14,"x_max":813,"o":"m 808 436 q 813 374 813 406 q 800 257 813 307 q 735 150 781 192 q 625 94 699 115 q 565 81 603 88 q 522 54 532 75 q 520 40 521 50 q 519 28 519 31 q 506 7 514 13 q 485 0 494 0 l 458 0 l 371 0 q 329 8 339 0 q 318 29 321 15 q 317 43 317 33 q 315 57 317 53 q 268 83 308 75 q 149 118 206 94 q 63 197 94 143 q 28 314 32 250 q 68 554 14 475 q 161 629 104 603 q 283 664 221 656 q 317 694 313 669 q 351 722 319 722 l 486 722 q 519 697 515 722 q 531 674 522 682 q 554 664 540 665 q 671 631 618 656 q 769 551 735 604 q 797 494 789 521 q 808 436 803 478 m 451 651 q 442 672 454 660 q 422 679 432 679 q 389 660 399 681 q 396 622 379 639 q 433 617 413 607 q 451 651 451 625 m 632 375 q 574 499 629 453 q 522 506 533 531 q 521 461 521 503 l 521 276 q 529 239 521 244 q 583 261 546 228 q 618 311 608 283 q 628 342 626 331 q 630 358 629 347 q 632 375 631 369 m 317 494 q 310 508 318 503 q 294 514 303 514 q 267 499 283 513 q 224 446 240 476 q 211 328 194 394 q 240 275 218 301 q 264 253 253 261 q 292 236 282 238 q 315 249 310 232 q 317 265 317 254 l 317 344 l 317 494 m 451 81 q 442 101 453 92 q 419 110 431 110 q 388 89 396 111 q 397 51 381 67 q 433 46 417 38 q 451 81 451 56 z "},"":{"ha":833,"x_min":24,"x_max":801,"o":"m 796 22 q 794 8 801 14 q 776 1 786 1 l 756 1 l 592 1 q 540 29 558 1 q 528 50 535 39 q 515 75 522 61 q 503 96 507 89 q 486 58 503 85 q 442 29 471 38 q 390 29 414 21 q 349 56 369 35 q 329 100 335 69 q 311 69 314 74 l 290 31 q 269 11 282 18 q 218 1 254 1 l 114 1 l 50 1 q 44 36 24 4 l 82 90 q 204 268 124 149 q 250 333 235 313 q 268 369 265 357 q 258 413 274 392 q 219 469 251 424 q 97 646 156 564 l 64 696 q 58 711 58 707 q 78 726 60 724 q 117 728 78 728 l 157 726 l 242 726 q 293 701 275 726 q 332 635 299 693 q 336 647 335 644 q 353 669 338 651 q 443 692 386 707 q 481 667 464 685 q 501 629 497 650 q 514 649 510 643 q 522 665 515 651 q 531 683 529 678 q 540 698 533 688 q 553 713 547 708 q 567 721 558 717 q 586 726 576 725 q 599 726 592 726 q 616 726 607 726 q 629 726 625 726 l 714 726 l 757 726 q 773 716 769 725 q 771 697 776 707 q 713 613 767 690 q 660 535 694 585 q 619 474 626 485 q 600 444 613 463 q 585 422 588 426 q 571 403 582 418 q 568 354 557 375 q 582 333 572 347 q 620 278 594 314 q 658 222 646 242 l 751 88 q 796 22 792 29 m 449 614 q 439 633 449 625 q 419 643 429 642 q 388 624 397 646 q 393 588 378 603 q 431 581 408 569 q 449 614 449 590 m 449 114 q 440 133 450 125 q 419 143 431 142 q 387 126 397 146 q 392 89 376 106 q 428 82 408 72 q 449 114 449 90 z "},"":{"ha":833,"x_min":86,"x_max":831,"o":"m 829 261 q 831 226 831 258 l 831 153 l 831 71 l 831 35 q 823 15 829 22 q 805 4 817 7 q 785 1 793 1 q 760 1 776 0 q 740 1 744 1 q 720 1 736 1 q 697 1 704 0 q 677 4 689 1 q 659 14 665 7 q 651 33 653 21 q 650 88 650 42 q 642 110 650 100 q 621 122 633 121 l 550 122 l 400 122 l 128 122 q 98 133 110 122 q 86 160 86 143 l 86 235 l 86 557 l 86 801 q 89 822 86 815 q 124 846 97 846 q 144 846 133 846 q 168 846 154 846 q 189 846 182 846 l 254 846 q 289 825 278 843 q 290 800 290 822 l 290 686 l 290 372 l 290 339 q 311 311 292 324 q 349 300 324 300 l 415 300 l 493 300 q 531 306 522 300 q 541 316 538 310 q 546 331 544 322 q 548 344 547 339 q 548 361 549 350 q 547 376 547 372 l 547 679 l 547 704 l 531 704 l 521 704 q 499 693 511 703 q 457 667 464 669 q 411 664 428 658 q 340 725 354 676 q 368 824 324 786 q 463 839 407 858 q 486 825 476 833 q 508 810 500 811 q 526 808 511 808 l 546 808 q 547 815 547 808 q 581 846 551 843 q 598 847 589 847 q 617 847 607 847 q 633 846 628 846 l 708 846 q 744 833 733 846 q 753 804 753 824 l 753 696 l 753 385 l 753 354 q 756 314 753 319 q 771 294 760 301 q 794 289 781 289 q 815 282 807 289 q 829 261 831 271 m 461 754 q 453 775 463 765 q 432 786 443 785 q 399 768 410 789 q 406 732 389 747 q 439 724 418 717 q 461 754 464 733 m 461 203 q 453 224 463 215 q 432 236 444 233 q 399 219 410 240 q 403 181 389 197 q 440 172 417 164 q 461 203 463 181 z "},"":{"ha":833,"x_min":24,"x_max":679,"o":"m 678 706 l 679 704 l 679 688 l 679 657 l 679 560 l 679 296 l 679 86 q 679 75 679 83 q 679 62 679 67 q 679 49 679 57 q 678 37 679 42 q 675 25 676 32 q 670 15 674 18 q 663 7 667 11 q 653 1 660 3 q 640 0 647 0 l 528 0 l 492 0 q 463 14 467 0 q 443 4 456 7 q 421 0 433 0 q 349 29 374 -3 q 325 74 332 49 q 329 125 321 101 q 401 183 343 171 q 446 178 426 186 l 453 175 q 456 178 454 175 l 456 194 l 456 211 q 451 229 456 224 q 431 235 447 235 q 405 232 422 235 q 382 229 388 229 q 350 229 367 229 q 313 229 333 229 q 282 229 293 229 q 266 230 275 229 q 246 232 257 231 q 229 233 235 233 q 181 243 200 236 q 94 296 138 257 q 24 475 24 358 l 24 593 l 24 664 q 25 694 24 690 q 33 712 28 706 q 49 720 39 718 q 67 723 60 722 q 88 723 74 724 q 106 722 101 722 l 181 722 q 215 717 207 722 q 231 683 231 707 l 231 628 l 231 514 q 239 467 231 497 q 264 429 250 440 q 356 410 299 406 q 382 415 375 413 q 406 422 393 417 q 443 450 433 435 q 456 549 456 472 q 435 542 453 546 q 414 539 421 539 q 383 544 394 539 q 328 603 340 563 q 339 685 315 653 q 408 722 367 721 q 446 718 421 724 q 463 708 463 713 q 478 719 471 717 q 493 722 483 722 l 608 722 q 622 723 611 722 q 639 723 633 724 q 653 721 644 722 q 668 716 663 719 q 678 706 674 713 m 447 632 q 439 653 450 642 q 419 663 432 660 q 387 645 399 665 q 390 610 375 625 q 427 602 406 594 q 447 632 449 610 m 447 92 q 440 113 449 104 q 418 124 431 122 q 386 106 396 126 q 392 69 376 85 q 426 61 407 54 q 442 73 435 64 q 447 92 449 82 z "},"":{"ha":833,"x_min":29,"x_max":806,"o":"m 804 75 q 805 61 804 72 q 806 43 806 50 q 803 27 806 36 q 797 14 801 18 q 739 1 786 1 l 438 1 l 117 1 l 60 1 q 29 57 29 7 l 29 351 l 29 660 l 29 686 q 46 718 31 706 q 93 724 53 724 l 175 724 q 214 704 206 724 q 218 676 218 694 l 218 551 l 218 232 q 218 225 218 229 q 218 217 218 221 q 218 210 218 213 q 254 179 222 179 q 306 193 293 176 q 314 222 314 203 l 314 526 l 314 665 q 344 724 314 722 l 479 724 q 496 721 489 724 q 514 704 507 718 q 518 678 518 697 l 518 369 l 518 233 q 519 210 518 218 q 554 179 524 182 q 608 190 596 176 q 617 221 617 200 l 617 338 l 617 663 l 617 688 q 644 724 619 719 q 663 725 653 725 q 685 724 674 725 q 704 724 697 724 l 769 724 q 792 715 782 725 q 804 693 803 706 l 804 675 l 804 394 l 804 75 m 425 604 q 451 633 442 608 q 426 669 451 665 q 390 657 404 675 q 389 619 376 639 q 425 604 404 600 m 425 49 q 451 76 442 53 q 426 114 451 108 q 391 100 406 118 q 389 64 376 82 q 425 49 401 42 z "},"":{"ha":833,"x_min":14,"x_max":868,"o":"m 868 254 l 868 207 l 868 42 q 847 3 868 14 q 826 1 844 1 l 785 1 l 719 1 q 689 42 689 6 q 690 63 689 47 q 689 90 690 79 q 682 108 688 101 q 631 122 672 122 l 364 122 l 57 122 q 26 132 36 122 q 15 163 15 146 l 15 265 l 15 644 l 15 783 q 15 789 15 785 q 40 843 15 835 q 61 844 44 844 l 104 844 l 171 844 q 194 832 186 843 q 203 811 203 821 q 204 783 204 801 q 204 781 204 782 q 204 778 204 779 l 204 424 l 204 333 q 215 310 204 319 q 240 300 225 300 q 294 317 285 300 q 300 347 300 326 l 300 403 l 300 585 l 300 761 l 300 806 q 314 838 300 825 q 364 844 322 844 l 454 844 q 497 831 489 844 q 504 800 504 821 l 504 468 l 504 340 q 517 310 504 325 q 542 300 526 300 q 551 300 544 300 q 563 300 557 300 q 572 300 568 300 q 603 336 603 304 q 603 346 603 340 q 603 358 603 351 q 603 367 603 364 l 603 532 l 603 721 l 603 811 q 615 835 604 825 q 639 844 625 844 l 715 844 q 772 842 765 844 q 790 807 790 832 l 790 490 l 790 358 q 792 319 790 332 q 806 297 793 306 q 833 289 818 288 q 857 279 847 290 q 868 254 867 268 m 447 744 q 449 749 447 746 q 450 754 450 753 q 429 790 450 781 q 392 779 407 799 q 389 740 376 760 q 424 725 401 721 q 442 736 435 729 q 447 744 444 739 m 447 189 q 449 193 447 190 q 450 197 450 196 q 429 233 450 224 q 392 223 407 243 q 389 183 376 203 q 424 169 403 165 q 442 181 432 171 q 447 189 444 182 z "},"":{"ha":833,"x_min":44,"x_max":771,"o":"m 768 260 q 768 200 771 240 q 718 85 763 140 q 613 17 685 43 q 496 0 568 0 l 308 0 l 219 0 q 179 7 189 0 q 161 44 161 17 l 161 99 l 161 481 q 160 511 161 501 q 117 544 156 544 q 103 544 114 544 q 87 544 92 543 q 73 546 82 544 q 59 551 64 547 q 50 563 54 556 q 44 632 44 574 l 44 676 q 50 700 44 690 q 100 719 61 719 l 256 719 l 339 719 q 361 713 350 719 q 365 710 363 713 q 368 708 367 708 l 374 711 l 390 715 q 494 683 450 732 q 515 619 517 656 q 489 556 513 582 q 428 526 463 526 q 397 528 407 526 q 389 529 394 528 q 381 531 383 531 q 376 522 376 531 q 397 460 376 469 q 422 456 406 456 l 471 456 q 610 442 558 456 q 671 415 636 435 q 719 375 690 404 q 753 321 740 356 q 758 306 754 315 q 763 290 761 296 q 765 275 764 285 q 768 260 767 265 m 386 615 q 396 597 385 604 q 419 589 407 589 q 451 611 443 589 q 440 649 458 633 q 401 651 422 665 q 386 615 386 642 m 551 242 q 536 292 551 275 q 493 317 519 311 q 436 324 471 324 q 423 324 433 324 q 408 324 413 325 q 396 321 403 324 q 385 313 389 318 q 376 251 376 300 q 378 172 376 186 q 393 147 381 153 q 428 144 400 144 q 488 150 469 144 q 538 183 524 163 q 551 242 551 206 m 453 76 q 442 97 454 88 q 418 106 429 106 q 388 83 394 106 q 397 46 379 61 q 436 42 414 29 q 453 76 453 51 z "},"":{"ha":833,"x_min":138,"x_max":781,"o":"m 779 697 q 781 688 781 694 l 781 561 l 781 313 l 781 93 l 781 40 q 753 1 781 7 q 718 0 742 0 l 660 0 q 631 13 642 0 l 621 29 q 619 38 619 32 q 617 47 619 44 q 585 19 606 29 q 560 10 574 14 q 535 3 546 6 q 508 1 525 1 q 484 0 492 0 q 457 0 476 0 q 432 0 438 0 l 186 0 l 168 0 q 139 22 146 3 q 138 61 138 26 l 138 275 l 138 549 l 138 689 q 156 719 138 710 q 183 724 164 724 l 308 724 q 338 722 333 724 q 353 711 349 717 q 363 708 358 706 q 428 722 392 726 q 494 671 474 714 q 493 586 514 628 q 432 542 476 550 q 400 540 414 536 q 381 546 392 540 q 372 550 378 546 q 363 554 365 554 l 363 507 q 365 474 363 478 q 372 463 368 467 q 385 458 376 460 q 396 456 393 456 q 411 456 399 456 l 422 456 q 503 454 476 456 q 571 431 538 450 q 599 411 590 419 q 615 382 606 404 l 615 479 l 615 625 l 615 675 q 618 699 615 692 q 627 715 621 708 q 644 723 633 721 q 661 725 654 725 q 682 724 668 725 q 700 724 696 724 q 718 724 704 724 q 738 724 732 725 q 754 722 744 724 q 770 713 764 719 q 779 697 776 707 m 379 631 q 387 610 378 619 q 407 599 396 601 q 440 615 428 594 q 438 651 451 635 q 403 661 424 668 q 386 649 394 658 q 379 631 378 640 m 533 233 q 506 288 536 263 q 446 307 493 297 q 388 308 421 311 q 363 274 363 307 l 363 197 q 374 154 363 163 q 422 147 382 147 q 476 153 453 147 q 519 182 501 157 q 533 233 533 201 m 443 81 q 433 101 444 92 q 411 110 422 110 q 380 89 388 111 q 389 51 372 67 q 426 47 403 38 q 443 81 443 56 z "},"":{"ha":833,"x_min":139,"x_max":754,"o":"m 751 242 q 751 193 754 217 q 651 29 742 75 q 478 0 597 0 l 197 0 l 174 0 q 140 24 147 0 q 139 71 139 29 l 139 340 l 139 628 l 139 688 q 154 717 142 710 q 188 722 163 722 l 324 722 q 354 711 344 722 q 363 706 360 706 q 364 707 364 706 l 367 708 l 378 715 q 469 704 426 736 q 501 664 490 690 q 506 613 511 638 q 483 569 500 589 q 444 544 465 550 q 407 539 424 538 q 385 544 401 539 q 374 549 382 544 q 369 551 372 549 q 364 554 365 554 l 364 486 q 375 463 365 472 q 399 454 385 454 q 524 453 503 454 q 639 425 596 447 q 721 350 696 394 q 751 242 751 297 m 383 626 q 392 607 382 615 q 414 599 403 599 q 444 619 435 599 q 438 654 454 639 q 400 660 421 669 q 383 626 383 651 m 536 228 q 531 256 532 251 q 513 282 528 267 q 456 306 493 303 q 393 308 435 308 q 364 275 367 308 l 364 208 q 372 158 364 169 q 418 147 381 147 q 471 150 453 147 q 518 176 503 157 q 531 201 528 190 l 535 214 q 536 228 535 222 m 383 58 q 392 39 382 47 q 414 31 403 31 q 444 51 435 31 q 438 86 454 72 q 400 92 421 103 q 383 58 383 83 z "},"":{"ha":833,"x_min":58,"x_max":776,"o":"m 775 403 q 772 313 776 364 q 711 138 761 214 q 564 26 657 57 q 382 1 476 -6 q 288 13 328 4 q 201 42 250 19 q 74 168 125 76 q 60 206 58 197 q 85 232 63 226 q 196 263 104 239 q 203 265 197 263 q 212 267 210 267 q 219 269 214 268 q 228 271 225 271 q 235 271 231 271 q 244 270 240 271 q 251 268 247 269 q 258 264 254 267 q 264 257 261 261 q 277 238 269 251 q 288 221 285 225 q 319 190 303 201 q 403 168 350 168 q 489 192 456 168 q 538 265 528 224 q 529 301 544 290 q 500 307 522 307 l 376 307 q 347 311 353 307 q 329 344 329 321 l 329 400 q 342 432 329 424 q 372 440 351 440 l 429 440 l 494 440 q 524 443 518 440 q 522 518 560 457 q 454 572 497 560 q 364 576 408 585 q 289 531 315 568 q 258 503 271 508 q 228 506 247 497 l 114 549 q 88 563 90 558 q 85 600 74 576 q 228 718 138 683 q 411 749 306 749 q 596 710 518 749 q 674 656 644 683 l 704 622 q 728 585 711 614 q 775 403 768 515 m 450 656 q 444 679 457 667 q 426 692 439 688 q 392 679 406 699 q 390 642 379 660 q 425 628 400 622 q 443 638 435 629 q 450 656 451 646 m 450 93 q 444 115 456 101 q 426 129 435 128 q 390 114 403 133 q 390 76 376 94 q 425 64 404 57 q 443 75 435 67 q 450 93 451 83 z "},"":{"ha":833,"x_min":43,"x_max":842,"o":"m 839 406 q 836 317 842 354 q 792 139 825 201 q 660 19 743 51 q 572 1 614 3 q 525 3 540 1 q 482 10 494 6 q 472 13 479 11 q 461 17 465 15 q 443 13 456 18 q 403 8 428 6 q 362 27 381 11 q 336 64 343 43 q 332 100 329 81 q 333 106 332 103 q 335 111 335 110 q 325 126 333 118 q 304 167 308 157 q 289 210 293 194 q 278 253 282 235 q 267 292 271 286 q 232 306 254 310 q 210 278 213 304 q 208 197 208 269 l 208 69 q 183 15 208 25 l 143 15 l 83 15 q 43 51 46 15 l 43 103 l 43 343 l 43 607 l 43 686 q 54 726 43 715 q 85 738 65 738 l 146 738 q 182 736 176 738 q 208 706 206 729 l 208 614 l 208 549 l 208 533 q 208 519 207 519 q 225 486 211 492 q 265 489 244 479 q 285 522 279 499 l 297 568 q 315 608 314 607 l 325 625 q 332 636 332 635 l 332 640 q 333 671 332 665 q 356 710 340 694 q 431 735 389 743 q 438 733 432 735 q 446 731 443 731 q 456 734 450 731 q 465 738 463 738 q 510 747 479 742 q 689 718 603 763 q 804 586 765 678 q 839 406 832 519 m 383 650 q 393 628 381 640 q 413 618 401 619 q 446 636 436 618 q 442 674 456 657 q 404 682 425 690 q 383 650 381 674 m 669 385 q 669 399 669 389 q 668 413 668 408 q 574 581 661 565 q 521 578 550 585 q 481 549 497 569 q 443 453 451 518 q 439 346 436 411 q 457 244 442 285 q 525 174 479 186 q 619 193 579 160 q 663 283 651 219 q 669 385 669 325 m 450 88 q 440 108 450 99 q 419 119 431 118 q 388 100 397 121 q 393 63 378 79 q 430 56 408 47 q 450 88 451 65 z "},"":{"ha":833,"x_min":51,"x_max":756,"o":"m 754 700 q 756 664 756 699 l 756 453 l 756 181 l 756 35 q 746 10 756 18 q 717 1 738 1 l 597 1 q 583 1 596 1 q 567 1 571 0 q 554 3 563 1 q 542 10 546 6 q 535 24 538 15 q 532 47 532 31 l 532 100 l 532 229 l 532 260 q 526 292 532 285 q 504 293 522 297 q 465 282 481 290 q 417 219 442 268 q 410 193 403 197 q 431 190 414 190 q 492 151 471 185 q 507 113 504 133 q 503 69 508 92 q 446 13 490 26 q 379 15 410 0 q 346 38 369 19 q 321 43 328 50 q 317 35 319 42 q 311 26 314 28 q 297 11 303 15 q 264 1 283 1 l 158 1 l 99 1 l 72 1 q 61 31 51 7 q 75 57 68 42 l 135 174 q 153 208 146 196 l 168 232 q 218 292 194 271 q 249 308 222 294 q 260 317 260 314 q 250 328 263 324 q 213 342 217 339 q 179 364 197 349 q 125 428 143 390 q 114 592 88 506 q 226 706 143 678 q 386 724 282 724 l 604 724 l 708 724 q 754 700 747 724 m 385 653 q 390 632 378 644 q 407 618 399 622 q 442 630 429 613 q 443 667 454 647 q 408 681 433 683 q 385 653 382 674 m 532 539 q 494 571 528 571 l 456 572 q 415 571 415 572 q 361 560 375 568 q 329 514 333 542 q 342 460 326 479 q 385 431 356 440 q 439 425 403 425 l 478 425 l 506 425 q 532 464 532 431 l 532 539 m 407 129 q 385 94 382 122 q 410 68 385 74 q 443 81 429 61 q 441 118 456 97 q 407 129 426 139 z "},"":{"ha":833,"x_min":136,"x_max":739,"o":"m 738 157 q 739 143 739 156 l 739 113 l 739 35 q 731 3 739 8 q 713 0 725 0 l 611 0 l 279 0 l 169 0 q 136 18 139 0 l 136 89 l 136 232 l 136 567 l 136 675 q 154 714 136 711 l 186 714 q 203 719 200 714 q 203 733 206 724 q 197 754 200 740 q 209 806 192 781 q 254 835 226 831 q 306 825 282 839 q 336 785 331 811 q 335 738 342 756 q 331 732 333 736 q 326 724 328 728 q 325 718 324 721 q 342 714 328 710 q 346 718 346 715 q 347 722 346 719 q 350 729 347 725 q 354 735 353 733 q 372 754 361 746 q 421 774 394 774 q 472 758 446 775 q 493 740 486 749 q 500 728 499 732 q 504 717 503 717 q 514 713 507 714 q 524 717 521 713 q 515 736 525 721 q 514 788 506 763 q 549 828 525 814 q 601 833 572 840 q 642 803 626 828 q 653 754 657 779 q 644 731 651 743 q 644 717 642 719 q 658 714 646 714 l 697 714 q 728 699 725 714 q 729 683 729 692 q 728 663 729 674 q 728 646 728 651 l 728 575 q 711 554 728 556 l 679 554 l 611 554 l 443 554 l 388 554 q 363 549 368 554 q 358 535 358 544 l 358 501 l 358 467 q 364 451 358 458 q 388 449 368 449 l 447 449 l 614 449 l 672 449 q 697 442 690 449 q 701 401 701 438 l 701 325 q 699 311 701 315 q 685 303 694 303 l 656 303 l 499 303 l 421 303 q 408 303 417 303 q 391 303 399 303 q 378 303 383 303 q 358 285 360 300 l 358 225 l 358 190 q 361 176 358 181 q 383 168 367 168 l 511 168 l 674 168 l 718 168 q 738 157 736 168 m 390 696 q 397 673 389 685 q 417 660 406 661 q 451 676 439 657 q 451 713 464 694 q 417 725 438 732 q 399 714 406 722 l 397 711 q 393 704 394 707 q 392 700 393 703 q 390 696 392 697 m 457 71 q 451 93 464 81 q 432 106 446 103 q 398 92 411 113 q 397 54 385 71 q 433 42 413 35 q 451 53 443 44 q 457 71 458 61 z "},"":{"ha":833,"x_min":0,"x_max":0,"o":""},"":{"ha":833,"x_min":119,"x_max":724,"o":"m 449 1 q 428 1 442 1 q 407 0 414 0 q 236 61 313 4 q 136 203 160 119 q 121 296 122 251 q 136 386 119 338 q 238 529 165 474 q 413 589 307 582 q 494 578 453 592 q 579 540 540 564 q 690 399 656 489 q 701 222 724 315 q 610 74 683 140 q 538 26 572 40 q 449 1 493 10 m 417 72 q 437 79 428 71 q 449 100 446 88 q 431 133 451 122 q 393 131 411 144 q 385 92 376 117 q 417 72 393 72 z "}}}
